<svg width="43" height="43" viewBox="0 0 43 43" fill="none" xmlns="http://www.w3.org/2000/svg">
<path d="M14.4586 28.5875L14.364 28.5053C14.2034 28.3451 14.1064 28.1322 14.0908 27.906C14.0752 27.6798 14.1421 27.4556 14.2791 27.2749L14.3631 27.1786L25.5858 15.9577L19.8927 15.9586C19.6682 15.9586 19.4511 15.878 19.281 15.7316C19.1108 15.5851 18.9989 15.3824 18.9655 15.1604L18.9549 15.0225C18.9547 14.7977 19.0353 14.5803 19.1819 14.41C19.3286 14.2396 19.5316 14.1277 19.7539 14.0944L19.8918 14.0838L27.8441 14.0812C28.0686 14.0812 28.2857 14.1617 28.4558 14.3082C28.626 14.4547 28.7379 14.6573 28.7713 14.8793L28.781 15.0181L28.7846 22.9766C28.7836 23.2126 28.6938 23.4395 28.5329 23.6121C28.372 23.7847 28.152 23.8903 27.9167 23.9078C27.6814 23.9254 27.4481 23.8535 27.2634 23.7066C27.0788 23.5597 26.9563 23.3486 26.9204 23.1154L26.9098 22.9775L26.9081 17.287L15.6898 28.5053C15.5293 28.6657 15.316 28.7624 15.0896 28.7775C14.8632 28.7926 14.639 28.7251 14.4586 28.5875Z" fill="black"/>
</svg>
