<svg width="25" height="18" viewBox="0 0 25 18" fill="none" xmlns="http://www.w3.org/2000/svg">
<path d="M1.76318 0.0482349C0.92334 0.214251 0.210449 0.936907 0.0493164 1.79628C-0.019043 2.15761 -0.019043 15.4096 0.0493164 15.7709C0.215332 16.6498 0.92334 17.3578 1.80225 17.5238C2.16357 17.5922 22.8374 17.5922 23.1987 17.5238C24.0776 17.3578 24.7856 16.6498 24.9517 15.7709C25.02 15.4096 25.02 2.15761 24.9517 1.79628C24.7856 0.917376 24.0776 0.209368 23.1987 0.0433521C22.8716 -0.0152416 2.08057 -0.0152416 1.76318 0.0482349ZM18.189 5.73671C15.2593 8.65175 13.8091 10.0629 13.6235 10.1752C12.9399 10.5902 12.061 10.5902 11.3774 10.1752C11.1919 10.0629 9.7417 8.65175 6.81201 5.73671L2.51514 1.46425H12.5005H22.4858L18.189 5.73671ZM5.83545 6.82558L7.78857 8.78359L5.34717 11.2299C4.00439 12.5726 2.5835 13.9838 2.18799 14.3598L1.46533 15.0434V8.78359V2.52382L2.67627 3.6957C3.34033 4.34023 4.76123 5.75136 5.83545 6.82558ZM23.5259 11.9184L23.5112 15.058L20.3618 11.9184L17.2124 8.78359L20.3618 5.64882L23.5112 2.51406L23.5259 5.64882C23.5308 7.37245 23.5308 10.1947 23.5259 11.9184ZM9.35107 10.351C10.2349 11.2396 10.7476 11.5961 11.4751 11.8207C11.7827 11.9135 11.9487 11.933 12.5005 11.933C13.2524 11.933 13.6431 11.8402 14.2095 11.5326C14.6294 11.308 14.8491 11.1225 15.562 10.4291L16.1577 9.84316L17.3198 10.9711C17.9595 11.5912 19.3804 12.9975 20.4839 14.101L22.4858 16.1078H12.5005L2.51514 16.1029L5.65478 12.9828C7.3833 11.2641 8.80908 9.85781 8.82861 9.85781C8.84814 9.85781 9.08252 10.0775 9.35107 10.351Z" fill="white"/>
</svg>
