<svg width="116" height="117" viewBox="0 0 116 117" fill="none" xmlns="http://www.w3.org/2000/svg">
<path d="M57.8603 0.128114C56.7264 0.292696 56.6624 0.329286 57.4852 0.347581C57.8603 0.356729 58.3541 0.393294 58.5827 0.420737C59.6067 0.585319 57.9059 0.759073 55.7023 0.722482C54.998 0.704187 54.4038 0.67677 54.3763 0.658474C54.3579 0.631031 54.3946 0.567023 54.4678 0.52131C54.7055 0.356729 54.0015 0.539606 53.6264 0.73163C53.4345 0.832203 53.2791 0.923654 53.2791 0.932802C53.2791 0.941949 53.8368 0.932802 54.5134 0.914506C55.7023 0.877941 55.7479 0.877941 55.7479 1.06082C55.7479 1.3077 55.5285 1.35344 54.294 1.35344C53.3063 1.35344 53.2607 1.36256 53.3063 1.53632C53.3522 1.71005 53.3063 1.71919 52.3737 1.71919C51.8343 1.71919 51.3588 1.75578 51.3038 1.8015C51.1942 1.91122 49.7951 2.1764 49.356 2.1764C49.1733 2.16725 48.9264 2.11239 48.7983 2.03923C48.4234 1.82891 48.0119 1.8838 47.061 2.26785C46.5672 2.45987 45.8173 2.71591 45.3968 2.8165C44.9853 2.92623 44.5555 3.03595 44.4548 3.06339C44.2902 3.1091 44.2813 3.09995 44.4092 2.95367C44.5371 2.80736 44.5282 2.79821 44.3636 2.84392C44.2629 2.87137 43.9154 2.96282 43.5862 3.04509C43.257 3.1274 42.1141 3.52974 41.0442 3.92294C39.124 4.64532 38.2734 4.85564 38.1547 4.66362C38.0907 4.5539 37.7432 4.64532 36.6916 5.04767C36.344 5.18483 36.0148 5.27628 35.96 5.25798C35.9052 5.23057 35.4206 5.52316 34.872 5.88894C34.3323 6.26384 33.866 6.56562 33.8296 6.56562C33.7929 6.56562 33.866 6.46502 33.985 6.337C34.1037 6.20898 34.1769 6.10839 34.1496 6.10839C34.1221 6.10839 33.7653 6.29129 33.3538 6.51988C32.9426 6.74849 32.5675 6.93137 32.5219 6.93137C32.2658 6.93137 28.5349 9.5466 28.0961 10.0313L27.9223 10.2233L28.3522 10.0313C28.5899 9.93065 28.8093 9.86664 28.8368 9.88494C28.8549 9.91236 28.5076 10.2324 28.0502 10.589C27.5931 10.9457 27.2183 11.284 27.2183 11.3297C27.2183 11.4669 26.6697 11.6955 26.4867 11.6406C25.9654 11.476 26.6878 10.3056 27.5839 9.86664C28.0594 9.62891 29.8701 8.34872 29.8701 8.24812C29.8701 8.16584 29.3396 8.48588 28.5257 9.0711C28.0594 9.40029 27.6023 9.67462 27.4925 9.67462C27.3921 9.67462 27.0629 9.79349 26.7609 9.94895C26.4592 10.0953 26.1484 10.2233 26.0752 10.2233C25.8467 10.2233 26.1759 9.70206 26.6147 9.39114C26.9806 9.11682 28.4345 8.30301 28.5441 8.30301C28.5716 8.30301 28.5808 8.38528 28.5441 8.47674C28.4985 8.64134 28.5168 8.65046 28.7545 8.58646C29.166 8.46759 29.5684 8.22985 30.6381 7.50744C31.7995 6.72105 32.2474 6.47416 32.5402 6.47416C32.659 6.47416 33.2899 6.17239 33.9483 5.80664C35.2009 5.12082 35.6033 4.86479 35.5301 4.79163C35.5121 4.76422 34.9176 5.07511 34.2227 5.47745C33.0157 6.17239 32.7137 6.29129 32.979 5.97122C33.2443 5.65118 32.9242 5.74263 31.8726 6.28214C31.269 6.60218 30.7479 6.83079 30.7204 6.80335C30.6473 6.7302 28.6995 7.75435 27.5839 8.44017C27.1085 8.73277 26.3313 9.27227 25.8467 9.63805C25.0053 10.269 24.9597 10.3238 24.859 10.7811C24.7951 11.0371 24.5757 11.7229 24.3652 12.3082L23.9812 13.3597L22.9204 14.2284C21.055 15.7738 19.7932 16.8985 18.4124 18.261C17.6717 18.9926 17.0682 19.5504 17.0682 19.4954C17.0682 19.276 17.8913 18.1696 18.6685 17.3557C19.4915 16.487 19.9211 16.103 19.848 16.3041C19.7565 16.5602 21.1281 15.2068 21.4848 14.6856C21.6495 14.4479 21.8688 14.2376 21.9787 14.2101C22.2164 14.1461 23.2405 13.1403 23.4234 12.7836C23.652 12.3447 23.3228 12.2716 22.9388 12.6739C22.8017 12.8202 22.4633 13.0305 22.1889 13.1403C21.7682 13.3049 21.6586 13.4054 21.5124 13.7072C21.4117 13.9358 20.7533 14.6582 19.784 15.6183C18.9154 16.4687 18.2022 17.1454 18.1838 17.1271C18.1655 17.1088 18.3392 16.7979 18.577 16.4322C19.0252 15.7463 19.8847 14.8411 20.1863 14.7496C20.3968 14.6765 20.4149 14.5576 20.2139 14.4844C20.1224 14.4479 19.8938 14.6033 19.5554 14.9417C19.2721 15.2251 18.9337 15.5086 18.8055 15.5909C18.6776 15.664 18.2936 16.1578 17.9369 16.679C17.5894 17.2094 16.9951 17.9775 16.6385 18.389C16.2727 18.8005 15.7423 19.4497 15.4497 19.8246C15.1663 20.1996 14.3433 21.1047 13.6301 21.8363C12.3224 23.1896 11.7738 23.8939 11.9201 24.0401C12.0664 24.1864 12.3864 23.8664 13.3283 22.6501C13.8404 21.9917 14.2701 21.4798 14.2976 21.5071C14.325 21.5346 14.2336 21.7267 14.0873 21.9278C13.5752 22.6501 13.5477 22.696 13.6666 22.6229C13.7215 22.5862 13.7763 22.5954 13.7763 22.641C13.7763 22.8148 13.2369 23.4548 12.6882 23.9303C12.3773 24.2047 12.039 24.5887 11.9292 24.799L11.7464 25.174L12.0755 24.8632C12.2584 24.6894 12.4047 24.5796 12.4047 24.6346C12.4047 24.6802 12.1944 25.0459 11.9384 25.4393C11.4537 26.2073 10.9417 27.1674 10.9417 27.3228C10.9417 27.5606 11.1611 27.3687 11.472 26.8565C12.0847 25.8414 12.6882 24.9455 12.7614 24.9455C12.8071 24.9455 12.8162 25.055 12.7979 25.1924C12.7522 25.4393 12.7614 25.4393 12.8802 25.2655C12.9534 25.1649 13.3557 24.5064 13.7855 23.8024C14.4896 22.6229 14.5536 22.4764 14.5628 21.9917C14.581 21.5529 14.645 21.3516 14.9559 20.8397C15.2851 20.2819 15.3766 20.1905 15.8612 19.98C16.5927 19.6508 17.0682 19.66 17.0682 20.0075C17.0682 20.1905 15.3949 21.8363 15.212 21.8363C15.0474 21.8363 13.7489 24.6346 13.7581 24.9546C13.7581 25.1649 13.6575 25.2928 13.182 25.677C12.4322 26.2621 11.4355 27.4599 10.3839 29.0237C9.93581 29.7005 9.54262 30.313 9.51518 30.3862C9.48776 30.4501 9.54262 30.5872 9.64319 30.6878C9.81695 30.8616 9.81695 30.8708 9.42375 31.4378C9.20428 31.7486 9.01226 32.0503 8.99397 32.1145C8.90252 32.3704 8.8568 32.0778 8.93911 31.7211C8.98482 31.5017 9.01226 31.3098 8.99397 31.2915C8.97567 31.2731 8.56421 32.0503 8.07041 33.0196C7.57662 33.9797 7.11027 34.8211 7.04626 34.8759C6.91825 34.9765 6.64392 35.6622 6.64392 35.8635C6.64392 35.9183 6.79023 35.6989 6.96396 35.3697C7.31144 34.7296 7.59491 34.3912 7.67722 34.5194C7.70464 34.5559 7.53091 35.068 7.29317 35.6441C6.69878 37.0889 6.27817 38.314 6.15015 39.0092L6.04041 39.6034L5.59235 39.6125L5.13515 39.6217L5.11685 39.1646C5.08944 38.616 5.24487 37.0339 5.38203 36.4853C5.43689 36.2751 5.45519 36.0737 5.43689 36.0465C5.36374 35.9823 4.175 39.0364 3.66294 40.6002C3.06858 42.4106 2.89482 42.4198 3.2606 40.6185C3.37032 40.1155 3.46177 39.5669 3.48007 39.3932C3.51663 39.0456 4.40362 36.8693 4.58649 36.6774C4.6505 36.6134 4.79681 36.2842 4.90653 35.955C5.0254 35.6166 5.32717 34.8667 5.6015 34.2725C5.86668 33.6872 6.13186 33.0013 6.19586 32.7546C6.25072 32.5077 6.34218 32.2608 6.39704 32.2149C6.48849 32.1145 6.48849 32.1326 6.23243 33.2209C6.04041 34.062 5.89409 35.0588 5.93069 35.3058C5.95813 35.4612 6.03126 35.3697 6.26902 34.9126C6.49761 34.4735 6.59821 34.126 6.66221 33.5866C6.78108 32.4527 6.95484 31.9864 7.5492 31.1817C8.299 30.1668 8.52762 29.7186 8.06127 30.1576C7.93325 30.2763 7.83265 30.3405 7.83265 30.3038C7.83265 30.2215 8.3173 29.5083 8.70134 29.0145C9.10369 28.5115 9.18599 28.3288 8.91166 28.5757C8.51847 28.9414 8.54591 28.8043 9.00311 28.2098C9.25 27.899 9.66149 27.332 9.92667 26.9388C10.1918 26.5548 10.6125 26.0243 10.8685 25.7593C11.2068 25.4118 11.3349 25.1924 11.3532 24.9819C11.3623 24.8265 11.4995 24.4241 11.6549 24.0857L11.9475 23.464L11.1611 24.1772C10.1187 25.1282 9.82609 25.4941 8.91166 27.0484C6.97311 30.3495 6.16842 31.8857 5.31802 33.9158C5.07114 34.5102 4.82426 34.9674 4.77852 34.949C4.6505 34.9034 3.88241 36.6134 3.43433 37.93C3.05028 39.0823 2.94971 39.768 2.81254 42.182C2.71195 43.8737 2.41935 45.5471 2.16329 45.9038C1.97127 46.1599 1.8524 46.6262 1.76095 47.44C1.69694 47.9247 1.57807 48.2631 1.49577 48.1716C1.46835 48.1441 1.48662 47.8791 1.53236 47.5863C1.63293 47.001 1.54151 46.7816 1.33119 47.0377C1.23059 47.1564 1.21232 47.44 1.23059 48.2722C1.26718 49.4882 1.10258 50.7686 0.928847 50.6952C0.86484 50.6771 0.77339 50.6952 0.718529 50.7503C0.617931 50.8509 0.599661 50.8326 0.489915 50.4575C0.471645 50.3843 0.39849 50.6863 0.325334 51.1434C0.160728 52.2134 0.160728 53.9963 0.334482 54.801C0.39849 55.1485 0.462498 55.9168 0.462498 56.4926C0.462498 57.3705 0.435055 57.6357 0.252179 58.102C0.069303 58.5867 0.0510075 58.7971 0.0784504 59.5926C0.0875725 60.1048 0.0693026 60.5161 0.0327121 60.5161C-0.0587131 60.5161 0.0601553 62.4366 0.160728 62.6193C0.224736 62.7291 0.233884 62.7107 0.243031 62.5461C0.243031 62.1346 0.407637 62.3632 0.471645 62.8662C0.572218 63.744 0.883136 65.1888 1.03857 65.5363L1.19403 65.8655L1.24889 65.1796C1.2946 64.5762 1.27633 64.4664 1.10258 64.2195C0.901405 63.9361 0.892258 63.8538 0.745972 61.5677L0.700234 60.8361L0.82825 61.4854C0.937995 62.0615 1.21232 62.7747 1.2946 62.6924C1.3129 62.6832 1.27633 62.3084 1.22144 61.8604C1.14831 61.266 1.14831 60.9916 1.23059 60.763C1.34949 60.4249 1.28545 56.7304 1.14831 56.2641C1.09343 56.0814 1.08431 56.2732 1.11172 56.831C1.17573 57.8095 1.03857 57.9741 0.892258 57.1054C0.736825 56.1453 0.654521 52.3505 0.791684 52.0212C0.937995 51.6556 1.04772 51.6556 0.992856 52.0121C0.956265 52.2865 1.11172 52.5974 1.24889 52.5151C1.2946 52.4875 1.34949 52.2957 1.38605 52.076C1.42262 51.8658 1.4775 51.6556 1.50492 51.6097C1.52321 51.5641 1.69694 52.0029 1.87984 52.5699L2.20903 53.6123L2.19988 55.5325C2.19074 56.8677 2.15415 57.517 2.08102 57.6632C1.98956 57.8278 1.98956 58.0931 2.07187 58.8978C2.13588 59.4645 2.19074 60.4796 2.20903 61.1653C2.21818 61.8696 2.27304 62.4822 2.3279 62.5828C2.38276 62.6743 2.43762 62.7016 2.43762 62.6376C2.43762 62.3815 2.62052 62.5553 2.62052 62.8206C2.62052 62.9852 2.68453 63.5063 2.75766 63.9636C2.89482 64.7864 2.8857 64.8231 2.71195 64.9969C2.61137 65.0973 2.52907 65.2527 2.52907 65.3442C2.52907 65.4357 2.47421 65.5911 2.40105 65.6918C2.27304 65.8564 2.25474 65.838 2.06272 65.3809C1.95297 65.1156 1.8524 64.9146 1.83411 64.9327C1.81584 64.9419 1.86155 65.2071 1.9347 65.4996C2.09928 66.1948 2.09928 66.2862 1.94385 66.222C1.72439 66.1397 1.68779 66.4965 1.79754 67.6303C1.89811 68.5449 1.94385 68.7367 2.12673 68.938C2.30046 69.1118 2.34619 69.2672 2.34619 69.6237C2.34619 70.2913 2.52907 71.6263 2.71195 72.3578C2.8034 72.7054 2.8674 73.0071 2.84911 73.0254C2.83996 73.0438 2.57478 72.6047 2.27304 72.0561C1.79754 71.2148 1.43176 70.6937 1.43176 70.8766C1.43176 70.9039 1.64208 71.4708 1.89811 72.1384C2.23645 73.0529 2.35532 73.4642 2.33705 73.7753C2.3096 74.2233 2.51077 74.9548 2.61137 74.7994C2.69365 74.6623 3.69036 75.8235 4.05614 76.4819C4.22074 76.7836 4.35788 76.9482 4.35788 76.8567C4.35788 76.555 3.90068 75.3113 3.57149 74.7355C3.03199 73.7662 3.23316 73.8849 3.84582 74.9001C4.16586 75.4303 4.68709 76.2258 5.00713 76.6738C5.31802 77.1128 5.69295 77.7621 5.83009 78.1188C6.141 78.9143 6.59821 80.5237 6.52505 80.5968C6.34218 80.7887 5.72951 79.7921 5.72951 79.2891C5.72951 79.0331 5.40947 79.2068 5.36374 79.4902C5.31802 79.7463 5.29973 79.7371 5.1443 79.2616C5.05285 78.9875 4.90653 78.6766 4.80596 78.5759C4.70536 78.4753 4.35788 77.9175 4.02869 77.3414C3.70865 76.7653 3.33376 76.1619 3.20574 76.0156L2.97713 75.7412L3.12344 76.0337C3.26975 76.3448 3.56234 77.6158 3.49834 77.6798C3.48007 77.6981 3.35205 77.5152 3.20574 77.2591C2.99542 76.8567 2.8034 76.6649 2.8034 76.8476C2.8034 76.9757 3.94642 78.9875 4.01957 78.9875C4.06528 78.9875 4.06528 78.9052 4.03784 78.8045C4.01042 78.7038 4.01042 78.6216 4.03784 78.6216C4.0927 78.6216 4.88826 80.2584 5.0254 80.6516C5.06199 80.7431 5.0437 80.8162 4.99798 80.8162C4.94312 80.8162 4.90653 80.7706 4.90653 80.7247C4.90653 80.606 4.5682 80.606 4.48592 80.7339C4.41277 80.8618 4.96139 81.4288 5.22657 81.493C5.36374 81.5294 5.47348 81.6576 5.54664 81.8678C5.6015 82.0416 5.71122 82.2426 5.77523 82.3158C5.84838 82.3889 6.30558 83.1388 6.79023 83.9802C8.3173 86.632 9.3323 88.1591 10.0181 88.8083C10.4845 89.2563 10.4296 89.0185 9.90837 88.3509C9.35974 87.6561 9.02141 87.0708 9.02141 86.8422C9.02141 86.7599 8.83851 86.5405 8.60992 86.3576C8.3813 86.1654 8.03382 85.7267 7.81438 85.3607C7.34803 84.5561 6.88168 83.4772 6.97311 83.3949C7.0097 83.3582 7.04626 83.3765 7.06456 83.4224C7.21087 83.8248 8.38131 85.3791 9.20429 86.2753C9.88095 86.9976 10.4479 87.7292 10.9417 88.5155C11.344 89.1464 11.6732 89.7134 11.6732 89.7684C11.6732 89.8232 11.6 89.8324 11.5177 89.8049C11.3897 89.7593 11.3989 89.8049 11.5817 90.1066C12.103 90.9846 12.8254 91.8533 14.2336 93.298C15.8521 94.9714 16.611 95.8217 16.611 95.9682C16.611 96.023 16.8122 96.3795 17.0682 96.7637C17.3151 97.1477 17.5254 97.5134 17.5254 97.5776C17.5254 97.8334 18.696 98.821 19.784 99.4795C20.223 99.7539 20.7077 100.174 21.2746 100.796C21.9239 101.5 22.2439 101.775 22.6827 101.985C22.9936 102.14 23.5333 102.497 23.8806 102.771C24.2373 103.046 24.8865 103.558 25.3253 103.896C25.7735 104.244 26.1575 104.582 26.185 104.655C26.249 104.811 26.8707 105.14 27.1085 105.14C27.3187 105.14 28.1325 105.652 28.1325 105.78C28.1325 105.963 30.501 107.38 30.702 107.316C30.7571 107.298 30.5466 107.096 30.2266 106.877C29.9157 106.658 29.7055 106.456 29.7603 106.438C29.8793 106.402 31.6988 107.325 32.0645 107.609L32.2933 107.792H32.0464C31.9001 107.792 31.7903 107.819 31.7903 107.865C31.7903 107.901 32.0556 108.112 32.3845 108.331C32.7137 108.55 32.979 108.77 32.979 108.816C32.979 108.925 34.4785 109.62 35.4845 109.977C36.527 110.343 37.67 110.635 39.6542 111.028C40.532 111.202 41.7299 111.495 42.306 111.678C44.8755 112.492 48.0028 113.178 49.8957 113.351C50.3712 113.397 51.2398 113.415 51.816 113.397C52.8584 113.351 52.8676 113.351 53.0869 113.589C53.2332 113.744 53.407 113.827 53.5899 113.827C53.8368 113.836 53.846 113.845 53.7087 113.927C53.5899 114 53.1509 113.973 52.1085 113.836C51.3221 113.726 50.5542 113.644 50.3987 113.653L50.1243 113.662L50.3804 113.763C50.8283 113.936 50.6454 114.009 49.7403 114.009C48.9629 114.019 48.8625 114.028 49.0087 114.138C49.1367 114.238 49.2556 114.247 49.5117 114.174C49.8957 114.064 51.1484 114.128 52.6206 114.329C53.846 114.494 55.9217 114.668 56.0223 114.604C56.068 114.576 56.3972 114.549 56.772 114.549C57.4121 114.54 58.3997 114.732 58.8296 114.942C58.9667 115.015 59.5884 115.025 60.7954 114.988C62.35 114.933 62.9353 114.878 64.5903 114.604C64.8097 114.567 64.9562 114.494 64.9287 114.448C64.9011 114.403 64.9195 114.311 64.9834 114.238C65.0657 114.147 65.0474 114.092 64.9287 114.028C64.7549 113.936 64.8005 113.918 66.4741 113.589C67.1598 113.461 67.3335 113.452 67.6352 113.552C67.8365 113.616 67.9736 113.699 67.9553 113.744C67.928 113.781 67.6628 113.836 67.3519 113.872C66.986 113.918 66.8306 113.973 66.8856 114.028C66.986 114.128 67.3244 114.064 68.5406 113.735C68.9154 113.635 69.2354 113.571 69.2538 113.589C69.2813 113.607 69.016 113.717 68.6868 113.827C68.3576 113.936 68.0926 114.046 68.1107 114.064C68.129 114.083 68.4127 114.028 68.7327 113.955C69.0616 113.882 70.3329 113.635 71.5672 113.406C75.0056 112.784 74.5026 112.985 78.6539 110.672C79.6599 110.114 80.8761 109.52 81.3516 109.346C81.827 109.172 83.0613 108.605 84.1038 108.093C85.1737 107.572 86.0151 107.206 86.0332 107.261C86.0515 107.316 86.582 107.042 87.2129 106.649C89.6634 105.094 90.0749 104.865 90.3585 104.865C90.5687 104.865 90.7973 104.737 91.2364 104.381C91.5564 104.115 92.4798 103.384 93.2845 102.771C94.7751 101.619 95.1499 101.272 94.4 101.711C94.1623 101.839 93.9337 101.93 93.8881 101.894C93.8331 101.866 93.5131 102.122 93.1749 102.46C92.7176 102.918 92.4342 103.119 92.0958 103.228C91.7026 103.357 91.4649 103.384 91.602 103.284C91.666 103.228 93.9154 101.372 94.0892 101.217C94.2265 101.107 94.2721 101.098 94.3269 101.199C94.382 101.281 94.4276 101.29 94.4643 101.217C94.5007 101.162 94.4824 101.116 94.4184 101.116C94.3361 101.116 94.3361 101.089 94.4184 100.988C94.4734 100.915 94.519 100.824 94.5099 100.787C94.4734 100.577 94.5466 100.467 94.8391 100.247C95.0037 100.11 95.2231 99.9916 95.3146 99.9825C95.406 99.9641 95.7992 99.5709 96.2015 99.0955C97.6007 97.413 98.3779 96.5351 98.4235 96.5716C98.4877 96.6355 98.2224 97.1021 97.8565 97.5957C97.5276 98.0255 97.564 98.053 97.9939 97.6963L98.2224 97.5044L98.0395 97.733C97.948 97.8609 97.5092 98.3272 97.0794 98.7846C96.0645 99.8362 95.4335 100.568 95.4335 100.668C95.4335 101.29 98.9081 97.3946 100.664 94.8068C100.984 94.3313 101.478 93.7096 101.752 93.4351C102.036 93.161 102.63 92.3744 103.087 91.6979C104.011 90.317 104.678 89.5307 104.98 89.4484C105.41 89.3477 107.54 85.4797 108.235 83.5595C108.464 82.9194 108.647 82.581 108.93 82.2702C109.314 81.8495 110.064 80.4962 110.064 80.2217C110.064 80.1122 110.009 80.0847 109.881 80.1305C109.762 80.167 109.68 80.1395 109.653 80.0571C109.57 79.8653 110.037 78.512 110.366 77.9542C110.723 77.3689 112.295 73.4734 112.441 72.8241C112.533 72.4037 112.496 72.1749 112.359 72.2663C112.314 72.2847 112.231 72.5591 112.167 72.8608C112.103 73.1625 111.994 73.4826 111.92 73.5649C111.801 73.7111 111.801 73.6839 111.847 73.2907C111.884 73.0529 112.048 72.3945 112.222 71.8276C112.67 70.4009 112.624 70.5107 112.707 70.657C112.762 70.7393 112.816 70.6297 112.89 70.3097C113.045 69.5873 113.429 66.7981 113.539 65.637C113.649 64.3841 113.649 61.6408 113.539 61.0649C113.466 60.7082 113.466 60.7357 113.493 61.2935C113.521 61.6408 113.502 62.0798 113.457 62.2536L113.383 62.5737L113.31 62.089C113.201 61.3116 113.127 61.6408 113.155 62.8022C113.182 63.5063 113.155 63.8994 113.091 63.9361C113.027 63.9817 112.99 63.8813 112.99 63.6436C112.99 63.04 112.881 62.1621 112.807 62.2078C112.771 62.2353 112.688 62.4455 112.624 62.6832L112.505 63.1223L112.432 62.8022C112.396 62.6284 112.277 61.6408 112.167 60.6076C112.058 59.5743 111.929 58.6509 111.884 58.5502C111.829 58.4312 111.82 59.2451 111.865 60.7905C111.966 64.567 111.948 65.8564 111.774 66.6794C111.628 67.3651 111.417 67.7035 111.225 67.5847C111.18 67.5572 111.171 67.6579 111.198 67.8041C111.234 67.9596 111.216 68.4259 111.161 68.8466C111.107 69.2673 111.024 69.9254 110.988 70.3005C110.887 71.1967 110.521 72.5316 110.411 72.4218C110.366 72.3762 110.32 72.1017 110.311 71.8184C110.302 71.5348 110.274 71.3613 110.238 71.416C110.201 71.48 109.982 72.3122 109.753 73.2723C108.793 77.1768 107.933 79.6823 106.635 82.3249C105.748 84.1356 104.761 85.8181 104.596 85.7814C104.55 85.7723 104.395 86.0192 104.258 86.33C103.974 86.9793 103.142 88.2414 102.392 89.1831C101.487 90.3262 100.426 91.5149 100.316 91.5149C100.161 91.5149 99.338 92.4842 98.4054 93.7552C96.9514 95.7394 96.6406 96.1236 95.973 96.8001C95.5339 97.2575 95.2962 97.4402 95.2506 97.3579C95.1408 97.1933 93.8058 98.1718 92.7359 99.1959C90.9894 100.879 87.8438 103.21 84.8445 105.039C84.1129 105.496 83.8844 105.597 83.7837 105.515C83.6283 105.387 83.3082 105.505 81.3788 106.42C80.3364 106.914 79.8426 107.096 79.4038 107.152C78.7913 107.225 77.6298 107.709 77.2367 108.057C77.1085 108.166 77.0721 108.24 77.1452 108.212C78.6814 107.7 78.8185 107.828 77.3738 108.413C76.7153 108.679 75.9749 109.035 75.7279 109.2C75.3437 109.456 75.1426 109.52 74.5482 109.575C73.8989 109.63 73.7985 109.666 73.5333 109.94C73.1765 110.288 72.5273 110.535 71.9603 110.535C71.6403 110.535 71.5124 110.58 71.357 110.773C71.2199 110.928 70.973 111.047 70.6071 111.129C70.3145 111.202 70.0493 111.248 70.0401 111.23C70.022 111.211 70.2506 111.019 70.5614 110.8C71.2563 110.288 71.0825 110.242 69.9305 110.626C68.9429 110.946 68.9337 110.955 69.135 110.727C69.2173 110.635 69.6013 110.425 69.9762 110.26C70.351 110.096 70.6438 109.94 70.6162 109.922C70.4883 109.794 68.8514 110.169 67.3244 110.672C66.3642 110.992 65.2487 111.312 64.8464 111.394C64.1696 111.531 62.6792 111.724 62.3133 111.724C62.0483 111.724 62.1306 111.559 62.4231 111.495C62.7615 111.422 62.8438 111.303 62.6333 111.193C62.5238 111.138 61.9933 111.202 61.0974 111.376C59.8169 111.614 59.6251 111.623 58.2168 111.577C57.3573 111.541 56.2965 111.44 55.7479 111.339C55.1534 111.23 54.0654 111.138 52.8676 111.083C51.816 111.047 50.7188 110.964 50.4443 110.901C49.859 110.773 47.9205 109.876 47.6827 109.62C47.4908 109.41 46.4576 109.072 45.0309 108.752C44.0892 108.532 42.9644 108.23 42.5896 108.084C42.5073 108.057 42.626 108.249 42.8454 108.505L43.2389 108.989L44.1258 108.962C44.6744 108.944 45.1683 108.98 45.4333 109.063C46.1284 109.264 45.973 109.383 45.1224 109.31C44.7017 109.282 43.9612 109.227 43.4674 109.191C42.6808 109.145 42.5073 109.099 42.0958 108.852C41.8397 108.697 41.483 108.377 41.3094 108.139C41.0258 107.755 40.9071 107.682 40.0749 107.38C39.5627 107.188 38.0448 106.502 36.7007 105.853C34.5428 104.82 34.1221 104.646 33.2259 104.445C31.8726 104.152 31.0132 103.713 29.6415 102.616C28.3614 101.592 28.224 101.51 28.224 101.711C28.224 101.857 28.1325 101.848 27.7029 101.692C27.6387 101.665 27.5839 101.692 27.5839 101.747C27.5839 101.939 27.136 101.564 26.8524 101.134C26.6878 100.888 26.5782 100.604 26.5782 100.421C26.5782 100.156 26.5415 100.11 26.2398 100.01C25.9837 99.9274 25.4627 99.4611 24.2921 98.2908C22.7194 96.7178 22.701 96.6998 23.3959 97.1842C23.7891 97.4494 24.1366 97.6415 24.1733 97.614C24.2737 97.5134 24.091 97.3763 22.8017 96.5808C21.6586 95.8675 21.2655 95.6846 21.7409 96.0778C21.8597 96.1784 21.9055 96.2607 21.8416 96.2699C21.6038 96.2699 20.5612 95.0904 20.0309 94.2034C19.7384 93.7096 19.5007 93.243 19.5007 93.1882C19.5098 93.1243 19.2079 92.7767 18.8239 92.4111C15.7789 89.494 15.1663 88.8906 15.1023 88.726C15.0657 88.6254 14.9651 88.4608 14.8736 88.3601C14.645 88.104 13.502 85.8913 13.502 85.7083C13.502 85.4797 12.9808 84.5013 12.7248 84.2727C12.4504 84.0166 11.3623 81.6849 10.3473 79.1702C9.57004 77.2499 8.34474 73.7842 8.41789 73.7019C8.44531 73.6839 8.70134 73.8118 8.99397 73.9855C9.28659 74.1685 10.0913 74.6165 10.7862 74.9913C12.0298 75.6681 12.0572 75.6864 12.2859 76.1711C12.4322 76.4636 12.5236 76.8384 12.5327 77.1128C12.551 77.6889 13.0905 78.8137 13.8586 79.8925C14.1696 80.3224 14.4713 80.8529 14.5445 81.1271C14.7182 81.7032 15.2668 82.6542 15.8795 83.4224C16.1264 83.7425 16.3367 84.0258 16.3367 84.0533C16.3367 84.2544 16.099 84.0074 15.6143 83.2942C15.3126 82.8463 15.0017 82.4623 14.9285 82.4348C14.8553 82.4072 14.7273 82.2426 14.6359 82.078C14.3524 81.5203 13.118 79.4354 13.0814 79.4629C13.0631 79.4813 13.1363 79.7554 13.2277 80.0663C13.502 80.9352 13.6026 81.7032 13.4837 81.9593C13.4014 82.1423 13.438 82.2426 13.8129 82.7273C14.2427 83.2851 14.6085 83.4955 14.8096 83.2942C15.1388 82.965 15.7058 83.5687 16.5379 85.1322C17.0865 86.1565 17.1322 86.2205 17.5254 86.3667C18.1199 86.5861 18.4855 86.9428 18.1199 86.9428C18.0467 86.9428 17.9828 86.9793 17.9828 87.016C17.9828 87.1347 18.4674 87.7748 18.7599 88.0401C19.1075 88.3601 19.903 89.4576 19.903 89.613C19.903 89.6861 19.967 89.8232 20.0401 89.9239C20.2139 90.1524 20.2139 90.2439 20.0401 90.1799C19.9578 90.1433 19.903 90.18 19.903 90.2712C19.903 90.445 20.8448 91.387 21.0917 91.4693C21.3019 91.5332 21.6678 91.3595 21.5947 91.2315C21.4848 91.0669 21.6861 91.1582 21.9328 91.3959C22.0701 91.5332 22.1889 91.5972 22.1889 91.5516C22.1889 91.4966 22.0426 91.3228 21.8688 91.1492C21.6951 90.9755 21.5488 90.7925 21.5488 90.7377C21.5488 90.5731 20.5247 89.174 19.6653 88.1771C18.4307 86.7416 16.5196 83.9618 16.4739 83.532C16.4556 83.4224 16.2544 83.0017 16.0075 82.5994C15.4863 81.7216 14.6085 79.8925 13.6392 77.6889C13.0448 76.3173 12.8985 76.0612 12.6791 75.9697C12.4962 75.8966 12.359 75.7137 12.1761 75.2657C12.0298 74.9457 11.7829 74.5342 11.6183 74.3512C11.3349 74.0587 11.2983 74.0403 10.9051 74.0954L10.4845 74.1593L10.2193 73.5557C9.83522 72.7146 9.73464 72.3122 9.8901 72.3122C10.0455 72.3122 9.81695 71.7269 9.45117 71.1875C9.32315 71.0045 9.19514 70.6937 9.15857 70.5015C9.09456 70.1359 8.84766 69.6145 8.83851 69.8431C8.83851 69.9165 8.8751 70.1175 8.92081 70.2822C8.96652 70.4376 8.97567 70.5747 8.92996 70.5747C8.89339 70.5747 8.81109 70.3828 8.75623 70.1359C8.69222 69.8982 8.4819 69.4499 8.28073 69.1482C8.07956 68.8374 7.87839 68.4442 7.83265 68.2796C7.66807 67.731 7.5492 66.524 7.64978 66.4233C7.78694 66.2862 8.0064 66.5421 8.11613 66.9719C8.26244 67.5572 8.4179 67.4841 8.33559 66.8713C8.26244 66.2312 8.40875 66.2131 8.54591 66.844C8.60077 67.109 8.71964 67.676 8.80194 68.0966C8.97567 68.9105 9.07627 69.0751 9.94496 69.7519C10.2833 70.0169 10.3199 70.0352 10.1918 69.8431C9.77121 69.2489 9.57004 68.8465 9.51518 68.4898C9.48776 68.2796 9.48776 68.1058 9.53347 68.1058C9.65234 68.1058 9.53347 65.7374 9.39631 65.3901C9.28659 65.1065 9.27744 65.0973 9.05797 65.2438C8.91166 65.335 8.82024 65.5088 8.78365 65.7465C8.67393 66.3777 8.53676 65.9754 8.52762 65.0242C8.52762 64.4391 8.56421 64.0549 8.64648 63.9086C8.74708 63.7167 8.74708 63.68 8.61907 63.6069C8.45446 63.5154 8.4179 62.8754 8.55506 62.5097C8.60992 62.3632 8.60077 62.2169 8.51847 62.0798C8.37216 61.8054 8.32644 61.8877 8.19843 62.656C8.10698 63.1314 8.10698 63.4331 8.19843 64.0001C8.30815 64.686 8.299 64.7408 8.14357 64.8596C7.89668 65.0425 7.73208 64.8504 7.60406 64.2014C7.47605 63.6069 7.50346 63.4698 7.72293 63.6436C7.8418 63.744 7.85095 63.7257 7.80523 63.4879C7.66807 62.8389 7.63148 60.4249 7.73208 59.3733C7.79609 58.7696 7.87839 58.2394 7.91495 58.2027C7.95155 58.1662 8.01555 58.5686 8.04297 59.108C8.07041 59.6474 8.14357 60.1321 8.19843 60.1869C8.3173 60.3059 8.3173 59.3733 8.18928 58.6417C8.14357 58.3397 8.07956 57.9466 8.05212 57.7728L8.0064 57.4528L8.16186 57.718C8.28988 57.9558 8.32644 57.9649 8.3996 57.8278C8.44531 57.7455 8.4819 57.5442 8.47276 57.3796C8.46361 57.215 8.45446 56.6392 8.44531 56.0903C8.44531 55.3498 8.4179 55.1485 8.35389 55.3131C8.26244 55.5233 8.26244 55.5144 8.18928 55.1669C8.08871 54.6455 8.08871 53.1916 8.19843 52.0944C8.28988 51.1799 8.60077 49.2324 8.71964 48.8573L8.7745 48.6746L8.84765 48.8573C8.89339 48.9579 8.90251 49.5157 8.86595 50.0918C8.82938 50.9788 8.83851 51.1251 8.93911 51.0244C9.03968 50.9332 9.06712 50.549 9.07627 49.4242C9.08542 47.8332 9.27744 46.7633 9.52432 46.8639C9.60663 46.8914 9.75294 46.7085 9.92667 46.3428C10.1918 45.8215 10.2101 45.6936 10.2193 44.7974C10.2284 43.4989 10.3016 43.0874 10.7588 41.917C11.024 41.2219 11.1428 40.7556 11.1611 40.3624C11.1794 40.0332 11.28 39.5853 11.4172 39.2561C11.7646 38.4147 13.0174 36.1652 13.0631 36.3023C13.0905 36.3665 13.2003 36.2475 13.3009 36.0373C13.4563 35.7445 14.3433 33.6689 14.7548 32.6448C14.7822 32.5808 14.8553 32.5441 14.9194 32.5717C15.0017 32.5989 15.0748 32.471 15.148 32.1877C15.2028 31.9588 15.3949 31.4561 15.5686 31.081C15.9344 30.2947 15.9161 30.1301 15.5503 30.761C15.404 31.0079 14.9651 31.6388 14.5628 32.1693C14.0964 32.791 13.6301 33.5501 13.2643 34.3181C12.9442 34.9674 12.6791 35.4612 12.6791 35.4153C12.6791 35.1959 12.9899 34.0348 13.3831 32.7819C13.7489 31.6299 13.8678 31.3646 14.2061 30.9715C14.517 30.6055 14.5993 30.4409 14.5993 30.1668C14.5993 29.6271 14.8553 28.8958 15.084 28.7768C15.1937 28.7128 15.34 28.603 15.404 28.5207C15.9069 27.8898 16.3276 27.1399 16.6933 26.2348C17.114 25.174 17.8913 23.9395 18.1382 23.9395C18.3392 23.9395 18.0375 24.5796 16.9402 26.4542C16.4464 27.3137 16.2818 27.6521 16.3824 27.6704C16.483 27.6977 16.4099 27.8898 16.0898 28.4751C15.8521 28.923 15.7058 29.2889 15.7515 29.3346C15.8886 29.4625 16.1172 29.2247 16.2453 28.8316C16.4099 28.3288 16.6933 27.9354 16.8579 27.9996C16.9494 28.036 17.0591 27.899 17.2237 27.5241C17.4523 27.0395 18.3028 25.8597 18.5405 25.7135C18.6045 25.677 18.6868 25.7226 18.7324 25.8049C18.8606 26.0243 18.9518 25.9879 19.4364 25.5397C19.6744 25.3111 19.903 25.1282 19.9303 25.1282C19.967 25.1282 19.8847 25.2747 19.7657 25.4574C19.6377 25.6403 19.5371 25.8597 19.5371 25.942C19.5279 26.0243 19.2446 26.4358 18.897 26.8657C18.2478 27.6429 18.1199 27.9081 18.4124 27.8531C18.7508 27.7891 20.991 24.2139 21.3659 23.1623C21.4482 22.9154 21.4209 22.9337 21.0825 23.3177C20.6985 23.7657 20.5431 23.8572 20.5431 23.6286C20.5431 23.5555 20.4333 23.4824 20.3053 23.464L20.0676 23.4365L20.4149 23.0892C20.5979 22.9062 20.8081 22.7508 20.8815 22.7508C20.9454 22.7508 21.0002 22.6868 21.0002 22.6045C21.0002 22.5314 21.1281 22.2845 21.2746 22.0648C21.4301 21.8455 21.5488 21.6352 21.5488 21.5894C21.5488 21.5529 21.7865 21.4158 22.0701 21.2969C22.3535 21.1689 23.1857 20.6843 23.9172 20.2088C24.6488 19.7331 25.4716 19.2395 25.7368 19.1022C26.2123 18.8736 26.2307 18.8736 26.3497 19.0382C26.5051 19.2484 26.4136 19.3127 28.91 17.3466C30.9309 15.7646 32.4396 14.6491 33.3997 14.0455C34.2867 13.4786 34.3323 13.4603 34.1037 13.7164C33.985 13.8352 33.8935 13.9632 33.8935 13.9907C33.8935 14.1095 35.5121 13.4146 35.9692 13.0945C36.2344 12.9117 36.6001 12.5733 36.783 12.3447C37.2949 11.6955 37.7523 11.2291 37.8346 11.2748C37.8711 11.3023 38.4288 11.156 39.0689 10.9548C39.7182 10.7536 40.3491 10.589 40.4681 10.589C40.596 10.589 41.2819 10.2416 42.0043 9.81178C43.3576 8.9888 43.9154 8.73277 45.0218 8.39443L45.6802 8.19326L46.11 8.44929C46.4665 8.65961 46.6403 8.70535 47.1433 8.6962C47.6463 8.6962 47.8473 8.64134 48.387 8.36701C48.9081 8.10183 49.3288 7.98294 50.6273 7.7452C51.5051 7.5806 52.584 7.44343 53.023 7.42516C53.9648 7.40687 54.3946 7.31542 54.3488 7.17825C54.3307 7.11425 54.2025 7.05938 54.0746 7.04109C53.9375 7.02282 53.8277 6.97708 53.8277 6.93137C53.8277 6.85821 54.8334 6.70278 55.1534 6.73934C55.2541 6.74849 55.9492 6.62962 56.708 6.47416C57.4579 6.3187 58.546 6.13583 59.1129 6.06267C60.3475 5.89809 62.4779 5.8798 62.5694 6.02611C62.5969 6.08097 62.8071 6.20898 63.0357 6.30956C63.2553 6.40101 63.4108 6.51988 63.3832 6.57474C63.3009 6.70278 62.533 6.67534 62.4506 6.53817C62.231 6.16327 60.8321 6.00781 59.5976 6.20898C59.049 6.30044 58.9758 6.337 59.0214 6.49246C59.049 6.60218 58.9667 6.76679 58.802 6.94966L58.5368 7.22399L58.9483 7.15084C59.1769 7.10512 60.3291 7.08683 61.5086 7.11424C63.4291 7.15084 66.154 7.15084 67.5438 7.11424C68.6593 7.08683 73.5697 8.22985 75.3437 8.93394C75.7188 9.0894 76.1028 9.19912 76.1942 9.19912C76.4228 9.18082 78.1693 10.1227 78.1053 10.2233C78.0778 10.269 78.1876 10.3787 78.3522 10.461C78.7913 10.6805 79.4494 11.1468 79.4038 11.1925C79.3307 11.2748 78.1601 10.964 77.7761 10.7628C77.5659 10.6622 77.3738 10.5982 77.3462 10.6256C77.2823 10.6988 77.3006 10.7079 77.8309 10.9822C78.3339 11.2474 78.206 11.3023 77.6023 11.092C77.3829 11.0188 77.1908 10.964 77.1727 10.9914C77.1544 11.0097 77.6846 11.22 78.3522 11.4577C79.7603 11.9607 79.9616 12.0521 80.3639 12.4087C80.565 12.5733 80.8942 12.7196 81.3516 12.8202C82.7963 13.1677 84.3142 13.9175 85.1462 14.6948C85.3475 14.8868 85.6675 15.1337 85.8596 15.2434C86.0423 15.3623 86.1978 15.4995 86.2069 15.5543C86.2069 15.6183 86.6093 15.9201 87.0939 16.2401C87.7707 16.679 87.8986 16.7431 87.6153 16.487C87.3044 16.2035 87.2769 16.167 87.4782 16.2218C87.8622 16.3224 88.4016 16.6333 88.6485 16.8802C88.8496 17.0722 89.0052 17.118 89.5903 17.1728C90.1116 17.2186 90.4041 17.3009 90.715 17.4837C91.2455 17.7946 92.928 19.2212 93.0651 19.4773C93.1566 19.6419 93.1382 19.6508 92.9464 19.596C92.8365 19.5596 92.2971 19.3218 91.7483 19.0657C91.2088 18.8188 90.7425 18.6268 90.715 18.6633C90.6878 18.6908 90.8248 18.8005 91.0259 18.9011C91.6659 19.2304 93.6045 20.9129 93.6045 21.1506C93.6045 21.1962 93.7875 21.3608 94.0161 21.4982C94.2446 21.6444 94.583 21.9461 94.7843 22.1655C94.9762 22.3849 95.2047 22.5678 95.2781 22.5678C95.3604 22.5678 95.7077 22.6777 96.0645 22.8056C96.6495 23.0252 96.7777 23.1256 97.5 23.903C97.9299 24.3785 98.2589 24.7625 98.2224 24.7625C98.1857 24.7625 98.3687 24.9911 98.6248 25.2747C99.2465 25.9512 99.2192 26.1158 98.5881 25.4941C98.3139 25.2196 98.0853 25.0369 98.0853 25.0917C98.0853 25.2836 98.5058 25.8141 98.8077 25.9971C98.9723 26.0975 99.3747 26.4175 99.7128 26.7011C100.371 27.2772 100.508 27.3412 100.417 27.0211C100.362 26.829 100.362 26.829 100.545 27.0484C100.646 27.1766 100.902 27.5881 101.103 27.9721C101.304 28.3561 101.523 28.722 101.606 28.7859C101.825 28.9689 101.77 29.0693 101.514 28.9506C101.386 28.8958 101.267 28.8683 101.24 28.8958C101.213 28.923 101.395 29.2889 101.661 29.7094C102.447 30.9895 102.392 30.9256 102.484 30.7885C102.52 30.7154 102.538 30.5599 102.502 30.4318C102.447 30.1849 102.493 30.2124 102.84 30.6606C103.032 30.9164 103.041 30.9256 102.977 30.7062C102.886 30.377 103.892 31.9041 104.312 32.7363C104.504 33.1294 104.669 33.5134 104.669 33.5866C104.669 33.6689 104.788 33.9066 104.934 34.1171C105.071 34.3273 105.556 35.1136 105.995 35.8727C106.434 36.6224 106.946 37.4729 107.129 37.7471C107.412 38.1861 107.458 38.2228 107.485 38.0399C107.504 37.9209 107.458 37.7563 107.385 37.674C107.312 37.5917 107.138 37.2991 107.001 37.0247C106.818 36.6499 106.79 36.5492 106.9 36.5859C107.019 36.6315 107.046 36.5859 107.046 36.3574C107.046 36.0829 107.056 36.0738 107.22 36.2292C107.495 36.4853 108.016 37.61 108.409 38.8079C108.756 39.8961 109.214 40.9202 109.296 40.8287C109.323 40.8015 109.15 40.1522 108.912 39.384C108.345 37.5093 107.75 36.0098 107.632 36.1288C107.604 36.1561 107.65 36.3115 107.732 36.4669C107.815 36.6315 107.842 36.7414 107.796 36.7047C107.65 36.6134 106.315 34.8395 106.315 34.7388C106.315 34.684 106.114 34.2266 105.858 33.7236C105.611 33.2209 105.401 32.791 105.401 32.7635C105.401 32.5717 105.648 32.9465 106.041 33.7236C106.288 34.2175 106.535 34.6473 106.589 34.684C106.726 34.7663 106.571 34.3912 105.986 33.2209C105.519 32.2972 105.19 31.7578 105.364 32.2057C105.529 32.6264 105.163 32.151 103.992 30.3862C103.307 29.3529 102.493 28.2007 102.2 27.8258C101.898 27.4508 101.651 27.0943 101.651 27.0395C101.651 26.9845 101.505 26.7011 101.331 26.4083C101.158 26.1158 101.011 25.8325 101.011 25.7593C101.011 25.5947 101.505 26.0883 101.706 26.4634C101.798 26.6371 101.917 26.7742 101.953 26.7742C102.081 26.7742 101.962 26.5548 101.423 25.7682C100.893 25.0278 100.051 24.2139 99.7951 24.2139C99.658 24.2139 97.9024 22.4308 97.9024 22.2845C97.9024 22.2386 97.7653 22.1472 97.6099 22.074C97.2715 21.9186 95.3604 20.1446 95.4425 20.0623C95.5339 19.9619 97.0977 21.1962 97.8293 21.9461C98.2133 22.3393 98.5973 22.6593 98.6704 22.6593C98.9081 22.6593 100.353 23.9395 101.789 25.4209C103.352 27.0211 103.718 27.4783 104.441 28.6945C104.733 29.1699 105.145 29.8192 105.364 30.1392C105.583 30.4593 105.766 30.7429 105.766 30.7793C105.766 30.8891 107.668 33.7236 107.742 33.7236C107.769 33.7236 107.742 33.6416 107.687 33.5318C107.623 33.4311 107.595 33.3216 107.623 33.3032C107.668 33.2482 108.528 34.565 108.747 35.0405C108.875 35.3058 108.949 35.3514 109.113 35.3149C109.287 35.2691 109.36 35.333 109.598 35.7537C109.753 36.019 109.991 36.5676 110.119 36.9699C110.375 37.7198 110.686 38.433 110.75 38.3691C110.814 38.3051 110.549 36.9699 110.439 36.7505C110.375 36.6315 110.165 36.2934 109.973 36.0006C109.497 35.2691 109.076 34.0529 108.976 33.1478C108.93 32.7363 108.903 32.3795 108.921 32.3612C108.939 32.3431 109.086 32.4254 109.241 32.535C109.397 32.6448 109.543 32.7179 109.57 32.6904C109.662 32.5989 109.323 32.0595 108.848 31.5476C108.08 30.7062 107.687 30.194 107.687 30.0386C107.687 29.9563 107.568 29.7552 107.422 29.5906C107.129 29.2523 106.37 27.6887 106.498 27.6887C106.543 27.6887 106.69 27.8442 106.827 28.0269C106.973 28.219 107.12 28.4111 107.156 28.4659C107.33 28.667 106.79 27.5606 106.086 26.2712C105.053 24.3785 104.669 23.6103 104.669 23.4C104.669 23.144 102.904 20.9585 102.639 20.8853C102.52 20.8578 102.337 20.8306 102.228 20.8306C102.118 20.8306 101.844 20.6843 101.615 20.5105C101.377 20.3367 101.167 20.1905 101.139 20.1905C101.075 20.1905 101.926 21.2969 102.109 21.4523C102.465 21.754 102.584 21.7359 102.291 21.4248C102.063 21.1779 102.026 21.0958 102.154 21.1506C102.255 21.187 102.456 21.2421 102.602 21.2693C103.041 21.3425 103.947 22.6318 104.724 24.287C104.943 24.7625 105.117 25.174 105.099 25.1832C105.081 25.2013 104.843 24.9911 104.578 24.7166C104.303 24.4425 104.029 24.2139 103.974 24.2139C103.91 24.2139 103.764 24.0766 103.654 23.912C103.535 23.7565 103.142 23.2994 102.776 22.9154C102.41 22.5222 102.109 22.1655 102.109 22.1107C102.109 22.0559 101.77 21.6625 101.359 21.2329C100.938 20.803 100.582 20.4099 100.563 20.3459C100.517 20.1905 99.8958 19.5504 99.7951 19.5504C99.7495 19.5504 99.7311 19.6143 99.7678 19.6875C99.8318 19.8704 99.7678 19.8613 99.3928 19.6327C99.0455 19.413 98.451 18.6816 98.451 18.4622C98.451 18.3799 98.5333 18.261 98.6431 18.197C98.8077 18.0872 98.8625 18.0964 99.0363 18.2519C99.4203 18.6085 100.006 18.9284 100.143 18.8736C100.344 18.8005 100.545 18.9195 101.249 19.5137C101.688 19.8888 101.853 19.98 101.889 19.8796C101.962 19.6966 101.734 19.2943 101.112 18.5262C100.39 17.6392 99.9233 17.1911 99.9416 17.4106C99.9505 17.5112 99.8774 17.5935 99.7311 17.63C99.5482 17.6758 99.5026 17.7398 99.5118 17.9684L99.5301 18.2519L98.9632 17.8587C98.6612 17.6483 97.9755 17.2551 97.4453 16.9808C96.6406 16.5693 96.3478 16.3499 95.6162 15.6275C94.9945 15.0148 94.5922 14.7039 94.199 14.521C93.6868 14.2833 92.4434 13.2774 92.544 13.1768C92.6171 13.1037 93.5041 13.5792 94.4092 14.1736C94.8758 14.4845 95.2781 14.7131 95.3054 14.6856C95.3237 14.6582 95.1135 14.4204 94.8207 14.1553C94.4459 13.8169 93.9338 13.4969 93.0103 13.0488C91.602 12.363 90.7973 11.8601 90.4956 11.476C90.1848 11.0828 90.45 11.1651 91.4374 11.7778C92.3427 12.3356 93.0011 12.6922 93.1107 12.6922C93.1474 12.6922 92.9005 12.4362 92.5621 12.1344C91.8581 11.4852 91.8216 11.3206 92.4982 11.8601C92.7542 12.0612 93.2845 12.4179 93.6777 12.6465C94.4184 13.0945 95.1775 13.6981 94.9853 13.6981C94.8666 13.6981 95.1224 14.1553 95.3146 14.2741C95.6071 14.457 96.6678 15.3531 97.6646 16.2401C98.2589 16.7796 98.7802 17.2277 98.8258 17.246C99.2649 17.4106 97.4725 15.4812 96.3295 14.5576C95.9455 14.2467 95.287 13.6889 94.8666 13.3323C93.815 12.4179 93.2114 11.9607 92.4617 11.5217C91.7118 11.0828 91.1724 10.6439 91.4557 10.7079C91.5564 10.7353 91.7118 10.7811 91.8033 10.8176C92.1142 10.9457 91.9496 10.717 91.5105 10.4244C91.1357 10.1684 91.035 10.1318 90.8888 10.2233C90.7425 10.3147 90.6419 10.2964 90.3035 10.1318C89.5719 9.75692 88.4472 8.9888 87.6609 8.30301C86.6368 7.41602 86.079 7.07768 85.1553 6.74849C84.7349 6.59303 83.3814 6.06267 82.1562 5.55061C79.6232 4.49904 77.3098 3.59375 76.935 3.5023C76.7885 3.46573 76.6881 3.37428 76.6881 3.28286C76.6881 2.98109 76.4868 2.90793 75.7004 2.90793C75.2797 2.90793 74.5574 2.86222 74.0819 2.80736C72.9388 2.67019 72.7469 2.7342 73.5149 2.99023C73.8625 3.1091 74.1186 3.21885 74.1002 3.24627C74.0179 3.31942 71.8141 2.98109 71.2563 2.80736C70.8175 2.67934 70.6985 2.67019 70.5979 2.76164C70.47 2.89878 70.1408 2.88051 68.4583 2.67019C67.8821 2.59704 67.2788 2.54218 67.1142 2.54218C66.9495 2.54218 66.8122 2.49646 66.8122 2.45073C66.8122 2.39587 66.6751 2.29529 66.5197 2.22214C66.2363 2.10324 66.2819 2.09412 67.2696 2.09412C67.8457 2.09412 68.8239 2.14898 69.4367 2.20384C70.0585 2.26785 70.5248 2.28614 70.4883 2.2587C70.2962 2.06668 68.6777 1.8838 66.538 1.8015C65.2579 1.75578 64.0142 1.68263 63.7764 1.63689C63.5295 1.60033 63.3376 1.58203 63.3376 1.60033C63.3376 1.61862 63.5203 1.71919 63.7492 1.81979C64.0233 1.93866 64.4624 2.02096 65.011 2.05753C65.5871 2.09412 65.9527 2.16725 66.1721 2.28614L66.4922 2.45987L66.1721 2.40501C65.4406 2.26785 64.5263 2.18555 63.7764 2.1764C63.3376 2.1764 62.798 2.12154 62.5877 2.04838C62.3683 1.97523 61.7555 1.89295 61.2161 1.85636C60.2285 1.79235 60.073 1.72834 60.3383 1.46316C60.5852 1.21628 60.2652 1.15227 59.0673 1.18883C58.0797 1.21628 57.8328 1.25284 57.4671 1.43572C57.1287 1.60033 56.9458 1.62777 56.6624 1.58203C56.2873 1.51802 56.2509 1.48146 56.3696 1.29856C56.4519 1.16139 57.979 0.832203 58.8477 0.749925C59.3415 0.704187 59.5336 0.722482 59.6982 0.823081C59.9543 0.987662 61.3259 1.10653 61.7831 1.00596C62.0024 0.960219 62.1398 0.859646 62.2221 0.685917C62.3041 0.52131 62.4415 0.411589 62.6153 0.374999C62.7615 0.347581 62.8711 0.301843 62.8438 0.283573C62.8255 0.265278 62.4231 0.182975 61.9568 0.118967C60.8961 -0.0456146 59.0033 -0.0364924 57.8603 0.128114ZM58.5827 3.81322C58.2259 3.93209 58.0797 4.01439 58.0888 4.12411C58.098 4.20641 58.098 4.27957 58.0888 4.27957C58.0888 4.27957 57.7321 4.34358 57.3025 4.41673C56.4703 4.56304 53.9192 4.59961 54.2392 4.46244C54.3398 4.41673 54.5592 4.38014 54.7238 4.38014C55.117 4.37099 55.0164 4.18812 54.614 4.18812C54.2575 4.18812 52.1635 4.58131 51.4592 4.78249C51.1759 4.86479 50.865 5.0111 50.7644 5.10253C50.6637 5.18483 50.3987 5.28543 50.1699 5.31285C49.6944 5.37685 48.6156 5.28543 48.6156 5.19398C48.6156 5.15741 48.7435 5.07511 48.9081 5.00195C49.8134 4.62705 47.7467 5.07511 45.9638 5.63291C45.4883 5.78834 44.7932 5.99866 44.4367 6.10839C44.0708 6.20898 43.7691 6.34615 43.7691 6.39186C43.7691 6.44672 43.8239 6.47416 43.8879 6.44672C43.9612 6.4193 44.4823 6.37357 45.0584 6.34615C46.0733 6.28214 46.0917 6.29129 45.8815 6.44672C45.7625 6.53817 45.5156 6.74849 45.3329 6.92222C45.1499 7.08683 44.8571 7.29715 44.6836 7.38857C44.3636 7.55318 43.7052 7.71776 43.5589 7.6812C43.5222 7.67205 43.1655 7.7452 42.7631 7.84578C42.37 7.94638 41.9768 8.02868 41.8853 8.02868C41.7391 8.02868 41.7391 8.01953 41.8853 7.85492C42.0408 7.6812 42.0318 7.6812 41.7299 7.70861C41.419 7.73606 39.8644 8.33957 39.7001 8.49503C39.5536 8.63219 39.7913 8.58646 40.4772 8.33957C40.8429 8.21156 41.1538 8.1201 41.1721 8.14755C41.2544 8.2207 40.4406 8.64134 39.0597 9.24483C38.3101 9.57405 37.2218 10.0495 36.6549 10.3056C35.6947 10.7353 34.7346 11.0737 33.8385 11.3114C33.2443 11.4669 32.8511 11.7778 32.8144 12.1161C32.778 12.5093 32.4121 12.8111 31.2509 13.4146C30.5466 13.7895 30.2541 13.9998 30.0986 14.2376C29.9888 14.4204 29.8061 14.6491 29.6963 14.7405C29.5957 14.8411 29.5042 14.9874 29.5042 15.0697C29.5042 15.1611 29.2756 15.3714 28.9831 15.5726C28.3886 15.9567 28.0411 16.2493 28.0411 16.3682C28.0411 16.5327 28.2515 16.4139 29.1841 15.7098C30.0439 15.0605 30.5102 14.8319 30.5102 15.0423C30.5102 15.088 30.3547 15.2434 30.1718 15.408C29.9797 15.5726 29.8793 15.7006 29.9432 15.7098C30.0072 15.7098 30.3912 15.3897 30.8119 14.9874C31.589 14.2467 32.0556 13.9358 32.3206 13.9907C32.4304 14.0181 32.3481 14.1004 32.0737 14.2376C31.8451 14.3564 31.4336 14.6856 31.1411 14.9691C30.5285 15.5726 29.8793 16.1304 29.0014 16.8071C28.6539 17.0814 28.2148 17.4289 28.0322 17.5935C27.6846 17.8952 27.337 18.0507 27.2364 17.9592C27.2091 17.9227 27.4652 17.6026 27.8217 17.246C28.5168 16.5327 28.4526 16.5053 27.6662 17.1911C27.3829 17.4289 27.1268 17.63 27.0901 17.63C26.9986 17.63 27.0262 17.1728 27.1268 16.9808C27.2456 16.7796 26.066 17.4929 25.6454 17.8861C25.4991 18.0141 25.3893 18.069 25.3893 18.0141C25.3893 17.8038 25.1791 17.9044 24.4202 18.453C23.4966 19.1297 23.1857 19.2395 23.7526 18.7091C24.2737 18.2153 25.3893 17.438 26.2123 16.9991C26.5507 16.8162 27.2731 16.3682 27.8217 16.0024C28.6172 15.4629 28.8549 15.2526 29.0654 14.8868C29.2117 14.6308 29.3031 14.4296 29.2848 14.4296C29.2573 14.4296 28.8368 14.7405 28.3522 15.1245C27.7852 15.5635 27.4193 15.7921 27.3279 15.7555C27.2364 15.7189 27.0262 15.8561 26.7428 16.1395C26.5051 16.3773 26.3038 16.5327 26.3038 16.4962C26.3038 16.359 27.1452 15.2251 27.6206 14.7222C27.8675 14.4662 28.023 14.2467 27.9679 14.2467C27.9132 14.2467 27.4833 14.5027 27.017 14.8136C26.4044 15.216 25.6273 15.9109 24.2465 17.2643C23.1949 18.2976 22.1797 19.2484 22.0062 19.3766C21.8324 19.4954 21.1281 20.1446 20.4516 20.8122C19.1806 22.074 18.193 22.9246 17.37 23.4457C16.8122 23.8116 15.8521 24.2503 15.8978 24.1224C15.9161 24.0766 16.1904 23.6653 16.5105 23.2079C17.0134 22.4947 17.1322 22.376 17.306 22.4216C17.5254 22.4764 18.0832 21.8821 19.9394 19.596C21.1648 18.0872 22.1616 16.9991 23.2132 16.0298C24.2465 15.0697 24.5846 14.8868 23.7891 15.7098C23.4874 16.0207 23.3228 16.2401 23.4234 16.1853C23.652 16.0664 24.036 15.6549 24.6944 14.8228C24.978 14.457 25.4076 14.0272 25.6454 13.8718C25.9014 13.6889 26.0113 13.6432 25.9198 13.7621C25.8283 13.8626 25.7552 13.9632 25.7552 13.9815C25.7552 14.0913 26.953 13.4329 27.401 13.0671C28.7637 11.979 30.6748 10.8816 33.482 9.58317C34.4877 9.11682 35.3655 8.65961 35.4389 8.55904C35.6216 8.31213 36.5909 7.6629 36.783 7.6629C36.9109 7.6629 36.9201 7.6812 36.8103 7.80921C36.7007 7.94638 36.7099 7.95552 36.9109 7.88237C37.2585 7.7635 38.0265 7.78177 38.0724 7.91893C38.0996 7.99209 37.7248 8.2207 37.0391 8.5316C36.4538 8.81507 35.9875 9.06196 36.0148 9.0894C36.1063 9.1717 37.4962 8.74192 38.173 8.42188C38.6118 8.2207 38.8679 8.03783 38.9227 7.90066C39.0325 7.61719 41.5472 6.01696 42.3519 5.72434C43.1838 5.42259 44.4915 5.06596 44.5555 5.12997C44.583 5.15741 44.9395 5.03852 45.3418 4.86479C45.8631 4.64532 46.11 4.58131 46.1923 4.64532C46.4301 4.84649 47.3627 4.84649 48.2041 4.65447C48.6612 4.5539 49.6672 4.32528 50.4443 4.14241C51.3769 3.93209 52.1908 3.80407 52.8128 3.77663C53.3339 3.74921 53.791 3.71262 53.8093 3.6852C53.8368 3.65776 55.0347 3.63946 56.4703 3.64861C59.0856 3.65776 59.0857 3.65776 58.5827 3.81322ZM65.0749 4.73677C66.3551 4.79163 68.3303 4.90135 69.464 4.97451C71.3934 5.11167 71.6403 5.14826 73.5425 5.61462C75.6273 6.11753 76.1484 6.27299 75.8283 6.28214C75.4902 6.30044 75.8559 6.53817 76.5326 6.73934C76.8891 6.84907 77.5659 7.06853 78.0138 7.21484C78.471 7.36115 79.0198 7.50744 79.23 7.52574C79.7055 7.57147 80.2177 7.72691 80.5102 7.90979C80.6748 8.01038 80.7023 8.06524 80.62 8.16584C80.5469 8.25727 80.5925 8.32128 80.8211 8.46759C81.1503 8.66876 82.9974 9.62891 83.1987 9.70206C83.2626 9.72033 83.2991 9.76607 83.2718 9.79349C83.2443 9.82093 82.9701 9.79349 82.6773 9.72033C81.9277 9.5466 81.8454 9.5466 82.092 9.76607L82.3117 9.94895L82.0831 9.90323C81.955 9.87579 81.388 9.75692 80.8119 9.62891C79.6049 9.36373 79.5776 9.36373 79.916 9.5466C80.0531 9.61976 80.5469 9.76607 81.0132 9.8575C81.9916 10.0678 82.8144 10.3787 82.8144 10.5433C82.8144 10.5982 82.714 10.6988 82.5859 10.7536C82.092 10.9822 79.8518 10.2873 80.2633 10.0313C80.4371 9.93065 80.3 9.82093 79.797 9.68377C79.5684 9.61976 79.1569 9.42773 78.8825 9.25398C78.5533 9.05281 78.142 8.90652 77.6754 8.81507C77.2823 8.74192 76.8708 8.63219 76.7612 8.56819C76.4959 8.43102 76.1392 8.11096 76.1392 8.01038C76.1392 7.96467 76.2307 7.93723 76.3497 7.95552C76.5051 7.97379 76.5415 7.94638 76.5235 7.80921C76.4959 7.65375 76.5326 7.6446 76.8435 7.69034L77.1908 7.7452L76.9258 7.59889C76.7795 7.52574 76.2949 7.42516 75.8559 7.38857C75.0056 7.32456 74.8226 7.24226 74.7311 6.8948C74.6855 6.7119 74.4842 6.61133 73.2864 6.21813C72.5184 5.9621 71.5399 5.66948 71.1192 5.55976C70.2231 5.33114 69.1898 5.19398 69.1898 5.3037C69.1898 5.34029 69.2446 5.37685 69.3086 5.37685C69.3728 5.386 69.3544 5.43174 69.2538 5.50487C69.1075 5.61462 69.1259 5.63291 69.4367 5.69692C69.8482 5.77005 70.4244 5.99866 70.3602 6.06267C70.3421 6.09012 69.583 6.00781 68.6868 5.8798C66.8122 5.61462 66.5745 5.60547 67.2696 5.82494L67.7726 5.98037L66.721 6.04438C65.2579 6.13583 64.5447 6.12668 63.5754 6.00781C62.5786 5.88894 61.9568 5.74263 62.0116 5.65118C62.0391 5.60547 62.3592 5.55061 62.734 5.51402C63.2462 5.4683 63.4656 5.47745 63.6669 5.58717C63.8862 5.70604 64.0141 5.70604 64.325 5.62376C64.5355 5.5689 64.7093 5.49575 64.7093 5.45916C64.7093 5.42259 64.2246 5.3037 63.6393 5.19398C61.4722 4.79163 60.7315 4.52645 62.0208 4.59961C62.414 4.62705 63.7948 4.69106 65.0749 4.73677ZM13.4654 30.5691C13.182 31.2 12.8711 32.023 12.7705 32.3795C12.551 33.175 12.231 33.8335 11.7098 34.6106C11.4903 34.9218 11.3257 35.1868 11.3532 35.1868C11.4263 35.1868 11.1062 36.1469 10.6582 37.2443C10.4205 37.8477 10.1553 38.6252 10.073 38.9633C9.88095 39.7771 9.49691 40.591 8.97567 41.2586C8.70134 41.6151 8.50017 42.0083 8.37216 42.429C8.16186 43.1149 8.18928 43.3159 8.42704 42.8953L8.57333 42.6394L8.51847 43.0965C8.43616 43.7458 7.39374 47.824 7.28402 47.9338C7.13771 48.0801 7.17428 47.8057 7.37545 47.2023C7.61321 46.5163 7.56747 46.2605 7.30229 46.7724C7.19257 46.9921 7.0737 47.1656 7.04626 47.1656C6.96396 47.1656 7.10112 46.169 7.22002 45.913C7.33888 45.6385 7.22002 45.5106 7.04626 45.7392C6.92739 45.913 6.91825 45.9038 6.89995 45.6021C6.86339 44.8614 7.11027 44.0019 7.64978 42.9686C7.83265 42.6211 7.86009 42.6394 7.83265 43.1422C7.82353 43.3159 7.8418 43.4349 7.86924 43.4074C7.93325 43.3435 8.47276 41.5511 8.43616 41.5239C8.4179 41.5055 8.33559 41.6426 8.23499 41.8164C8.06127 42.1456 7.96982 42.1912 7.76864 42.0633C7.67722 42.0083 7.78694 41.597 8.18928 40.39C8.73793 38.7347 8.9574 38.2409 9.40546 37.5827C9.66149 37.2168 9.93581 37.0706 9.93581 37.3083C9.94496 37.427 10.5942 35.9458 10.7222 35.5343C10.7771 35.333 10.7771 35.333 10.6033 35.4795C10.5027 35.571 10.3656 35.6441 10.2833 35.6441C10.073 35.6441 9.88095 35.9183 9.7072 36.4397C9.56091 36.8968 9.38716 37.0797 9.38716 36.7961C9.38716 36.5584 9.57004 36.1652 10.137 35.1687C10.6399 34.2817 10.7222 34.1902 10.9051 34.2358C11.1337 34.2998 11.2709 34.0896 11.3257 33.5774C11.3714 33.1934 11.1703 33.2209 10.8868 33.6233C10.7405 33.8243 10.5942 33.9981 10.5668 33.9981C10.4387 33.9981 11.2343 31.9316 11.6092 31.264C12.0207 30.5416 12.1944 30.4137 12.4413 30.6606C12.5785 30.8068 12.6059 30.7977 12.7705 30.5964C13.0357 30.2855 12.9899 30.4868 12.6699 31.0538C12.5145 31.3279 12.4139 31.5657 12.4322 31.584C12.5145 31.6663 12.9259 31.081 13.3191 30.3314C13.7398 29.5083 13.8678 29.307 13.9318 29.3713C13.9592 29.3893 13.7398 29.929 13.4654 30.5691ZM6.50676 47.9886C6.57991 48.0985 6.47934 48.8208 6.36959 49.0038C6.22331 49.2232 6.18672 49.0402 6.24158 48.4641C6.30559 47.9247 6.37874 47.7876 6.50676 47.9886ZM5.18086 51.4635C5.33632 52.698 5.5009 53.8684 5.54664 54.0697C5.64721 54.4901 5.64721 56.5568 5.54664 57.3615C5.5009 57.7455 5.47348 57.3524 5.46434 56.0355C5.44604 53.6214 5.32717 53.3654 4.87912 54.801C4.7511 55.2033 4.54078 56.0263 4.41277 56.63C4.2756 57.2334 4.14759 57.7639 4.12929 57.8187C3.96469 58.1751 4.34876 53.0453 4.58649 51.6464C4.65965 51.2257 4.68709 50.8598 4.64136 50.8234C4.60479 50.7959 4.60479 50.4575 4.64136 50.0735C4.70536 49.4334 4.78767 49.1134 4.86082 49.1957C4.87912 49.214 5.0254 50.2381 5.18086 51.4635ZM5.90324 61.2204C5.95813 61.3666 6.06785 61.7598 6.141 62.1163C6.22331 62.4638 6.40618 63.1131 6.55249 63.5429C6.83594 64.366 7.04626 66.0026 6.85424 65.8839C6.79938 65.8472 6.73537 65.637 6.71707 65.4173C6.68966 65.1796 6.54335 64.8048 6.36047 64.5214C6.09527 64.0916 6.0587 63.9636 6.06785 63.4606C6.077 63.0491 6.04955 62.8937 5.9764 62.921C5.91239 62.9393 5.85753 63.0856 5.83923 63.2413C5.80267 63.6161 5.67465 63.6161 5.6015 63.2502C5.52834 62.8662 5.52834 61.1105 5.61065 61.0374C5.72037 60.9184 5.80267 60.9735 5.90324 61.2204ZM2.2456 67.0542V67.2372L2.16329 67.0542C2.11758 66.9536 2.08102 66.8073 2.08102 66.7342C2.07187 66.6154 2.08101 66.6154 2.16329 66.7342C2.20903 66.8073 2.2456 66.9536 2.2456 67.0542ZM7.32059 72.9156C7.40289 72.9523 7.4669 73.0802 7.4669 73.2265C7.4669 73.6288 7.31144 73.6288 7.21087 73.2265C7.16513 73.0254 7.13771 72.8608 7.14686 72.8608C7.16513 72.8608 7.23829 72.8883 7.32059 72.9156ZM8.72879 76.5367C9.03968 77.2043 9.51518 78.2832 9.79865 78.9416C10.0821 79.5908 10.5759 80.6424 10.9051 81.2642C11.2251 81.8862 11.4903 82.4439 11.4903 82.5171C11.4903 82.8188 11.3074 82.581 10.7588 81.5842C10.4296 80.9992 10.1553 80.5601 10.1461 80.606C10.0364 80.9352 12.0298 84.3642 12.3407 84.3917C12.4047 84.4006 12.5053 84.4098 12.5693 84.419C12.6333 84.419 12.8071 84.6384 12.9534 84.9036C13.182 85.2968 13.2003 85.3791 13.0814 85.4249C12.9991 85.4522 12.8711 85.443 12.7888 85.3974C12.551 85.2695 11.6458 84.2911 11.408 83.8979C11.0788 83.3674 11.0788 83.5595 11.3989 84.1996C11.5543 84.5104 11.6366 84.739 11.5817 84.7026C11.4446 84.6203 11.1337 83.971 10.329 82.1512C9.53347 80.3316 9.27744 79.719 9.34145 79.719C9.36887 79.719 9.46946 79.8836 9.57004 80.0938C9.67978 80.3041 9.7895 80.4506 9.8078 80.423C9.83522 80.3955 9.52432 79.5817 9.12198 78.6035C8.50932 77.122 8.01555 75.6864 8.01555 75.4028C8.01555 75.1286 8.24414 75.4943 8.72879 76.5367ZM20.9454 90.6827C21.0917 90.8292 21.1556 90.9663 21.11 91.0027C21.0094 91.0669 20.4516 90.6371 20.4516 90.5C20.4516 90.3354 20.6985 90.4269 20.9454 90.6827Z" fill="white"/>
<path d="M42.718 6.88568C42.3432 7.05026 42.6905 7.05941 43.1295 6.88568C43.4128 6.77593 43.422 6.75766 43.221 6.75766C43.0928 6.75766 42.8734 6.81252 42.718 6.88568Z" fill="white"/>
<path d="M36.7991 9.17179C36.2961 9.43697 36.1771 9.58326 36.4699 9.58326C36.5886 9.58326 36.8447 9.43697 37.046 9.26322C37.4756 8.89747 37.3933 8.86088 36.7991 9.17179Z" fill="white"/>
<path d="M33.8027 10.5068C33.3272 10.6988 32.8518 10.8634 32.7511 10.8634C32.5865 10.8634 30.2364 12.0155 30.2364 12.0978C30.2364 12.1161 30.3187 12.107 30.4194 12.0795C30.7578 11.9881 30.6023 12.1984 29.9803 12.6739C29.3494 13.1494 29.1576 13.2226 28.993 13.058C28.9287 12.9939 28.7094 13.1037 28.3345 13.3871C28.0237 13.6158 27.7676 13.8261 27.7676 13.8444C27.7676 13.9084 28.1151 13.7072 28.1791 13.6066C28.2797 13.442 28.4168 13.5152 28.362 13.6981C28.2797 13.9449 28.3345 13.9358 28.8375 13.57C29.4684 13.122 29.7976 12.9757 30.0535 13.0214C30.2092 13.058 30.4742 12.9482 30.8948 12.7013C31.2332 12.491 31.5257 12.3264 31.5533 12.3264C31.5805 12.3264 31.8002 12.1893 32.0379 12.0247C32.2848 11.8509 32.9341 11.4395 33.4918 11.1103C35.22 10.077 35.3114 9.88494 33.8027 10.5068Z" fill="white"/>
<path d="M21.0451 19.3398C20.6794 19.5319 20.3594 19.8244 20.3594 19.9799C20.3594 20.1904 20.4873 20.1172 20.9538 19.6417C21.4474 19.1388 21.4474 19.1204 21.0451 19.3398Z" fill="white"/>
<path d="M18.313 22.2206C18.1851 22.385 18.1028 22.5315 18.1303 22.5588C18.1667 22.6046 18.3772 22.3669 18.5418 22.0833C18.6881 21.8272 18.5599 21.9003 18.313 22.2206Z" fill="white"/>
<path d="M65.166 5.74263C65.166 5.78834 65.3398 5.83408 65.5592 5.82493C65.8884 5.81579 65.9067 5.80664 65.7146 5.74263C65.3854 5.63291 65.166 5.63291 65.166 5.74263Z" fill="white"/>
<path d="M79.7515 8.72355C79.9434 8.92472 80.7756 9.2722 80.8671 9.18075C80.9035 9.15333 79.6782 8.48581 79.5869 8.48581C79.5502 8.48581 79.6325 8.59553 79.7515 8.72355Z" fill="white"/>
<path d="M11.7836 33.1019C11.5276 33.5134 11.2716 34.181 11.3447 34.245C11.3721 34.2725 11.5459 33.9797 11.7288 33.5957C12.0671 32.8458 12.1037 32.59 11.7836 33.1019Z" fill="white"/>
<path d="M65.2575 0.585451C65.1293 0.649459 64.7545 0.731763 64.4253 0.768328C64.0869 0.795771 63.7577 0.859779 63.6937 0.905492C63.4287 1.0701 63.7396 1.09752 64.5715 0.987795C65.047 0.923787 65.5867 0.896344 65.7605 0.923787C66.1169 0.978648 66.1078 0.905492 65.7329 0.640312C65.5225 0.494001 65.4585 0.484878 65.2575 0.585451Z" fill="white"/>
<path d="M47.153 1.07905C43.3217 1.72828 40.5692 2.33179 40.5692 2.53296C40.5692 2.56953 40.6607 2.65183 40.7795 2.69754C40.9716 2.789 40.9532 2.80729 40.4778 3.03588C39.856 3.3285 39.7006 3.33765 39.8377 3.09989C40.0754 2.65183 39.2524 2.82559 38.5759 3.36507C38.329 3.56624 38.0912 3.73085 38.0545 3.73085C37.9631 3.73085 36.7285 4.54468 36.7285 4.60869C36.7285 4.66355 37.0121 4.51724 37.4236 4.23376C37.7528 4.01432 38.7038 3.75829 38.8136 3.86801C38.85 3.90458 38.7313 4.05089 38.5575 4.1972C38.3838 4.33436 38.2739 4.46238 38.3106 4.46238C38.4477 4.46238 38.914 4.18805 38.9871 4.06003C39.0238 3.99603 39.4353 3.8223 39.8833 3.68513C40.3407 3.55712 41.1635 3.20049 41.7123 2.90786C43.166 2.14891 44.7022 1.69171 45.5069 1.78314C45.827 1.81973 46.1745 1.74657 47.0615 1.45395C48.2685 1.06075 49.1922 0.896145 49.2926 1.06075C49.3201 1.11561 49.1739 1.17962 48.9178 1.21621C48.1039 1.33508 46.2385 2.0026 46.2385 2.16718C46.2385 2.20377 46.6136 2.13977 47.0799 2.0209C47.5462 1.902 48.4787 1.73742 49.1647 1.65512C49.8412 1.57282 50.4173 1.49054 50.4357 1.47224C50.4632 1.45395 50.3901 1.38079 50.2802 1.29849C50.0242 1.11561 50.0242 1.02419 50.3169 0.759006C50.4632 0.621842 50.5088 0.530391 50.4357 0.539539C50.3625 0.539539 48.8903 0.786424 47.153 1.07905Z" fill="white"/>
<path d="M52.272 0.713327C52.1713 0.777335 52.2264 0.804778 52.4824 0.804778C52.6651 0.804778 52.8206 0.759066 52.8206 0.713327C52.8206 0.594459 52.4549 0.594459 52.272 0.713327Z" fill="white"/>
<path d="M43.4025 2.5421C43.3294 2.58782 43.3113 2.63353 43.3569 2.63353C43.4117 2.63353 43.5124 2.58782 43.5855 2.5421C43.6586 2.49639 43.6861 2.45065 43.6314 2.45065C43.5855 2.45065 43.4759 2.49639 43.4025 2.5421Z" fill="white"/>
<path d="M57.1686 6.7577C57.0682 6.79426 56.8213 6.83085 56.6292 6.83085C56.355 6.83997 56.2908 6.86742 56.3639 6.94057C56.4829 7.05944 57.4886 6.96802 57.4886 6.83997C57.4886 6.71196 57.3607 6.67539 57.1686 6.7577Z" fill="white"/>
<path d="M75.2972 9.55574C75.3611 9.58316 75.4434 9.57404 75.4709 9.54659C75.5074 9.51915 75.4526 9.49173 75.3519 9.50088C75.2515 9.50088 75.224 9.5283 75.2972 9.55574Z" fill="white"/>
<path d="M43.3476 9.87592L43.1738 10.0862L43.3843 9.91248C43.5762 9.7479 43.6312 9.67474 43.5581 9.67474C43.5397 9.67474 43.4483 9.7662 43.3476 9.87592Z" fill="white"/>
<path d="M75.1219 10.3147C75.3505 10.4153 75.5974 10.4885 75.6705 10.4702C75.8443 10.4245 75.4055 10.2325 74.994 10.1685C74.7654 10.1319 74.7835 10.1593 75.1219 10.3147Z" fill="white"/>
<path d="M22.0328 12.7013C21.539 13.131 21.3835 13.3688 21.7859 13.0853C22.0878 12.8658 22.6181 12.3263 22.5266 12.3263C22.4991 12.3263 22.2797 12.5001 22.0328 12.7013Z" fill="white"/>
<path d="M94.793 12.9208C94.793 12.9665 95.5793 13.5152 95.6524 13.5152C95.8079 13.5152 95.6616 13.3506 95.3049 13.1219C94.9209 12.8842 94.793 12.8293 94.793 12.9208Z" fill="white"/>
<path d="M20.771 13.7073C20.2588 14.2285 20.4601 14.1736 21.091 13.6158C21.3379 13.3964 21.4475 13.2409 21.3652 13.2409C21.2832 13.2409 21.0179 13.4512 20.771 13.7073Z" fill="white"/>
<path d="M15.8227 18.2062C15.1643 18.9195 14.5059 19.6508 14.3596 19.8246C14.131 20.1174 14.1218 20.1266 14.323 19.962C14.451 19.8613 14.762 19.5869 15.0271 19.3491C15.2832 19.1022 15.5849 18.9104 15.6764 18.9104C15.905 18.9104 16.417 18.2885 16.7828 17.5478C16.9474 17.2369 17.0663 16.9626 17.048 16.9443C17.0297 16.926 16.481 17.4929 15.8227 18.2062Z" fill="white"/>
<path d="M22.4825 21.5255C22.0801 21.873 22.007 22.0193 22.2447 22.0193C22.3451 22.0193 22.3726 22.0741 22.3179 22.2206C22.2536 22.4216 22.2628 22.4216 22.4733 22.2662C22.7842 22.0376 23.2505 21.8363 23.4607 21.8363C23.6436 21.8363 23.7899 21.5986 23.662 21.5163C23.6164 21.4982 23.3967 21.5438 23.159 21.6261C22.6743 21.8091 22.5648 21.754 22.775 21.4248C22.976 21.1231 22.9304 21.1323 22.4825 21.5255Z" fill="white"/>
<path d="M12.3043 22.1382C11.8014 22.7691 11.8471 22.8695 12.3501 22.2477C12.5421 22.0192 12.661 21.8362 12.6152 21.8362C12.5786 21.8362 12.4324 21.9736 12.3043 22.1382Z" fill="white"/>
<path d="M9.80612 27.5058C9.67811 27.7068 9.56836 27.8806 9.56836 27.9081C9.56836 27.9265 9.71467 27.8714 9.88843 27.7891C10.1353 27.6795 10.1993 27.5881 10.2085 27.3868C10.2085 27.0395 10.0896 27.0759 9.80612 27.5058Z" fill="white"/>
<path d="M17.2245 28.5299C16.4381 29.8376 16.2461 30.2308 16.2461 30.4961C16.2461 30.7519 16.493 30.4502 17.1696 29.3713C17.5628 28.7312 17.8006 28.2739 17.764 28.1824C17.7366 28.1093 17.7914 27.8807 17.9013 27.6705C18.0017 27.4692 18.0659 27.2865 18.0475 27.2681C18.0292 27.2406 17.6543 27.8167 17.2245 28.5299Z" fill="white"/>
<path d="M108.199 34.7663C108.29 34.9949 108.309 35.1411 108.245 35.1776C108.19 35.2143 108.281 35.388 108.464 35.5983C108.629 35.7996 108.793 35.9366 108.83 35.9C108.903 35.8268 108.482 34.9674 108.208 34.6198C108.062 34.4188 108.053 34.4187 108.199 34.7663Z" fill="white"/>
<path d="M110.711 35.1411C110.729 35.1867 110.876 35.4795 111.031 35.7812C111.561 36.8052 112.604 39.6675 112.448 39.6675C112.348 39.6675 111.982 39.256 111.982 39.1462C111.982 38.7897 111.022 36.0281 110.921 36.1196C110.912 36.1376 111.077 36.7505 111.296 37.4728C111.735 38.9176 111.872 39.576 111.726 39.576C111.68 39.576 111.543 39.3383 111.424 39.0455C111.305 38.7622 111.196 38.5884 111.177 38.6615C111.15 38.8353 112.183 40.7464 112.238 40.6001C112.256 40.5362 112.21 40.2984 112.128 40.0607C111.954 39.5577 111.945 39.4479 112.083 39.5394C112.229 39.6308 112.658 40.6001 112.887 41.3592C113.033 41.8528 113.125 42.0265 113.308 42.1088C113.436 42.1639 113.536 42.182 113.536 42.1364C113.536 42.0997 113.417 41.7705 113.262 41.4048C113.116 41.0392 112.988 40.7008 112.988 40.6457C112.988 40.4355 113.271 40.8195 113.436 41.2769C113.536 41.5419 113.701 41.8438 113.801 41.9442C113.893 42.0357 113.994 42.1728 114.012 42.237C114.039 42.3101 114.094 42.3374 114.131 42.301C114.387 42.0632 112.512 37.7014 111.451 36.0373C111.04 35.3972 110.592 34.8575 110.711 35.1411Z" fill="white"/>
<path d="M109.33 36.2292C109.33 36.3299 110.089 37.6648 110.126 37.6284C110.18 37.5644 109.486 36.1928 109.403 36.1928C109.367 36.1928 109.33 36.2112 109.33 36.2292Z" fill="white"/>
<path d="M109.57 37.473C109.625 37.7931 109.744 38.0033 109.826 37.921C109.854 37.9029 109.79 37.7199 109.689 37.5186L109.516 37.153L109.57 37.473Z" fill="white"/>
<path d="M107.559 39.9692C107.587 40.0607 107.642 40.1063 107.669 40.0788C107.696 40.0515 107.669 39.9784 107.605 39.9144C107.513 39.8321 107.505 39.841 107.559 39.9692Z" fill="white"/>
<path d="M108.754 40.5726C108.937 40.8835 109.102 41.1123 109.129 41.094C109.193 41.03 108.654 40.0971 108.535 40.0515C108.471 40.0332 108.571 40.2709 108.754 40.5726Z" fill="white"/>
<path d="M107.959 40.271C107.959 40.4448 108.178 40.9019 109.248 42.9595C109.477 43.3891 109.705 43.8557 109.769 44.0111C109.87 44.2669 109.87 44.2488 109.843 43.7823C109.815 43.5081 109.751 43.0599 109.696 42.7949C109.614 42.4198 109.55 42.3194 109.413 42.3194C109.285 42.3194 109.12 42.0817 108.773 41.3774C108.526 40.8655 108.233 40.3625 108.133 40.2618C107.959 40.0881 107.959 40.0881 107.959 40.271Z" fill="white"/>
<path d="M111.617 41.0117C111.617 41.1855 112.358 43.252 112.559 43.6635C112.797 44.139 113.236 46.0867 113.327 47.12C113.391 47.8149 113.675 48.4369 113.839 48.2722C113.894 48.2172 114.022 48.1716 114.114 48.1716C114.296 48.1716 114.296 48.2264 114.114 47.2115C114.022 46.7541 114.205 47.0377 114.589 47.9795C114.79 48.4733 115.001 48.8756 115.046 48.8848C115.229 48.9123 115.138 47.321 114.873 46.0044C114.635 44.7974 114.598 44.7151 114.443 44.8158C114.324 44.8889 114.269 45.0535 114.251 45.4191L114.223 45.9221L113.876 45.3916C113.592 44.9712 113.492 44.6784 113.309 43.7914C113.108 42.813 112.769 41.9627 112.523 41.8164C112.395 41.7341 112.422 42.0725 112.577 42.4381C112.742 42.8313 112.76 43.0418 112.623 42.9044C112.568 42.8497 112.367 42.4017 112.184 41.9079C111.992 41.4141 111.791 40.9934 111.727 40.9658C111.672 40.9478 111.617 40.9658 111.617 41.0117Z" fill="white"/>
<path d="M0.948501 47.87C0.930206 47.9156 0.884494 48.0985 0.847903 48.2815C0.793043 48.5648 0.811338 48.6288 0.930206 48.6288C1.03078 48.6288 1.06737 48.5281 1.06737 48.2173C1.06737 47.8241 1.03078 47.7235 0.948501 47.87Z" fill="white"/>
<path d="M113.959 50.2015C113.968 51.262 114.142 52.1401 114.407 52.4601C114.736 52.8533 114.809 53.9322 114.507 53.9322C114.425 53.9322 114.425 54.1607 114.526 54.8923C114.608 55.45 114.7 55.8251 114.754 55.7884C114.8 55.7612 114.819 55.5599 114.782 55.3405C114.754 55.1027 114.764 54.9381 114.819 54.9381C114.928 54.9381 114.91 54.7552 114.992 56.3829C115.047 57.3063 115.111 57.8185 115.184 57.8916C115.276 57.9831 115.285 57.846 115.23 57.224C115.193 56.7944 115.157 55.3405 115.139 53.9961C115.102 51.2712 115.029 50.8324 114.553 50.4757C114.389 50.3569 114.233 50.11 114.133 49.8172C114.05 49.5703 113.977 49.3601 113.968 49.3601C113.959 49.3601 113.95 49.7441 113.959 50.2015Z" fill="white"/>
<path d="M8.44436 52.3506C8.41694 52.387 8.3712 52.8077 8.33464 53.274C8.27978 53.8776 8.29805 54.1154 8.3712 54.1154C8.43521 54.1154 8.4718 53.9052 8.48095 53.5393L8.4901 52.9723L8.61811 53.3382L8.74613 53.7039L8.70039 53.073C8.66382 52.4785 8.5541 52.1768 8.44436 52.3506Z" fill="white"/>
<path d="M111.307 63.3783C111.261 63.9726 111.252 64.4756 111.271 64.5031C111.362 64.5945 111.508 63.0216 111.444 62.6651C111.389 62.3724 111.362 62.5097 111.307 63.3783Z" fill="white"/>
<path d="M0.277815 63.854C0.360093 64.3387 0.5247 64.8417 0.57956 64.7775C0.643568 64.7135 0.414953 63.6894 0.305233 63.5796C0.250373 63.5248 0.241225 63.6163 0.277815 63.854Z" fill="white"/>
<path d="M6.0957 83.7057C6.0957 83.7605 6.24201 84.3002 6.41577 84.8944C6.74496 86.0011 7.6228 87.9213 7.89712 88.1499C7.98855 88.2138 7.94283 88.0859 7.79652 87.8298C7.5039 87.336 7.5222 87.1622 7.82397 87.5462C8.12571 87.9305 8.04341 87.6925 7.59535 86.8514C7.35762 86.4215 6.92783 85.5164 6.63521 84.8396C6.34261 84.1629 6.0957 83.651 6.0957 83.7057Z" fill="white"/>
<path d="M13.5938 83.9984C13.5938 84.0626 13.6578 84.2637 13.7309 84.4466C13.8864 84.8214 13.9047 84.9677 13.7766 84.8854C13.5846 84.7667 13.6943 85.0227 14.0784 85.5713C14.2887 85.8822 14.5082 86.2022 14.5539 86.2845C14.6088 86.3669 14.7825 86.6413 14.9379 86.8882C15.4957 87.7385 15.4409 88.214 14.8556 87.7477C14.3619 87.3637 14.4899 87.5739 15.322 88.534C16.0352 89.3479 16.3553 89.5673 15.7243 88.7993C14.9928 87.9123 15.0019 87.9123 16.8856 89.357C17.9647 90.1801 18.3212 90.3811 17.928 89.9513C17.8366 89.8417 17.5166 89.5673 17.224 89.3479C16.9314 89.1193 16.7119 88.8907 16.7302 88.8357C16.7485 88.7809 16.529 88.4153 16.2456 88.031C15.9529 87.6378 15.2763 86.5862 14.7368 85.6901C13.6761 83.9528 13.5938 83.8249 13.5938 83.9984Z" fill="white"/>
<path d="M9.02062 88.3602C9.02062 88.3878 9.08463 88.5615 9.15779 88.7442C9.35896 89.2289 9.32237 89.3204 9.07548 88.9272C8.78286 88.4517 8.75544 88.4425 8.79201 88.8085C8.84687 89.4302 9.63326 91.2406 10.1088 91.8718L10.3465 92.1918L10.3922 91.8442L10.4379 91.4967L11.3981 92.6581C12.0565 93.4445 12.4497 94.0206 12.6508 94.4685C12.9983 95.2368 13.0349 95.447 12.7971 95.2549C12.468 94.9807 12.852 95.5018 13.4555 96.1602C13.8396 96.5717 14.4614 97.0747 15.1746 97.5594C15.7873 97.9709 16.5188 98.5011 16.7931 98.7297C17.2046 99.0864 17.2595 99.1048 17.0949 98.876C16.9851 98.7205 16.7749 98.4736 16.6102 98.3274C16.2536 97.989 16.089 97.7148 16.2811 97.7879C16.3816 97.8246 16.3999 97.7879 16.3725 97.6233C16.3268 97.4404 16.3634 97.4587 16.5828 97.7331C16.72 97.9069 17.0949 98.3457 17.4149 98.7024C17.9545 99.3333 18.1466 99.6259 17.8447 99.379C17.7716 99.315 17.7076 99.2875 17.7076 99.315C17.7076 99.3973 19.1156 100.732 19.9478 101.427C20.7342 102.095 21.0726 102.305 20.8073 101.967C20.661 101.784 20.6154 101.747 21.7401 102.561C22.435 103.064 23.8889 103.832 23.9713 103.75C24.0352 103.695 23.4591 103.329 22.2796 102.671C21.0086 101.967 20.0668 101.217 19.2986 100.321C18.8414 99.7905 18.8231 99.6717 19.2071 99.8453C19.4999 99.9826 19.5822 99.9184 19.454 99.6717C19.3534 99.4888 17.5795 98.0073 17.4606 98.0073C17.4241 98.0073 17.5155 98.1263 17.6618 98.2817C17.8081 98.428 17.8905 98.5834 17.8538 98.6201C17.8264 98.6566 17.3144 98.1811 16.72 97.5685C16.1347 96.9557 15.5861 96.453 15.5038 96.453C15.3392 96.453 13.5835 93.9658 12.7514 92.5391C12.4497 92.0272 12.1662 91.6065 12.1205 91.6065C12.0016 91.6065 12.0199 91.6705 12.2028 91.9541L12.3582 92.2007L12.0748 91.9997C11.6176 91.6796 11.1512 91.1035 10.8494 90.509C10.5111 89.8325 10.2368 89.7319 10.4837 90.372C10.6574 90.8293 10.4105 90.5001 9.75215 89.4118C9.13949 88.3969 9.02062 88.2323 9.02062 88.3602Z" fill="white"/>
<path d="M18.3322 90.701C18.3781 91.0027 18.4053 91.0211 18.5791 90.8381C18.6797 90.7377 18.6889 90.6919 18.5974 90.6279C18.3322 90.4177 18.2958 90.4269 18.3322 90.701Z" fill="white"/>
<path d="M20.4593 91.9901C20.7154 92.2095 20.962 92.8132 20.8616 92.9686C20.8341 93.0234 20.962 93.1424 21.1542 93.2428C21.3463 93.3343 21.648 93.572 21.8217 93.7458C22.1234 94.0658 22.1326 94.075 21.9132 94.0566C21.2456 93.9835 21.9224 95.0079 23.1475 95.9221C25.1684 97.4308 27.3722 98.5739 31.3317 100.174C32.5477 100.668 33.1146 100.942 33.3434 101.162C33.7458 101.546 34.8886 102.259 36.3153 103.009C37.5679 103.667 37.4764 103.759 36.0408 103.274C35.5378 103.1 35.1082 102.981 35.0899 103C35.0715 103.018 35.5653 103.274 36.1871 103.576L37.321 104.115L37.6046 103.941C37.76 103.841 37.9611 103.768 38.0434 103.768C38.2628 103.768 39.4698 104.39 39.4698 104.508C39.4698 104.563 39.415 104.591 39.351 104.563C39.2779 104.536 38.9851 104.49 38.6834 104.454L38.144 104.399L38.3726 104.582C38.6651 104.82 39.3694 105.039 40.0095 105.094L40.5214 105.14L40.1465 104.966C39.6802 104.755 39.6163 104.655 39.7626 104.417C39.9088 104.179 39.7717 104.024 39.1133 103.713C38.8297 103.576 38.647 103.448 38.7018 103.43C38.9943 103.329 41.509 104.161 42.0943 104.554C42.2222 104.627 42.2953 104.755 42.2681 104.82C42.2039 104.993 42.9813 105.277 44.2706 105.56C44.8284 105.679 45.6514 105.862 46.0994 105.962C46.5565 106.063 47.2149 106.292 47.5717 106.465C48.0655 106.712 48.3397 106.785 48.7603 106.795C49.446 106.813 50.3697 106.621 50.3239 106.484C50.3058 106.42 50.0038 106.282 49.6565 106.173C49.2266 106.045 49.1079 105.972 49.2814 105.972C49.4188 105.962 49.5283 105.917 49.5283 105.871C49.5283 105.761 48.9158 105.752 48.8702 105.862C48.861 105.908 48.4128 105.798 47.8825 105.633C46.767 105.277 46.8674 105.295 46.8949 105.432C46.9405 105.661 45.1576 105.469 44.4077 105.167C44.3071 105.13 44.3346 105.094 44.4992 105.048C44.6911 104.993 44.6363 104.966 44.1791 104.874C43.2555 104.691 42.1127 104.317 42.0668 104.179C42.0393 104.106 41.7834 104.006 41.4998 103.951C41.2073 103.896 40.5489 103.722 40.0186 103.567C39.4881 103.411 38.9851 103.265 38.9028 103.247C38.6743 103.183 38.7018 103.036 38.9487 103.027C39.0583 103.027 38.7933 102.908 38.3634 102.762C37.9246 102.616 37.1655 102.296 36.6717 102.049C35.7664 101.592 34.1481 100.576 34.0383 100.394C34.0016 100.348 33.9193 100.32 33.8462 100.348C33.5812 100.449 32.4289 99.5799 32.4289 99.2871C32.4289 99.1956 32.3466 99.0952 32.246 99.0586C31.9991 98.9762 31.1304 98.327 29.7313 97.1839C28.6888 96.3245 27.6008 95.5381 27.4454 95.5381C27.4179 95.5381 26.7686 95.2456 26.0006 94.8889C24.4735 94.1756 22.9556 93.3618 21.4102 92.4381C20.2855 91.7616 20.1117 91.6793 20.4593 91.9901Z" fill="white"/>
<path d="M99.2399 99.5248C98.7552 100.055 98.4352 100.293 98.5998 99.9914C98.7552 99.7261 98.3529 100.211 97.9414 100.796C97.4111 101.555 97.5209 101.482 98.9382 100.156C99.4776 99.653 99.9166 99.1956 99.9166 99.1316C99.9166 98.8847 99.752 98.9762 99.2399 99.5248Z" fill="white"/>
<path d="M28.3604 99.5523L28.0859 99.607L28.4516 99.8815C28.6529 100.037 29.0094 100.348 29.2471 100.586C29.4851 100.814 29.9422 101.134 30.2531 101.281C30.5731 101.436 31.1584 101.71 31.5608 101.902C31.9631 102.085 32.2373 102.259 32.1733 102.286C32.1094 102.305 31.9356 102.268 31.7801 102.213C31.1217 101.939 31.5241 102.25 32.7678 102.963C35.0445 104.289 36.0688 104.737 36.2882 104.517C36.407 104.399 37.1113 104.728 37.6415 105.139C37.8153 105.277 38.236 105.45 38.5652 105.533C38.9033 105.615 39.7264 105.898 40.3939 106.154C43.9967 107.526 44.6003 107.709 44.9568 107.517C45.0666 107.462 45.1398 107.398 45.1214 107.38C45.1122 107.361 44.5361 107.215 43.8596 107.06C42.1679 106.648 42.1952 106.657 42.3234 106.374C42.488 106.017 42.3325 105.944 41.2901 105.917C40.0556 105.889 39.2692 105.624 36.7545 104.408C35.2091 103.658 34.8159 103.429 34.5418 103.109C34.3588 102.899 34.185 102.661 34.1486 102.57C34.0844 102.396 32.2373 101.463 31.6064 101.29C31.2224 101.18 29.5307 100.192 28.909 99.7169C28.7077 99.5523 28.5614 99.5156 28.3604 99.5523Z" fill="white"/>
<path d="M18.8034 101.18C19.59 101.884 20.559 102.863 20.9433 103.348C21.1626 103.631 21.7844 104.015 21.8759 103.924C21.885 103.915 21.6381 103.686 21.3089 103.421C20.9889 103.155 20.7236 102.899 20.7236 102.854C20.7236 102.808 20.8151 102.762 20.9249 102.744C21.0987 102.726 20.9705 102.579 20.175 101.866C19.6539 101.4 19.1785 101.034 19.1234 101.052C19.0778 101.071 18.8584 100.97 18.6479 100.833C18.017 100.394 18.081 100.531 18.8034 101.18Z" fill="white"/>
<path d="M96.8417 101.317C96.3662 101.665 95.4336 102.616 95.4336 102.744C95.4336 102.808 95.4976 102.991 95.5799 103.137C95.7445 103.457 95.8359 103.42 96.2747 102.817C96.6039 102.369 96.6131 102.177 96.3022 102.232C96.1741 102.259 96.0737 102.25 96.0737 102.204C96.0737 102.113 96.5216 101.793 96.7594 101.72C96.9515 101.665 97.3355 101.116 97.1892 101.116C97.1434 101.116 96.9879 101.207 96.8417 101.317Z" fill="white"/>
<path d="M30.7117 102.506C30.8491 102.625 31.2147 102.854 31.5347 103.018C32.0469 103.293 32.0833 103.302 31.8364 103.091C31.6902 102.963 31.3154 102.726 31.0137 102.57C30.5471 102.332 30.5015 102.323 30.7117 102.506Z" fill="white"/>
<path d="M22.2062 104.244C22.2337 104.308 22.4806 104.545 22.7731 104.765C23.0564 104.975 23.6876 105.524 24.1723 105.972C24.7209 106.484 25.0773 106.758 25.114 106.694C25.2055 106.548 25.6993 106.813 27.2537 107.837C27.9669 108.303 29.0735 108.962 29.7317 109.309C30.6097 109.767 30.8656 109.94 30.7468 109.986C30.6186 110.032 30.8108 110.151 31.46 110.425C31.9538 110.635 32.4293 110.809 32.5208 110.809C32.6123 110.809 33.3438 111.129 34.1485 111.522C34.9532 111.925 35.9589 112.382 36.3796 112.546C36.7911 112.711 37.303 112.921 37.5043 113.004C38.2175 113.315 41.8295 114.476 43.4663 114.924C47.3433 115.976 52.0159 116.725 55.7012 116.89C56.3594 116.917 57.347 116.963 57.8956 116.99C58.9931 117.036 59.0935 116.908 58.033 116.799C57.6946 116.762 57.3654 116.698 57.2922 116.652C57.2191 116.606 57.2099 116.57 57.2556 116.57C57.5116 116.561 57.027 116.387 56.7436 116.387C56.1859 116.387 55.5639 116.277 55.5639 116.177C55.5639 116.122 56.0121 116.103 56.844 116.14C57.5848 116.167 58.1242 116.149 58.1242 116.103C58.1242 116.058 58.0878 116.021 58.0419 116.021C57.9963 116.021 57.8317 115.912 57.6762 115.783C57.2556 115.427 56.3046 115.39 54.7319 115.655C53.8174 115.811 53.278 115.847 52.6104 115.82C52.1258 115.793 51.6959 115.747 51.6594 115.71C51.6228 115.683 51.6778 115.601 51.769 115.527C51.9336 115.409 51.9247 115.39 51.5863 115.299C51.385 115.244 50.9004 115.152 50.5072 115.098C50.114 115.052 49.4556 114.906 49.0441 114.768C48.4771 114.595 48.1846 114.549 47.8279 114.586C47.4166 114.631 47.3433 114.613 47.3068 114.458C47.2701 114.329 47.1789 114.284 46.9501 114.284C46.5844 114.284 43.8136 113.726 42.8535 113.461C42.4787 113.36 41.6284 113.132 40.9792 112.958C40.3207 112.784 39.1321 112.391 38.3274 112.08C36.919 111.541 36.3613 111.294 36.7728 111.394C36.8734 111.413 37.1384 111.467 37.3672 111.495C38.0985 111.605 37.6598 111.385 36.5534 111.083C35.3188 110.754 35.1175 110.663 35.2549 110.498C35.3372 110.407 35.0995 110.297 34.1849 109.986C33.5449 109.767 32.4477 109.373 31.7525 109.099C31.0577 108.834 30.454 108.633 30.4268 108.669C30.3993 108.697 30.5363 108.861 30.7376 109.035C30.9387 109.2 31.0669 109.346 31.021 109.346C30.756 109.346 28.598 107.938 28.7076 107.828C28.7259 107.8 28.9181 107.856 29.1283 107.938C29.3385 108.02 29.5398 108.066 29.5673 108.029C29.6677 107.929 29.549 107.883 28.543 107.609C27.8389 107.426 27.4914 107.279 27.3176 107.115C26.7965 106.594 27.3818 106.731 29.2654 107.572C31.2498 108.468 30.7101 108.029 28.5065 106.959C27.7842 106.612 26.9063 106.136 26.568 105.917C26.2204 105.688 25.9371 105.533 25.9371 105.56C25.9371 105.588 26.1289 105.807 26.3575 106.054C26.6959 106.411 26.7509 106.511 26.6136 106.511C26.3758 106.511 25.9735 106.255 24.7025 105.286C23.4499 104.326 23.2669 104.198 23.4588 104.435C23.6876 104.728 23.468 104.719 22.8646 104.426C22.2062 104.097 22.1605 104.088 22.2062 104.244Z" fill="white"/>
<path d="M40.4785 104.664C40.4785 104.774 41.3196 104.957 41.7862 104.957C42.3073 104.957 42.1062 104.82 41.3838 104.701C40.6615 104.573 40.4785 104.564 40.4785 104.664Z" fill="white"/>
<path d="M93.6215 104.875C93.2375 105.158 93.1461 105.332 93.4845 105.158C93.6491 105.067 94.1245 104.591 94.0514 104.591C94.0239 104.591 93.8318 104.719 93.6215 104.875Z" fill="white"/>
<path d="M40.5491 105.478C40.6131 105.505 40.6954 105.496 40.7229 105.469C40.7593 105.442 40.7045 105.414 40.6039 105.423C40.5035 105.423 40.476 105.451 40.5491 105.478Z" fill="white"/>
<path d="M41.0061 105.569C41.0701 105.597 41.1524 105.588 41.1799 105.56C41.2166 105.533 41.1616 105.505 41.0612 105.514C40.9605 105.514 40.933 105.542 41.0061 105.569Z" fill="white"/>
<path d="M52.1798 106.795C52.0794 106.868 52.0702 106.904 52.1617 106.941C52.3535 107.014 52.1798 107.151 51.8781 107.151C51.5124 107.16 51.7043 107.279 52.2073 107.371C52.564 107.435 52.6463 107.554 52.3994 107.645C52.2165 107.718 51.0917 107.718 50.7258 107.645C50.3785 107.572 50.4425 107.425 50.8173 107.425C50.9911 107.425 51.0734 107.389 51.037 107.325C50.9455 107.188 49.9854 107.261 49.8939 107.416C49.848 107.508 49.5099 107.572 48.76 107.636C48.1747 107.691 47.6992 107.755 47.6992 107.791C47.6992 107.819 48.0832 107.919 48.5495 108.011C50.918 108.468 51.9604 108.623 53.2314 108.669C54.5757 108.724 54.6122 108.724 54.923 108.505C55.2339 108.285 55.2431 108.267 55.2247 107.7C55.2158 107.389 55.1791 107.096 55.1335 107.051C55.0512 106.968 53.0851 106.694 52.6096 106.694C52.445 106.694 52.2529 106.74 52.1798 106.795Z" fill="white"/>
<path d="M87.7053 108.514C87.6503 108.56 87.3122 108.761 86.9463 108.962C86.2697 109.319 86.2055 109.437 86.6721 109.437C86.9829 109.437 87.3945 109.273 87.9247 108.944C88.2904 108.706 88.3087 108.688 88.1441 108.569C87.9522 108.413 87.8241 108.404 87.7053 108.514Z" fill="white"/>
<path d="M85.5105 109.437C85.1996 109.767 85.2269 109.767 85.7938 109.52C86.1322 109.383 86.2053 109.319 86.1049 109.254C85.8853 109.117 85.7938 109.145 85.5105 109.437Z" fill="white"/>
<path d="M84.6488 109.995C84.4292 110.096 84.2646 110.196 84.2921 110.224C84.3835 110.306 84.8042 110.16 84.9688 109.977C85.1515 109.766 85.1607 109.766 84.6488 109.995Z" fill="white"/>
<path d="M64.9562 110.855C64.3251 110.992 64.2519 111.038 64.5811 111.12C64.828 111.184 65.6694 110.955 65.7609 110.8C65.834 110.69 65.6236 110.709 64.9562 110.855Z" fill="white"/>
<path d="M78.7145 112.272C77.4435 112.72 76.1725 113.186 75.8892 113.314C75.6148 113.442 75.2764 113.552 75.1576 113.552C74.938 113.552 73.7129 114.174 73.786 114.247C73.8041 114.274 74.0054 114.247 74.2248 114.201C75.441 113.918 74.5999 114.357 73.1001 114.796C71.6737 115.198 69.9545 115.555 69.0402 115.619L68.3178 115.664L69.3694 115.289C70.9604 114.722 71.1251 114.677 71.9937 114.503C72.7344 114.366 73.1824 114.192 72.8259 114.192C72.7436 114.192 72.6613 114.147 72.6429 114.092C72.6154 114.018 72.2498 114.073 71.4724 114.265C69.3783 114.787 67.1931 115.134 63.3068 115.564C61.9535 115.719 60.7921 115.838 60.7189 115.838C60.6366 115.838 60.6094 115.875 60.6366 115.929C60.6641 115.975 60.8471 116.021 61.0298 116.021C61.6243 116.021 61.2128 116.176 60.1795 116.341C59.6309 116.423 59.1004 116.542 59 116.588C58.6616 116.771 59.0089 116.826 59.8136 116.707C60.271 116.652 60.8652 116.615 61.1396 116.634C61.4141 116.652 61.9718 116.634 62.3742 116.588L63.1055 116.515L62.7398 116.332L62.3742 116.158L63.2792 116.131C63.9377 116.112 64.2852 116.149 64.5413 116.25C65.026 116.442 65.8946 116.423 67.2112 116.195C67.824 116.094 68.5828 115.975 68.912 115.929C71.2257 115.637 76.6939 114.055 80.1868 112.674C81.9699 111.961 82.2992 111.723 81.4761 111.723C81.1377 111.723 81.0646 111.696 81.1105 111.586C81.1377 111.513 81.1286 111.449 81.0921 111.449C81.0554 111.458 79.9858 111.824 78.7145 112.272Z" fill="white"/>
<path d="M56.9355 114.833C56.9355 114.942 57.0087 114.942 57.2556 114.833C57.4202 114.759 57.411 114.75 57.1916 114.75C57.0454 114.741 56.9355 114.778 56.9355 114.833Z" fill="white"/>
<path d="M49.8535 48.9977H47.0772V56.0378H45.094V48.9977H42.3301V47.3618H49.8535V48.9977Z" fill="white"/>
<path d="M57.1264 51.5139C57.6551 51.6709 58.06 51.927 58.3411 52.2822C58.6219 52.6376 58.7623 53.0754 58.7623 53.596C58.7623 54.3645 58.471 54.9635 57.8886 55.3932C57.3061 55.823 56.4736 56.0378 55.3912 56.0378H51.1152V47.3618H55.1557C56.1638 47.3618 56.9488 47.556 57.5107 47.9443C58.0725 48.3326 58.3533 48.8863 58.3533 49.6052C58.3533 50.0348 58.246 50.4129 58.0312 50.7393C57.8164 51.0655 57.5147 51.3238 57.1264 51.5139ZM53.1106 50.9562H54.9822C55.4202 50.9562 55.7507 50.8672 55.9737 50.6896C56.1969 50.512 56.3085 50.2496 56.3085 49.9025C56.3085 49.5639 56.1948 49.3035 55.9675 49.1218C55.7403 48.9399 55.4118 48.8491 54.9822 48.8491H53.1106V50.9562ZM55.3168 54.5505C56.2588 54.5505 56.7297 54.1785 56.7297 53.4349C56.7297 52.7161 56.2588 52.3566 55.3168 52.3566H53.1106V54.5505H55.3168Z" fill="white"/>
<path d="M64.4912 56.1865C63.5905 56.1865 62.7787 55.9923 62.0558 55.604C61.3326 55.2157 60.7667 54.6806 60.3577 53.999C59.9488 53.3173 59.7441 52.5509 59.7441 51.6998C59.7441 50.8488 59.9488 50.0825 60.3577 49.4007C60.7667 48.7191 61.3326 48.184 62.0558 47.7956C62.7787 47.4073 63.5905 47.2131 64.4912 47.2131C65.3917 47.2131 66.2015 47.4073 66.9203 47.7956C67.6394 48.184 68.2053 48.7191 68.6184 49.4007C69.0317 50.0825 69.238 50.8488 69.238 51.6998C69.238 52.5509 69.0317 53.3173 68.6184 53.999C68.2053 54.6806 67.6394 55.2157 66.9203 55.604C66.2015 55.9923 65.3917 56.1865 64.4912 56.1865ZM64.4912 54.4762C65.0034 54.4762 65.4661 54.3585 65.8794 54.1231C66.2925 53.8874 66.6168 53.5589 66.8523 53.1377C67.0877 52.7163 67.2054 52.237 67.2054 51.6998C67.2054 51.1627 67.0877 50.6836 66.8523 50.2622C66.6168 49.8407 66.2925 49.5123 65.8794 49.2768C65.4661 49.0414 65.0034 48.9237 64.4912 48.9237C63.9788 48.9237 63.5161 49.0414 63.103 49.2768C62.69 49.5123 62.3656 49.8407 62.1302 50.2622C61.8945 50.6836 61.7768 51.1627 61.7768 51.6998C61.7768 52.237 61.8945 52.7163 62.1302 53.1377C62.3656 53.5589 62.69 53.8874 63.103 54.1231C63.5161 54.3585 63.9788 54.4762 64.4912 54.4762Z" fill="white"/>
<path d="M77.404 47.3618V56.0378H75.4208V53.7323H73.5864L72.0497 56.0378H69.9302L71.7399 53.4225C71.153 53.1829 70.7028 52.8214 70.3889 52.338C70.0749 51.8546 69.918 51.2742 69.918 50.5966C69.918 49.9275 70.0706 49.3511 70.3764 48.8677C70.6821 48.3844 71.1158 48.0126 71.6779 47.7522C72.2398 47.492 72.9008 47.3618 73.6609 47.3618H77.404ZM73.7105 48.9977C73.1403 48.9977 72.7046 49.1299 72.4029 49.3944C72.1012 49.6589 71.9506 50.0513 71.9506 50.5719C71.9506 51.0759 72.0951 51.4642 72.3843 51.7369C72.6735 52.0095 73.099 52.1459 73.6609 52.1459H75.4208V48.9977H73.7105Z" fill="white"/>
<path d="M20.447 64.1063H17.6708V71.1462H15.6877V64.1063H12.9238V62.4702H20.447V64.1063Z" fill="white"/>
<path d="M21.7109 62.4702H23.7063V68.1221L27.846 62.4702H29.73V71.1462H27.7468V65.5067L23.6072 71.1462H21.7109V62.4702Z" fill="white"/>
<path d="M39.7942 62.4702V71.1462H37.7988V64.1063H33.8821V71.1462H31.8867V62.4702H39.7942Z" fill="white"/>
<path d="M46.0908 71.295C45.1901 71.295 44.3783 71.1009 43.6554 70.7125C42.9325 70.3242 42.3663 69.7891 41.9573 69.1075C41.5484 68.4256 41.3438 67.6594 41.3438 66.8083C41.3438 65.9573 41.5484 65.1908 41.9573 64.5092C42.3663 63.8276 42.9325 63.2925 43.6554 62.9042C44.3783 62.5158 45.1901 62.3217 46.0908 62.3217C46.9916 62.3217 47.8011 62.5158 48.5202 62.9042C49.239 63.2925 49.8049 63.8276 50.218 64.5092C50.6313 65.1908 50.8379 65.9573 50.8379 66.8083C50.8379 67.6594 50.6313 68.4256 50.218 69.1075C49.8049 69.7891 49.239 70.3242 48.5202 70.7125C47.8011 71.1009 46.9916 71.295 46.0908 71.295ZM46.0908 69.5845C46.603 69.5845 47.0657 69.4668 47.479 69.2313C47.8921 68.9959 48.2164 68.6674 48.4519 68.246C48.6873 67.8245 48.805 67.3455 48.805 66.8083C48.805 66.2712 48.6873 65.7919 48.4519 65.3705C48.2164 64.9493 47.8921 64.6208 47.479 64.3851C47.0657 64.1497 46.603 64.0319 46.0908 64.0319C45.5784 64.0319 45.1159 64.1497 44.7026 64.3851C44.2896 64.6208 43.9652 64.9493 43.7298 65.3705C43.4943 65.7919 43.3766 66.2712 43.3766 66.8083C43.3766 67.3455 43.4943 67.8245 43.7298 68.246C43.9652 68.6674 44.2896 68.9959 44.7026 69.2313C45.1159 69.4668 45.5784 69.5845 46.0908 69.5845Z" fill="white"/>
<path d="M58.497 64.1063H54.3696L54.3821 71.1462H52.3867V62.4702H58.5093L58.497 64.1063Z" fill="white"/>
<path d="M63.4917 62.4702C64.2602 62.4702 64.9273 62.5983 65.4935 62.8544C66.0594 63.1105 66.4951 63.4741 66.8009 63.9452C67.1067 64.4161 67.2595 64.9739 67.2595 65.6183C67.2595 66.2546 67.1067 66.8103 66.8009 67.2853C66.4951 67.7605 66.0594 68.1241 65.4935 68.3761C64.9273 68.6281 64.2602 68.754 63.4917 68.754H61.7442V71.1462H59.7363V62.4702H63.4917ZM63.3801 67.1181C63.9835 67.1181 64.4419 66.9879 64.7558 66.7278C65.07 66.4674 65.2269 66.0976 65.2269 65.6183C65.2269 65.1309 65.07 64.7571 64.7558 64.4967C64.4419 64.2365 63.9835 64.1063 63.3801 64.1063H61.7442V67.1181H63.3801Z" fill="white"/>
<path d="M74.026 69.2871H69.998L69.2295 71.1462H67.1719L71.0391 62.4702H73.022L76.9015 71.1462H74.7945L74.026 69.2871ZM73.3938 67.7625L72.0181 64.4409L70.6424 67.7625H73.3938Z" fill="white"/>
<path d="M88.2069 66.7834C88.2069 67.932 87.8166 68.8348 87.0358 69.4917C86.2548 70.1486 85.1332 70.514 83.6708 70.5884V71.5305H81.824V70.5762C80.3532 70.4934 79.2275 70.1237 78.4467 69.4668C77.6658 68.8099 77.2754 67.9155 77.2754 66.7834C77.2754 65.6431 77.6658 64.7487 78.4467 64.1002C79.2275 63.4515 80.3532 63.0818 81.824 62.9908V62.0984H83.6708V62.9786C85.1332 63.0611 86.2548 63.4329 87.0358 64.0939C87.8166 64.7551 88.2069 65.6515 88.2069 66.7834ZM83.6708 69.0145C84.5466 68.9319 85.1994 68.7067 85.629 68.339C86.0586 67.9713 86.2734 67.4487 86.2734 66.7711C86.2734 65.4489 85.4061 64.7136 83.6708 64.565V69.0145ZM79.2214 66.7834C79.2214 68.089 80.089 68.8325 81.824 69.0145V64.565C80.94 64.6476 80.2852 64.8685 79.8597 65.228C79.4341 65.5875 79.2214 66.1058 79.2214 66.7834Z" fill="white"/>
<path d="M89.7012 62.4702H91.6966V68.1221L95.8362 62.4702H97.7202V71.1462H95.7371V65.5067L91.5975 71.1462H89.7012V62.4702Z" fill="white"/>
<path d="M106.806 62.4702V71.1462H104.823V68.8409H102.989L101.452 71.1462H99.3325L101.142 68.531C100.555 68.2913 100.105 67.93 99.7912 67.4466C99.4773 66.9632 99.3203 66.3828 99.3203 65.7052C99.3203 65.0358 99.4729 64.4595 99.7787 63.9761C100.084 63.4927 100.518 63.1209 101.08 62.8608C101.642 62.6004 102.303 62.4702 103.063 62.4702H106.806ZM103.113 64.1063C102.543 64.1063 102.107 64.2385 101.805 64.503C101.504 64.7673 101.353 65.1597 101.353 65.6802C101.353 66.1843 101.497 66.5728 101.787 66.8455C102.076 67.1181 102.501 67.2545 103.063 67.2545H104.823V64.1063H103.113Z" fill="white"/>
</svg>
