<svg width="135" height="138" viewBox="0 0 135 138" fill="none" xmlns="http://www.w3.org/2000/svg">
<path d="M67.7668 0.150049C66.4388 0.34281 66.3639 0.385665 67.3275 0.407093C67.7668 0.417807 68.3452 0.460632 68.6129 0.492774C69.8123 0.685534 67.8202 0.889038 65.2394 0.846182C64.4145 0.824754 63.7185 0.792643 63.6863 0.771215C63.6648 0.739073 63.7078 0.664106 63.7935 0.610566C64.0719 0.417806 63.2473 0.631994 62.808 0.856896C62.5833 0.974689 62.4013 1.0818 62.4013 1.09251C62.4013 1.10323 63.0545 1.09251 63.8469 1.07108C65.2394 1.02826 65.2928 1.02826 65.2928 1.24245C65.2928 1.5316 65.0358 1.58517 63.5899 1.58517C62.4332 1.58517 62.3798 1.59585 62.4332 1.79936C62.4869 2.00283 62.4332 2.01355 61.3409 2.01355C60.7091 2.01355 60.1522 2.0564 60.0878 2.10994C59.9595 2.23845 58.3207 2.54903 57.8065 2.54903C57.5926 2.53832 57.3034 2.47406 57.1533 2.38838C56.7143 2.14205 56.2323 2.20634 55.1185 2.65614C54.5402 2.88104 53.6619 3.18091 53.1694 3.29873C52.6875 3.42724 52.184 3.55575 52.0661 3.58789C51.8733 3.64143 51.8629 3.63071 52.0127 3.45938C52.1625 3.28802 52.1521 3.27731 51.9593 3.33084C51.8414 3.36299 51.4343 3.4701 51.0488 3.56646C50.6632 3.66286 49.3247 4.13409 48.0716 4.5946C45.8226 5.44067 44.8264 5.687 44.6873 5.4621C44.6124 5.33359 44.2053 5.44067 42.9737 5.9119C42.5666 6.07255 42.1811 6.17966 42.1169 6.15823C42.0527 6.12612 41.4851 6.46881 40.8426 6.89722C40.2105 7.33631 39.6644 7.68975 39.6217 7.68975C39.5787 7.68975 39.6644 7.57192 39.8037 7.42199C39.9428 7.27206 40.0284 7.15423 39.9965 7.15423C39.9643 7.15423 39.5465 7.36845 39.0645 7.63618C38.5828 7.90393 38.1435 8.11812 38.0901 8.11812C37.7902 8.11812 33.4205 11.1811 32.9066 11.7488L32.7031 11.9737L33.2065 11.7488C33.485 11.6309 33.7419 11.556 33.7741 11.5774C33.7953 11.6095 33.3886 11.9844 32.8529 12.402C32.3175 12.8197 31.8785 13.216 31.8785 13.2695C31.8785 13.4302 31.2359 13.6979 31.0217 13.6337C30.4111 13.4409 31.2571 12.07 32.3067 11.556C32.8636 11.2775 34.9843 9.77815 34.9843 9.66032C34.9843 9.56396 34.3629 9.93879 33.4097 10.6242C32.8636 11.0098 32.3282 11.3311 32.1996 11.3311C32.082 11.3311 31.6964 11.4703 31.3428 11.6524C30.9894 11.8237 30.6253 11.9737 30.5397 11.9737C30.272 11.9737 30.6576 11.3632 31.1715 10.999C31.6 10.6778 33.3029 9.72461 33.4312 9.72461C33.4635 9.72461 33.4742 9.82097 33.4312 9.92808C33.3778 10.1209 33.3993 10.1316 33.6777 10.0566C34.1597 9.91737 34.6309 9.63892 35.8838 8.79283C37.244 7.87179 37.7687 7.58264 38.1116 7.58264C38.2507 7.58264 38.9896 7.2292 39.7607 6.80082C41.2279 5.99758 41.6991 5.69771 41.6134 5.61203C41.5922 5.57992 40.896 5.94404 40.0822 6.41527C38.6685 7.2292 38.3148 7.36845 38.6255 6.99358C38.9362 6.61875 38.5613 6.72586 37.3297 7.35774C36.6227 7.73257 36.0124 8.00033 35.9802 7.96819C35.8945 7.88251 33.6133 9.08201 32.3067 9.88525C31.7498 10.2279 30.8396 10.8598 30.272 11.2882C29.2866 12.0272 29.2331 12.0914 29.1153 12.6269C29.0404 12.9268 28.7834 13.73 28.5369 14.4155L28.0872 15.6471L26.8448 16.6645C24.6599 18.4745 23.1821 19.7918 21.5648 21.3875C20.6974 22.2444 19.9906 22.8977 19.9906 22.8333C19.9906 22.5763 20.9545 21.2805 21.8648 20.3273C22.8287 19.3098 23.3319 18.86 23.2462 19.0957C23.1391 19.3955 24.7456 17.8105 25.1634 17.2C25.3562 16.9216 25.6131 16.6752 25.7417 16.6431C26.0202 16.5681 27.2196 15.3901 27.4339 14.9724C27.7016 14.4583 27.316 14.3726 26.8663 14.8439C26.7057 15.0152 26.3094 15.2616 25.988 15.3901C25.4952 15.5829 25.3669 15.7006 25.1956 16.0541C25.0777 16.3218 24.3066 17.1679 23.1713 18.2924C22.154 19.2884 21.3186 20.0809 21.2971 20.0595C21.2757 20.0381 21.4792 19.674 21.7576 19.2456C22.2826 18.4424 23.2892 17.3821 23.6426 17.275C23.8891 17.1893 23.9102 17.0501 23.6748 16.9644C23.5676 16.9216 23.2999 17.1036 22.9036 17.4999C22.5718 17.8319 22.1754 18.1639 22.0253 18.2603C21.8755 18.346 21.4258 18.9243 21.008 19.5347C20.601 20.1559 19.9049 21.0556 19.4872 21.5375C19.0588 22.0194 18.4377 22.7798 18.0949 23.2188C17.763 23.6581 16.7991 24.7182 15.9637 25.575C14.4322 27.16 13.7896 27.9849 13.961 28.1562C14.1323 28.3275 14.5072 27.9526 15.6103 26.5282C16.2101 25.757 16.7134 25.1575 16.7455 25.1894C16.7776 25.2216 16.6706 25.4467 16.4992 25.6821C15.8994 26.5282 15.8673 26.5819 16.0065 26.4963C16.0708 26.4533 16.1351 26.464 16.1351 26.5174C16.1351 26.721 15.5032 27.4707 14.8606 28.0275C14.4965 28.349 14.1002 28.7987 13.9717 29.0449L13.7575 29.4842L14.1431 29.1201C14.3572 28.9166 14.5286 28.788 14.5286 28.8524C14.5286 28.9058 14.2823 29.3341 13.9824 29.7949C13.4148 30.6944 12.815 31.8189 12.815 32.0009C12.815 32.2794 13.0721 32.0546 13.4362 31.4548C14.1538 30.2658 14.8606 29.2165 14.9463 29.2165C14.9998 29.2165 15.0105 29.3448 14.9891 29.5057C14.9356 29.7949 14.9463 29.7949 15.0855 29.5913C15.1712 29.4735 15.6424 28.7023 16.1458 27.8777C16.9704 26.4963 17.0454 26.3247 17.0561 25.757C17.0775 25.2431 17.1525 25.0074 17.5166 24.4078C17.9022 23.7545 18.0093 23.6474 18.5769 23.4009C19.4337 23.0153 19.9906 23.026 19.9906 23.4331C19.9906 23.6474 18.0307 25.575 17.8165 25.575C17.6237 25.575 16.1029 28.8524 16.1137 29.2272C16.1137 29.4735 15.9958 29.6233 15.4389 30.0733C14.5607 30.7585 13.3934 32.1615 12.1617 33.993C11.637 34.7856 11.1765 35.5031 11.1443 35.5887C11.1122 35.6636 11.1765 35.8242 11.2943 35.9421C11.4978 36.1456 11.4978 36.1563 11.0372 36.8204C10.7802 37.1845 10.5553 37.5378 10.5339 37.613C10.4268 37.9126 10.3732 37.57 10.4696 37.1522C10.5232 36.8953 10.5553 36.6706 10.5339 36.6491C10.5124 36.6276 10.0305 37.5378 9.45219 38.6731C8.87385 39.7976 8.32765 40.783 8.25269 40.8472C8.10275 40.9651 7.78146 41.7681 7.78146 42.0039C7.78146 42.0681 7.95282 41.8111 8.15629 41.4255C8.56327 40.6759 8.89528 40.2795 8.99167 40.4297C9.02378 40.4723 8.82031 41.0722 8.54187 41.747C7.84571 43.4391 7.35308 44.874 7.20315 45.6881L7.07461 46.3841L6.54985 46.3948L6.01436 46.4055L5.99294 45.8702C5.96082 45.2276 6.14287 43.3746 6.30352 42.7321C6.36777 42.4859 6.3892 42.2501 6.36777 42.2182C6.28209 42.143 4.88983 45.72 4.29009 47.5515C3.59396 49.6719 3.39046 49.6827 3.81886 47.573C3.94737 46.9839 4.05448 46.3414 4.07591 46.1379C4.11873 45.7308 5.15758 43.1818 5.37177 42.9571C5.44674 42.8822 5.6181 42.4966 5.74661 42.111C5.88583 41.7147 6.23926 40.8364 6.56056 40.1405C6.87114 39.455 7.18172 38.6516 7.25669 38.3627C7.32094 38.0735 7.42805 37.7843 7.4923 37.7306C7.59941 37.613 7.59941 37.6342 7.29952 38.9088C7.07461 39.894 6.90325 41.0614 6.94611 41.3506C6.97825 41.5327 7.0639 41.4255 7.34237 40.8901C7.6101 40.3759 7.72792 39.9689 7.80289 39.3371C7.94211 38.009 8.14561 37.4629 8.84174 36.5204C9.71992 35.3318 9.98767 34.8068 9.44148 35.321C9.29154 35.4601 9.17372 35.5353 9.17372 35.4923C9.17372 35.3959 9.74134 34.5606 10.1911 33.9822C10.6624 33.3931 10.7588 33.1791 10.4375 33.4683C9.97696 33.8966 10.0091 33.736 10.5446 33.0398C10.8337 32.6757 11.3157 32.0117 11.6263 31.5512C11.9368 31.1014 12.4295 30.4801 12.7294 30.1697C13.1256 29.7626 13.2756 29.5057 13.297 29.2592C13.3077 29.0771 13.4684 28.6059 13.6504 28.2096L13.9931 27.4814L13.0721 28.3167C11.8512 29.4305 11.5085 29.859 10.4375 31.6795C8.16701 35.5457 7.22455 37.345 6.22855 39.7227C5.9394 40.4189 5.65024 40.9543 5.59667 40.9328C5.44674 40.8794 4.54713 42.8822 4.02234 44.4242C3.57253 45.7738 3.45474 46.5769 3.29409 49.4042C3.17627 51.3856 2.83358 53.3454 2.53368 53.7632C2.30878 54.0631 2.16956 54.6093 2.06245 55.5625C1.98748 56.1301 1.84826 56.5264 1.75187 56.4193C1.71976 56.3871 1.74116 56.0767 1.79472 55.7338C1.91252 55.0483 1.80544 54.7913 1.55911 55.0912C1.44129 55.2303 1.41989 55.5625 1.44129 56.5372C1.48414 57.9613 1.29135 59.4609 1.08788 59.375C1.01291 59.3538 0.905805 59.375 0.841552 59.4395C0.72373 59.5573 0.702332 59.5359 0.573796 59.0966C0.552398 59.0109 0.466717 59.3646 0.381037 59.8999C0.188247 61.1531 0.188247 63.2412 0.39175 64.1837C0.466717 64.5908 0.541684 65.4906 0.541684 66.165C0.541684 67.1931 0.509543 67.5038 0.295356 68.0499C0.0811687 68.6176 0.0597408 68.8641 0.0918823 69.7958C0.102566 70.3957 0.0811683 70.8773 0.0383129 70.8773C-0.0687657 70.8773 0.0704548 73.1266 0.188247 73.3406C0.263214 73.4693 0.273928 73.4478 0.284642 73.255C0.284642 72.773 0.477431 73.0407 0.552398 73.6298C0.67019 74.6579 1.03434 76.3501 1.21639 76.7571L1.39846 77.1427L1.46272 76.3393C1.51625 75.6326 1.49486 75.504 1.29135 75.2148C1.05574 74.883 1.04503 74.7866 0.873694 72.109L0.820125 71.2522L0.970058 72.0126C1.09859 72.6874 1.41989 73.5227 1.51625 73.4263C1.53768 73.4155 1.49486 72.9765 1.43057 72.4519C1.34492 71.7556 1.34492 71.4342 1.44129 71.1665C1.58054 70.7705 1.50554 66.4435 1.34492 65.8973C1.28064 65.6833 1.26996 65.9081 1.30207 66.5613C1.37703 67.7073 1.21639 67.9001 1.04503 66.8828C0.86298 65.7583 0.766585 61.3136 0.927232 60.9281C1.09859 60.4998 1.2271 60.4998 1.16285 60.9173C1.11999 61.2387 1.30207 61.6028 1.46272 61.5064C1.51625 61.4742 1.58054 61.2495 1.62336 60.9922C1.66619 60.746 1.73047 60.4998 1.76258 60.4461C1.78401 60.3927 1.98748 60.9066 2.2017 61.5706L2.58725 62.7915L2.57654 65.0405C2.56582 66.6043 2.52297 67.3647 2.43732 67.536C2.33021 67.7288 2.33021 68.0395 2.4266 68.982C2.50157 69.6457 2.56582 70.8347 2.58725 71.6377C2.59796 72.4626 2.66222 73.1801 2.72647 73.298C2.79072 73.4051 2.85498 73.437 2.85498 73.3621C2.85498 73.0622 3.06919 73.2657 3.06919 73.5764C3.06919 73.7692 3.14416 74.3795 3.22981 74.9152C3.39046 75.8788 3.37978 75.9218 3.17627 76.1253C3.05848 76.2429 2.96208 76.425 2.96208 76.5321C2.96208 76.6392 2.89783 76.8213 2.81215 76.9392C2.66222 77.132 2.64079 77.1105 2.41589 76.5751C2.28735 76.2644 2.16956 76.0289 2.14813 76.0501C2.12673 76.0609 2.18027 76.3716 2.26595 76.7142C2.45871 77.5283 2.45871 77.6354 2.27667 77.5602C2.01963 77.4638 1.97677 77.8816 2.10531 79.2097C2.2231 80.2808 2.27667 80.5055 2.49086 80.7413C2.69433 80.9448 2.7479 81.1268 2.7479 81.5443C2.7479 82.3263 2.96209 83.8898 3.17627 84.7466C3.28338 85.1536 3.35835 85.507 3.33692 85.5285C3.32621 85.55 3.01562 85.0358 2.66222 84.3932C2.10531 83.4078 1.6769 82.7975 1.6769 83.0118C1.6769 83.0437 1.92323 83.7077 2.2231 84.4896C2.61936 85.5607 2.75858 86.0424 2.73718 86.4068C2.70504 86.9314 2.94066 87.7882 3.05848 87.6062C3.15484 87.4456 4.3222 88.8056 4.75061 89.5768C4.9434 89.9301 5.10402 90.1229 5.10402 90.0158C5.10402 89.6624 4.56853 88.2057 4.18298 87.5313C3.55111 86.396 3.78672 86.5351 4.50428 87.7241C4.87911 88.3451 5.48959 89.2768 5.86443 89.8015C6.22855 90.3157 6.66767 91.0761 6.82829 91.4939C7.19244 92.4256 7.72792 94.3106 7.64224 94.3962C7.42805 94.6209 6.71049 93.4538 6.71049 92.8646C6.71049 92.5647 6.33566 92.7682 6.28209 93.1001C6.22855 93.4 6.20712 93.3893 6.02508 92.8324C5.91797 92.5113 5.74661 92.1472 5.62881 92.0293C5.51099 91.9114 5.10402 91.2582 4.71847 90.5834C4.34363 89.9086 3.90454 89.2019 3.75461 89.0306L3.48685 88.7092L3.65822 89.0518C3.82958 89.4162 4.17227 90.9048 4.0973 90.9797C4.0759 91.0012 3.92597 90.7869 3.75461 90.487C3.50828 90.0158 3.28338 89.791 3.28338 90.005C3.28338 90.1551 4.6221 92.5113 4.70778 92.5113C4.76132 92.5113 4.76132 92.4149 4.72918 92.297C4.69707 92.1791 4.69707 92.0827 4.72918 92.0827C4.79343 92.0827 5.72521 93.9999 5.88583 94.4604C5.92868 94.5675 5.90725 94.6532 5.85371 94.6532C5.78946 94.6532 5.74661 94.5998 5.74661 94.546C5.74661 94.407 5.35034 94.407 5.25398 94.5568C5.1683 94.7066 5.81086 95.3706 6.12144 95.4458C6.28209 95.4885 6.41062 95.6386 6.49631 95.8848C6.56056 96.0883 6.68907 96.3238 6.76403 96.4095C6.84971 96.4951 7.3852 97.3734 7.95282 98.3589C9.74134 101.465 10.9301 103.253 11.7334 104.014C12.2796 104.538 12.2153 104.26 11.6048 103.478C10.9623 102.664 10.566 101.979 10.566 101.711C10.566 101.615 10.3518 101.358 10.0841 101.143C9.81631 100.918 9.40933 100.404 9.15232 99.9758C8.60612 99.0333 8.05993 97.7697 8.16701 97.6733C8.20986 97.6304 8.25269 97.6519 8.27411 97.7056C8.44548 98.1768 9.81631 99.9973 10.7802 101.047C11.5727 101.893 12.2367 102.75 12.815 103.671C13.2863 104.41 13.6718 105.074 13.6718 105.138C13.6718 105.202 13.5861 105.213 13.4898 105.181C13.3398 105.127 13.3505 105.181 13.5647 105.534C14.1752 106.563 15.0213 107.58 16.6706 109.272C18.5662 111.232 19.4551 112.228 19.4551 112.399C19.4551 112.464 19.6907 112.881 19.9906 113.331C20.2798 113.781 20.5261 114.209 20.5261 114.284C20.5261 114.584 21.897 115.741 23.1713 116.512C23.6855 116.833 24.2532 117.326 24.9172 118.054C25.6776 118.879 26.0524 119.2 26.5663 119.446C26.9304 119.628 27.5625 120.046 27.9693 120.367C28.3871 120.689 29.1475 121.288 29.6614 121.685C30.1863 122.092 30.6361 122.488 30.6683 122.574C30.7432 122.756 31.4714 123.141 31.7498 123.141C31.9961 123.141 32.9493 123.741 32.9493 123.891C32.9493 124.105 35.7232 125.765 35.9587 125.69C36.0231 125.669 35.7766 125.433 35.4018 125.176C35.0377 124.919 34.7915 124.683 34.8557 124.662C34.995 124.619 37.1262 125.701 37.5544 126.033L37.8224 126.247H37.5332C37.3619 126.247 37.2333 126.279 37.2333 126.333C37.2333 126.375 37.544 126.622 37.9292 126.879C38.3148 127.136 38.6255 127.393 38.6255 127.447C38.6255 127.575 40.3818 128.389 41.56 128.807C42.7809 129.235 44.1197 129.578 46.4436 130.038C47.4717 130.242 48.8747 130.585 49.5494 130.799C52.5589 131.752 56.2215 132.555 58.4386 132.758C58.9955 132.812 60.0129 132.834 60.6876 132.812C61.9085 132.758 61.9193 132.758 62.1762 133.037C62.3475 133.219 62.5511 133.316 62.7653 133.316C63.0545 133.326 63.0653 133.337 62.9044 133.433C62.7653 133.519 62.2511 133.487 61.0302 133.326C60.1093 133.198 59.2098 133.101 59.0277 133.112L58.7063 133.123L59.0062 133.24C59.5309 133.444 59.3166 133.53 58.2566 133.53C57.3461 133.54 57.2285 133.551 57.3998 133.68C57.5496 133.797 57.689 133.808 57.9889 133.722C58.4386 133.594 59.9057 133.669 61.6301 133.904C63.0653 134.097 65.4963 134.301 65.6142 134.226C65.6676 134.194 66.0532 134.162 66.4922 134.162C67.2419 134.151 68.3986 134.376 68.9021 134.622C69.0626 134.708 69.7908 134.719 71.2045 134.676C73.0253 134.611 73.7108 134.547 75.6491 134.226C75.9061 134.183 76.0777 134.097 76.0454 134.044C76.0132 133.99 76.0347 133.883 76.1096 133.797C76.206 133.69 76.1845 133.626 76.0454 133.551C75.8419 133.444 75.8953 133.422 77.8554 133.037C78.6585 132.887 78.8621 132.876 79.2154 132.994C79.4512 133.069 79.6117 133.165 79.5902 133.219C79.5583 133.262 79.2476 133.326 78.8835 133.369C78.455 133.422 78.2729 133.487 78.3374 133.551C78.455 133.669 78.8513 133.594 80.2757 133.208C80.7147 133.091 81.0896 133.016 81.1111 133.037C81.1433 133.058 80.8326 133.187 80.447 133.316C80.0615 133.444 79.7511 133.573 79.7723 133.594C79.7938 133.615 80.1259 133.551 80.5008 133.465C80.886 133.38 82.3749 133.091 83.8206 132.823C87.8476 132.095 87.2585 132.33 92.1206 129.621C93.2989 128.967 94.7233 128.271 95.2802 128.068C95.8371 127.864 97.2827 127.2 98.5036 126.6C99.7567 125.99 100.742 125.562 100.763 125.626C100.785 125.69 101.406 125.369 102.145 124.908C105.015 123.088 105.497 122.82 105.829 122.82C106.075 122.82 106.343 122.67 106.857 122.252C107.232 121.942 108.314 121.085 109.256 120.367C111.002 119.018 111.441 118.611 110.563 119.125C110.284 119.275 110.017 119.382 109.963 119.339C109.899 119.307 109.524 119.607 109.128 120.003C108.592 120.539 108.26 120.774 107.864 120.903C107.404 121.053 107.125 121.085 107.286 120.967C107.361 120.903 109.995 118.729 110.199 118.547C110.36 118.418 110.413 118.408 110.477 118.525C110.542 118.622 110.595 118.632 110.638 118.547C110.681 118.482 110.659 118.429 110.584 118.429C110.488 118.429 110.488 118.397 110.584 118.279C110.649 118.193 110.702 118.086 110.691 118.043C110.649 117.797 110.734 117.669 111.077 117.411C111.27 117.251 111.527 117.112 111.634 117.101C111.741 117.079 112.201 116.619 112.673 116.062C114.311 114.092 115.222 113.063 115.275 113.106C115.35 113.181 115.04 113.727 114.611 114.306C114.226 114.809 114.268 114.841 114.772 114.423L115.04 114.199L114.825 114.466C114.718 114.616 114.204 115.162 113.701 115.698C112.512 116.93 111.773 117.786 111.773 117.904C111.773 118.632 115.843 114.07 117.899 111.039C118.274 110.482 118.852 109.754 119.174 109.433C119.506 109.112 120.202 108.19 120.737 107.398C121.819 105.781 122.601 104.86 122.954 104.763C123.458 104.645 125.953 100.115 126.767 97.8661C127.035 97.1165 127.249 96.7201 127.581 96.356C128.03 95.8633 128.909 94.2783 128.909 93.9569C128.909 93.8286 128.844 93.7964 128.695 93.8501C128.555 93.8928 128.459 93.8605 128.427 93.7641C128.33 93.5394 128.877 91.9544 129.262 91.3011C129.68 90.6156 131.522 86.0531 131.693 85.2927C131.8 84.8003 131.757 84.5323 131.597 84.6394C131.543 84.6609 131.447 84.9823 131.372 85.3357C131.297 85.689 131.169 86.0639 131.083 86.1603C130.943 86.3316 130.944 86.2996 130.997 85.8391C131.04 85.5607 131.233 84.7895 131.436 84.1255C131.961 82.4546 131.907 82.5832 132.004 82.7545C132.068 82.8509 132.132 82.7226 132.218 82.3477C132.4 81.5017 132.85 78.235 132.978 76.875C133.107 75.4076 133.107 72.1946 132.978 71.5202C132.893 71.1024 132.893 71.1346 132.925 71.7879C132.957 72.1946 132.936 72.7088 132.882 72.9124L132.796 73.2872L132.711 72.7196C132.582 71.8091 132.497 72.1946 132.528 73.5549C132.561 74.3795 132.529 74.84 132.454 74.883C132.379 74.9364 132.336 74.8188 132.336 74.5403C132.336 73.8334 132.207 72.8052 132.122 72.8587C132.079 72.8909 131.982 73.1371 131.907 73.4155L131.768 73.9297L131.682 73.5549C131.64 73.3514 131.5 72.1946 131.372 70.9845C131.243 69.7743 131.093 68.6928 131.04 68.5749C130.976 68.4355 130.965 69.3887 131.018 71.1988C131.136 75.6219 131.115 77.132 130.911 78.0959C130.74 78.899 130.494 79.2953 130.269 79.1563C130.215 79.124 130.205 79.2419 130.237 79.4132C130.279 79.5953 130.258 80.1414 130.194 80.6341C130.13 81.1268 130.033 81.8977 129.99 82.337C129.872 83.3866 129.444 84.9501 129.316 84.8215C129.262 84.7681 129.209 84.4466 129.198 84.1148C129.187 83.7826 129.155 83.5794 129.112 83.6435C129.069 83.7185 128.812 84.6932 128.545 85.8177C127.42 90.3906 126.413 93.3251 124.892 96.4202C123.854 98.5409 122.697 100.511 122.504 100.469C122.451 100.458 122.269 100.747 122.108 101.111C121.776 101.871 120.801 103.35 119.923 104.453C118.863 105.791 117.621 107.184 117.492 107.184C117.31 107.184 116.346 108.319 115.254 109.807C113.551 112.131 113.187 112.581 112.405 113.374C111.891 113.909 111.612 114.123 111.559 114.027C111.43 113.834 109.867 114.98 108.614 116.18C106.568 118.151 102.884 120.882 99.3711 123.023C98.5143 123.559 98.2466 123.677 98.1287 123.58C97.9467 123.431 97.5719 123.57 95.3121 124.641C94.0912 125.219 93.5128 125.433 92.9989 125.497C92.2815 125.583 90.9212 126.151 90.4607 126.558C90.3106 126.686 90.268 126.772 90.3536 126.74C92.1529 126.14 92.3134 126.29 90.6213 126.975C89.8502 127.286 88.9829 127.704 88.6937 127.896C88.2437 128.196 88.0082 128.271 87.312 128.335C86.5515 128.4 86.434 128.442 86.1233 128.764C85.7055 129.171 84.9451 129.46 84.281 129.46C83.9062 129.46 83.7564 129.514 83.5743 129.739C83.4138 129.921 83.1246 130.06 82.6961 130.156C82.3535 130.242 82.0428 130.295 82.032 130.274C82.0108 130.252 82.2785 130.027 82.6426 129.77C83.4565 129.171 83.2529 129.117 81.9037 129.567C80.747 129.942 80.7362 129.953 80.972 129.685C81.0684 129.578 81.5181 129.331 81.9571 129.139C82.3961 128.946 82.739 128.764 82.7068 128.742C82.557 128.593 80.6398 129.032 78.8513 129.621C77.7268 129.995 76.4203 130.37 75.949 130.467C75.1564 130.627 73.4108 130.852 72.9823 130.852C72.6719 130.852 72.7683 130.66 73.1109 130.585C73.5072 130.499 73.6036 130.36 73.3571 130.231C73.2288 130.167 72.6074 130.242 71.5581 130.445C70.0585 130.724 69.8338 130.734 68.1843 130.681C67.1777 130.638 65.9353 130.52 65.2928 130.402C64.5965 130.274 63.3222 130.167 61.9193 130.103C60.6876 130.06 59.4026 129.963 59.0812 129.888C58.3957 129.739 56.1252 128.689 55.8467 128.389C55.622 128.143 54.4118 127.746 52.7409 127.372C51.6379 127.114 50.3206 126.761 49.8816 126.59C49.7852 126.558 49.9243 126.783 50.1812 127.082L50.642 127.65L51.6809 127.618C52.3234 127.596 52.9018 127.639 53.2121 127.736C54.0263 127.971 53.8442 128.111 52.848 128.025C52.3553 127.993 51.4881 127.929 50.9097 127.886C49.9884 127.832 49.7852 127.778 49.3032 127.489C49.0033 127.307 48.5855 126.932 48.3822 126.654C48.0501 126.204 47.911 126.119 46.9363 125.765C46.3365 125.54 44.5587 124.737 42.9845 123.977C40.457 122.766 39.9643 122.563 38.9147 122.327C37.3297 121.985 36.3231 121.47 34.7166 120.185C33.2173 118.986 33.0564 118.889 33.0564 119.125C33.0564 119.296 32.9493 119.286 32.4461 119.103C32.3709 119.072 32.3067 119.103 32.3067 119.168C32.3067 119.393 31.7821 118.954 31.4499 118.45C31.2571 118.161 31.1288 117.829 31.1288 117.615C31.1288 117.304 31.0858 117.251 30.7325 117.133C30.4326 117.036 29.8223 116.49 28.4512 115.12C26.6093 113.277 26.5878 113.256 27.4016 113.824C27.8621 114.134 28.2692 114.359 28.3122 114.327C28.4298 114.209 28.2158 114.049 26.7057 113.117C25.3669 112.282 24.9064 112.067 25.4633 112.528C25.6024 112.646 25.6561 112.742 25.5812 112.753C25.3027 112.753 24.0816 111.371 23.4605 110.332C23.1179 109.754 22.8395 109.208 22.8395 109.143C22.8502 109.069 22.4966 108.661 22.0468 108.233C18.4805 104.817 17.763 104.11 17.688 103.917C17.6451 103.799 17.5273 103.607 17.4202 103.489C17.1525 103.189 15.8138 100.597 15.8138 100.383C15.8138 100.115 15.2033 98.9692 14.9034 98.7015C14.5821 98.4015 13.3077 95.6705 12.1189 92.7253C11.2086 90.4762 9.77348 86.4172 9.85917 86.3208C9.89128 86.2996 10.1911 86.4495 10.5339 86.653C10.8766 86.8673 11.8191 87.3919 12.633 87.8309C14.0895 88.6236 14.1216 88.6451 14.3894 89.2127C14.5607 89.5553 14.6678 89.9943 14.6785 90.3157C14.7 90.9905 15.3318 92.3078 16.2314 93.5713C16.5956 94.0748 16.949 94.6961 17.0347 95.0173C17.2382 95.692 17.8808 96.8058 18.5983 97.7056C18.8875 98.0804 19.1338 98.4123 19.1338 98.4445C19.1338 98.68 18.8554 98.3908 18.2877 97.5555C17.9343 97.0308 17.5702 96.5811 17.4845 96.5488C17.3988 96.5166 17.2489 96.3238 17.1418 96.131C16.8098 95.4778 15.364 93.0359 15.3211 93.0682C15.2997 93.0897 15.3854 93.4108 15.4925 93.7749C15.8138 94.7925 15.9316 95.692 15.7924 95.992C15.696 96.2062 15.7388 96.3238 16.1779 96.8914C16.6812 97.5447 17.1097 97.7912 17.3453 97.5555C17.7308 97.1699 18.3948 97.8769 19.3694 99.7081C20.012 100.908 20.0655 100.983 20.5261 101.154C21.2222 101.411 21.6505 101.829 21.2222 101.829C21.1366 101.829 21.0617 101.871 21.0617 101.914C21.0617 102.054 21.6293 102.803 21.9719 103.114C22.379 103.489 23.3107 104.774 23.3107 104.956C23.3107 105.042 23.3856 105.202 23.4713 105.32C23.6748 105.588 23.6748 105.695 23.4713 105.62C23.3749 105.577 23.3107 105.62 23.3107 105.727C23.3107 105.93 24.4137 107.034 24.7029 107.13C24.9491 107.205 25.3777 107.002 25.292 106.852C25.1634 106.659 25.3991 106.766 25.688 107.044C25.8489 107.205 25.988 107.28 25.988 107.227C25.988 107.162 25.8167 106.959 25.6131 106.755C25.4096 106.552 25.2383 106.338 25.2383 106.273C25.2383 106.081 24.0389 104.442 23.0323 103.274C21.5863 101.593 19.348 98.3374 19.2944 97.8339C19.273 97.7056 19.0374 97.2129 18.7482 96.7416C18.1378 95.7135 17.1097 93.5713 15.9744 90.9905C15.2783 89.384 15.1069 89.084 14.8499 88.9769C14.6357 88.8913 14.4751 88.677 14.2608 88.1523C14.0895 87.7775 13.8003 87.2955 13.6076 87.0812C13.2756 86.7386 13.2327 86.7171 12.7722 86.7816L12.2796 86.8565L11.969 86.1495C11.5192 85.1644 11.4014 84.6932 11.5834 84.6932C11.7655 84.6932 11.4978 84.0076 11.0694 83.3759C10.9194 83.1616 10.7695 82.7975 10.7267 82.5725C10.6517 82.1442 10.3625 81.5336 10.3518 81.8013C10.3518 81.8873 10.3946 82.1227 10.4482 82.3155C10.5017 82.4976 10.5124 82.6581 10.4589 82.6581C10.4161 82.6581 10.3197 82.4334 10.2554 82.1442C10.1805 81.8658 9.93413 81.3408 9.69852 80.9875C9.4629 80.6234 9.22729 80.1629 9.17372 79.9701C8.98096 79.3276 8.84174 77.9139 8.95953 77.796C9.12018 77.6354 9.37722 77.9351 9.50573 78.4385C9.67709 79.124 9.85917 79.0384 9.76277 78.3206C9.67709 77.571 9.84845 77.5498 10.0091 78.2887C10.0734 78.5991 10.2126 79.2631 10.309 79.7558C10.5124 80.709 10.6303 80.9018 11.6477 81.6945C12.044 82.0048 12.0868 82.0263 11.9368 81.8013C11.4442 81.1053 11.2086 80.6341 11.1443 80.2163C11.1122 79.9701 11.1122 79.7666 11.1657 79.7666C11.305 79.7666 11.1657 76.9926 11.0051 76.5858C10.8766 76.2537 10.8659 76.2429 10.6088 76.4145C10.4375 76.5214 10.3304 76.7249 10.2875 77.0033C10.159 77.7426 9.99839 77.2713 9.98767 76.1573C9.98767 75.4721 10.0305 75.022 10.1269 74.8507C10.2447 74.626 10.2447 74.583 10.0948 74.4974C9.90199 74.3902 9.85917 73.6406 10.0198 73.2123C10.0841 73.0407 10.0734 72.8694 9.97696 72.7088C9.8056 72.3874 9.75206 72.4838 9.60212 73.3836C9.49502 73.9405 9.49502 74.2938 9.60212 74.9579C9.73063 75.7612 9.71992 75.8254 9.53787 75.9645C9.24872 76.1788 9.05593 75.9537 8.90599 75.1936C8.75606 74.4974 8.78817 74.3368 9.04521 74.5403C9.18443 74.6579 9.19515 74.6364 9.14161 74.358C8.98096 73.5979 8.9381 70.7705 9.05593 69.5388C9.13089 68.8319 9.22729 68.2108 9.27011 68.1678C9.31297 68.1252 9.38794 68.5964 9.42005 69.2282C9.45219 69.86 9.53787 70.4276 9.60212 70.4918C9.74134 70.6311 9.74134 69.5388 9.59141 68.682C9.53787 68.3284 9.4629 67.8679 9.43076 67.6644L9.37722 67.2895L9.5593 67.6002C9.70923 67.8786 9.75206 67.8894 9.83774 67.7288C9.89128 67.6324 9.93413 67.3967 9.92342 67.2039C9.9127 67.0111 9.90199 66.3366 9.89128 65.6938C9.89128 64.8265 9.85917 64.5908 9.7842 64.7836C9.67709 65.0298 9.67709 65.0193 9.59141 64.6123C9.47362 64.0017 9.47362 62.2988 9.60212 61.0137C9.70923 59.9426 10.0734 57.6617 10.2126 57.2224L10.2768 57.0084L10.3625 57.2224C10.4161 57.3403 10.4268 57.9935 10.3839 58.6683C10.3411 59.7072 10.3518 59.8785 10.4696 59.7606C10.5874 59.6537 10.6195 59.2037 10.6303 57.8864C10.641 56.023 10.8659 54.7698 11.155 54.8877C11.2514 54.9199 11.4228 54.7057 11.6263 54.2774C11.9368 53.6668 11.9583 53.517 11.969 52.4674C11.9797 50.9466 12.0654 50.4646 12.6009 49.0939C12.9114 48.2797 13.0507 47.7336 13.0721 47.2731C13.0935 46.8875 13.2113 46.3629 13.372 45.9773C13.7789 44.9919 15.2462 42.3573 15.2997 42.5178C15.3318 42.593 15.4603 42.4537 15.5782 42.2074C15.7602 41.8645 16.7991 39.4335 17.281 38.2341C17.3131 38.1592 17.3988 38.1162 17.4738 38.1484C17.5702 38.1803 17.6558 38.0305 17.7415 37.6987C17.8058 37.4307 18.0307 36.8419 18.2342 36.4026C18.6626 35.4816 18.6411 35.2888 18.2128 36.0277C18.0414 36.3169 17.5273 37.0558 17.0561 37.6772C16.5099 38.4054 15.9637 39.2944 15.5353 40.1939C15.1605 40.9543 14.8499 41.5327 14.8499 41.479C14.8499 41.222 15.214 39.862 15.6745 38.3946C16.1029 37.0454 16.2422 36.7347 16.6384 36.2742C17.0025 35.8457 17.0989 35.6529 17.0989 35.3318C17.0989 34.6997 17.3988 33.8432 17.6666 33.7038C17.7951 33.6289 17.9664 33.5003 18.0414 33.4039C18.6304 32.6649 19.1231 31.7866 19.5515 30.7266C20.0441 29.4842 20.9545 28.0383 21.2437 28.0383C21.4792 28.0383 21.1258 28.7879 19.8406 30.9835C19.2623 31.9902 19.0695 32.3865 19.1873 32.408C19.3052 32.4399 19.2195 32.6649 18.8446 33.3504C18.5662 33.8751 18.3948 34.3036 18.4484 34.3571C18.609 34.5069 18.8767 34.2284 19.0267 33.768C19.2195 33.1791 19.5515 32.7184 19.7442 32.7936C19.8513 32.8362 19.9799 32.6757 20.1726 32.2367C20.4404 31.6691 21.4365 30.2873 21.715 30.116C21.7899 30.0733 21.8863 30.1267 21.9397 30.2231C22.0898 30.4801 22.1966 30.4374 22.7643 29.9125C23.043 29.6448 23.3107 29.4305 23.3426 29.4305C23.3856 29.4305 23.2892 29.6021 23.1498 29.8161C23 30.0303 22.8821 30.2873 22.8821 30.3837C22.8714 30.4801 22.5395 30.9621 22.1325 31.4655C21.3721 32.3758 21.2222 32.6864 21.5648 32.622C21.9612 32.5471 24.585 28.3597 25.024 27.128C25.1204 26.8389 25.0885 26.8603 24.6922 27.3101C24.2424 27.8347 24.0604 27.9419 24.0604 27.6742C24.0604 27.5885 23.9317 27.5029 23.7819 27.4814L23.5035 27.4492L23.9102 27.0424C24.1245 26.8281 24.3707 26.6461 24.4567 26.6461C24.5316 26.6461 24.5958 26.5712 24.5958 26.4748C24.5958 26.3891 24.7456 26.0999 24.9172 25.8427C25.0992 25.5857 25.2383 25.3395 25.2383 25.2858C25.2383 25.2431 25.5167 25.0826 25.8489 24.9432C26.1807 24.7934 27.1554 24.2258 28.0122 23.6689C28.8691 23.1117 29.8327 22.5336 30.1434 22.3728C30.7003 22.1051 30.7217 22.1051 30.8611 22.2979C31.0432 22.5441 30.936 22.6193 33.8598 20.3166C36.2267 18.4638 37.9937 17.1572 39.1182 16.4503C40.1571 15.7863 40.2105 15.7649 39.9428 16.0648C39.8037 16.204 39.6966 16.354 39.6966 16.3861C39.6966 16.5253 41.5922 15.7114 42.1276 15.3365C42.4383 15.1223 42.8666 14.7261 43.0808 14.4583C43.6804 13.6979 44.2161 13.1517 44.3125 13.2053C44.3552 13.2374 45.0084 13.066 45.7581 12.8304C46.5185 12.5948 47.2575 12.402 47.3968 12.402C47.5466 12.402 48.35 11.9951 49.1961 11.4917C50.7811 10.5278 51.4343 10.2279 52.7302 9.83169L53.5013 9.59607L54.0048 9.89594C54.4223 10.1423 54.6258 10.1958 55.2149 10.1851C55.804 10.1851 56.0395 10.1209 56.6716 9.79957C57.2819 9.48899 57.7746 9.34974 59.2954 9.0713C60.3235 8.87851 61.5871 8.71786 62.1013 8.69646C63.2043 8.67503 63.7078 8.56793 63.6541 8.40728C63.6329 8.33231 63.4828 8.26806 63.333 8.24663C63.1724 8.22523 63.0438 8.17166 63.0438 8.11812C63.0438 8.03244 64.2217 7.8504 64.5965 7.89322C64.7144 7.90394 65.5286 7.76471 66.4173 7.58264C67.2956 7.40056 68.5699 7.18637 69.2339 7.10069C70.6799 6.90793 73.1751 6.88651 73.2822 7.05787C73.3144 7.12212 73.5606 7.27206 73.8283 7.38985C74.0856 7.49696 74.2676 7.63618 74.2354 7.70043C74.139 7.8504 73.2395 7.81825 73.1431 7.65761C72.8859 7.21852 71.2475 7.03644 69.8016 7.27206C69.159 7.37916 69.0734 7.42199 69.1268 7.60407C69.159 7.73257 69.0626 7.92536 68.8698 8.13955L68.5592 8.46085L69.0411 8.37517C69.3088 8.32163 70.6584 8.3002 72.0398 8.33231C74.2891 8.37517 77.4806 8.37517 79.1083 8.33231C80.4148 8.3002 86.166 9.63892 88.2437 10.4636C88.683 10.6456 89.1327 10.7741 89.2398 10.7741C89.5075 10.7527 91.553 11.8558 91.4781 11.9737C91.4459 12.0272 91.5745 12.1557 91.7673 12.2521C92.2815 12.5091 93.0524 13.0553 92.9989 13.1089C92.9133 13.2053 91.5423 12.8411 91.0925 12.6055C90.8463 12.4877 90.6213 12.4127 90.5891 12.4449C90.5142 12.5306 90.5357 12.5413 91.1567 12.8625C91.7458 13.1731 91.596 13.2374 90.889 12.9911C90.632 12.9054 90.407 12.8411 90.3858 12.8733C90.3644 12.8947 90.9854 13.141 91.7673 13.4195C93.4165 14.0085 93.6522 14.1156 94.1234 14.5333C94.3589 14.7261 94.7445 14.8974 95.2802 15.0152C96.9723 15.4222 98.7501 16.3004 99.7245 17.2107C99.9602 17.4356 100.335 17.7248 100.56 17.8533C100.774 17.9925 100.956 18.1532 100.967 18.2174C100.967 18.2924 101.438 18.6459 102.006 19.0207C102.798 19.5347 102.948 19.6097 102.616 19.3098C102.252 18.9778 102.22 18.935 102.456 18.9993C102.906 19.1171 103.537 19.4812 103.826 19.7704C104.062 19.9953 104.244 20.0488 104.929 20.1131C105.54 20.1666 105.883 20.263 106.247 20.4772C106.868 20.8413 108.839 22.5121 108.999 22.8121C109.106 23.0049 109.085 23.0153 108.86 22.9511C108.732 22.9085 108.1 22.63 107.457 22.3301C106.825 22.0409 106.279 21.8159 106.247 21.8588C106.215 21.8909 106.375 22.0194 106.611 22.1373C107.361 22.5229 109.631 24.4935 109.631 24.7719C109.631 24.8253 109.845 25.0181 110.113 25.179C110.381 25.3503 110.777 25.7036 111.013 25.9606C111.238 26.2175 111.505 26.4318 111.591 26.4318C111.688 26.4318 112.094 26.5604 112.512 26.7102C113.197 26.9675 113.347 27.0851 114.194 27.9956C114.697 28.5525 115.082 29.0022 115.04 29.0022C114.997 29.0022 115.211 29.2699 115.511 29.6021C116.239 30.3944 116.207 30.5872 115.468 29.859C115.147 29.5376 114.879 29.3236 114.879 29.3878C114.879 29.6125 115.371 30.2339 115.725 30.4482C115.918 30.5657 116.389 30.9406 116.785 31.2727C117.556 31.9475 117.717 32.0224 117.61 31.6476C117.546 31.4225 117.546 31.4225 117.76 31.6795C117.878 31.8296 118.178 32.3116 118.413 32.7613C118.649 33.2111 118.906 33.6396 119.002 33.7145C119.259 33.9288 119.195 34.0464 118.895 33.9073C118.745 33.8432 118.606 33.8109 118.574 33.8432C118.542 33.8751 118.756 34.3037 119.066 34.7961C119.987 36.2954 119.923 36.2205 120.03 36.06C120.073 35.9743 120.094 35.7923 120.052 35.6421C119.987 35.353 120.041 35.3852 120.448 35.9101C120.673 36.2098 120.684 36.2205 120.609 35.9636C120.502 35.578 121.679 37.3665 122.172 38.3412C122.397 38.8017 122.59 39.2514 122.59 39.3371C122.59 39.4335 122.729 39.7119 122.9 39.9584C123.061 40.2046 123.629 41.1256 124.143 42.0147C124.657 42.8927 125.257 43.8888 125.471 44.2099C125.803 44.7242 125.856 44.7671 125.889 44.5529C125.91 44.4135 125.856 44.2207 125.771 44.1243C125.685 44.0279 125.482 43.6853 125.321 43.3639C125.107 42.9249 125.074 42.807 125.203 42.85C125.342 42.9034 125.374 42.85 125.374 42.5823C125.374 42.2609 125.385 42.2501 125.578 42.4322C125.899 42.7321 126.51 44.0494 126.97 45.4523C127.377 46.727 127.913 47.9264 128.009 47.8192C128.041 47.7873 127.838 47.0269 127.559 46.1271C126.895 43.9315 126.199 42.1752 126.06 42.3146C126.028 42.3465 126.081 42.5286 126.178 42.7106C126.274 42.9034 126.306 43.032 126.253 42.989C126.081 42.8822 124.518 40.8045 124.518 40.6866C124.518 40.6224 124.282 40.0868 123.982 39.4976C123.693 38.9088 123.447 38.4054 123.447 38.3731C123.447 38.1484 123.736 38.5874 124.196 39.4976C124.486 40.076 124.775 40.5795 124.839 40.6224C125 40.7188 124.818 40.2795 124.132 38.9088C123.586 37.827 123.2 37.1952 123.404 37.7199C123.597 38.2126 123.168 37.6557 121.797 35.5887C120.994 34.3786 120.041 33.029 119.698 32.59C119.345 32.1507 119.056 31.7332 119.056 31.6691C119.056 31.6046 118.884 31.2727 118.681 30.9298C118.477 30.5872 118.306 30.2554 118.306 30.1697C118.306 29.9769 118.884 30.555 119.12 30.9943C119.227 31.1978 119.366 31.3584 119.409 31.3584C119.559 31.3584 119.42 31.1014 118.788 30.1802C118.167 29.3129 117.181 28.3597 116.882 28.3597C116.721 28.3597 114.665 26.2712 114.665 26.0999C114.665 26.0462 114.504 25.9391 114.322 25.8534C113.926 25.6714 111.688 23.5937 111.784 23.4973C111.891 23.3797 113.722 24.8253 114.579 25.7036C115.029 26.1641 115.479 26.5389 115.564 26.5389C115.843 26.5389 117.535 28.0383 119.216 29.7734C121.048 31.6476 121.476 32.183 122.322 33.6074C122.665 34.1643 123.147 34.9247 123.404 35.2995C123.661 35.6744 123.875 36.0065 123.875 36.0492C123.875 36.1778 126.103 39.4976 126.189 39.4976C126.22 39.4976 126.189 39.4015 126.124 39.2729C126.049 39.155 126.017 39.0267 126.049 39.0052C126.103 38.9408 127.11 40.4831 127.366 41.04C127.516 41.3506 127.602 41.404 127.795 41.3614C127.998 41.3077 128.084 41.3826 128.362 41.8753C128.545 42.186 128.823 42.8285 128.973 43.2997C129.273 44.178 129.637 45.0133 129.712 44.9384C129.787 44.8635 129.476 43.2997 129.348 43.0428C129.273 42.9034 129.026 42.5074 128.802 42.1645C128.245 41.3077 127.752 39.8832 127.634 38.8232C127.581 38.3412 127.549 37.9234 127.57 37.9019C127.591 37.8807 127.763 37.9771 127.945 38.1054C128.127 38.2341 128.298 38.3197 128.33 38.2875C128.438 38.1803 128.041 37.5486 127.484 36.949C126.585 35.9636 126.124 35.3637 126.124 35.1817C126.124 35.0853 125.985 34.8498 125.814 34.657C125.471 34.2607 124.582 32.4295 124.732 32.4295C124.785 32.4295 124.957 32.6115 125.117 32.8255C125.289 33.0505 125.46 33.2755 125.503 33.3397C125.707 33.5752 125.074 32.2794 124.25 30.7693C123.04 28.5525 122.59 27.6527 122.59 27.4065C122.59 27.1066 120.523 24.5469 120.212 24.4612C120.073 24.429 119.859 24.3971 119.73 24.3971C119.602 24.3971 119.281 24.2258 119.013 24.0222C118.735 23.8187 118.488 23.6474 118.456 23.6474C118.381 23.6474 119.377 24.9432 119.591 25.1252C120.009 25.4786 120.148 25.4574 119.805 25.093C119.538 24.8038 119.495 24.7077 119.645 24.7719C119.763 24.8146 119.998 24.879 120.169 24.911C120.684 24.9966 121.744 26.5067 122.654 28.4453C122.911 29.0022 123.115 29.4842 123.093 29.4949C123.072 29.5161 122.794 29.2699 122.483 28.9485C122.161 28.6274 121.84 28.3597 121.776 28.3597C121.701 28.3597 121.53 28.1988 121.401 28.006C121.262 27.824 120.801 27.2886 120.373 26.8389C119.945 26.3784 119.591 25.9606 119.591 25.8964C119.591 25.8322 119.195 25.3715 118.713 24.8683C118.22 24.3648 117.803 23.9043 117.781 23.8294C117.728 23.6474 116.999 22.8977 116.882 22.8977C116.828 22.8977 116.807 22.9726 116.85 23.0583C116.924 23.2725 116.85 23.2618 116.41 22.9941C116.004 22.7369 115.307 21.8802 115.307 21.6231C115.307 21.5268 115.404 21.3875 115.532 21.3126C115.725 21.1841 115.789 21.1948 115.993 21.3768C116.443 21.7945 117.128 22.1692 117.289 22.1051C117.524 22.0194 117.76 22.1588 118.584 22.8547C119.099 23.294 119.291 23.4009 119.334 23.2833C119.42 23.069 119.152 22.5978 118.424 21.6981C117.578 20.6593 117.032 20.1345 117.053 20.3915C117.064 20.5094 116.978 20.6057 116.807 20.6486C116.592 20.7021 116.539 20.7771 116.55 21.0448L116.571 21.3768L115.907 20.9163C115.553 20.67 114.75 20.2095 114.129 19.8882C113.187 19.4062 112.844 19.1492 111.987 18.3031C111.259 17.5856 110.788 17.2214 110.327 17.0072C109.727 16.7288 108.271 15.5507 108.389 15.4329C108.475 15.3472 109.513 15.9042 110.574 16.6003C111.12 16.9644 111.591 17.2322 111.623 17.2C111.645 17.1679 111.398 16.8894 111.055 16.5789C110.616 16.1826 110.017 15.8078 108.935 15.283C107.286 14.4797 106.343 13.8907 105.99 13.4409C105.626 12.9804 105.936 13.0768 107.093 13.7943C108.153 14.4476 108.924 14.8653 109.053 14.8653C109.096 14.8653 108.806 14.5654 108.41 14.212C107.586 13.4516 107.543 13.2588 108.335 13.8907C108.635 14.1263 109.256 14.544 109.717 14.8118C110.584 15.3365 111.473 16.0434 111.248 16.0434C111.109 16.0434 111.409 16.5789 111.634 16.7181C111.976 16.9323 113.219 17.9818 114.386 19.0207C115.082 19.6526 115.693 20.1773 115.746 20.1988C116.26 20.3915 114.161 18.1318 112.823 17.0501C112.373 16.686 111.602 16.0327 111.109 15.615C109.878 14.544 109.171 14.0085 108.293 13.4944C107.414 12.9804 106.782 12.4663 107.114 12.5413C107.232 12.5734 107.414 12.6269 107.521 12.6698C107.885 12.8197 107.693 12.552 107.178 12.2093C106.739 11.9094 106.622 11.8665 106.45 11.9737C106.279 12.0807 106.161 12.0593 105.765 11.8665C104.908 11.4275 103.591 10.5278 102.67 9.72461C101.47 8.68575 100.817 8.28949 99.7352 7.90394C99.2428 7.72186 97.6575 7.10069 96.2226 6.50096C93.2559 5.26934 90.5464 4.20905 90.1074 4.10194C89.9358 4.05912 89.8182 3.95201 89.8182 3.84493C89.8182 3.49149 89.5825 3.40581 88.6615 3.40581C88.1688 3.40581 87.3227 3.35227 86.7658 3.28802C85.427 3.12737 85.2023 3.20234 86.1018 3.50221C86.5089 3.64143 86.8088 3.76996 86.7873 3.80208C86.6909 3.88776 84.1097 3.49149 83.4565 3.28802C82.9426 3.13808 82.8032 3.12737 82.6853 3.23448C82.5355 3.3951 82.1499 3.3737 80.1793 3.12737C79.5046 3.04169 78.7979 2.97744 78.6051 2.97744C78.4123 2.97744 78.2515 2.9239 78.2515 2.87033C78.2515 2.80607 78.0909 2.68828 77.9089 2.6026C77.577 2.46335 77.6304 2.45267 78.7871 2.45267C79.4619 2.45267 80.6076 2.51692 81.3253 2.58117C82.0535 2.65614 82.5997 2.67757 82.557 2.64543C82.332 2.42052 80.4363 2.20634 77.9303 2.10994C76.431 2.0564 74.9743 1.97072 74.6959 1.91715C74.4067 1.87433 74.182 1.8529 74.182 1.87433C74.182 1.89575 74.396 2.01355 74.664 2.13137C74.9851 2.27059 75.4993 2.36698 76.1418 2.40981C76.8166 2.45267 77.2448 2.53832 77.5018 2.67757L77.8766 2.88104L77.5018 2.81679C76.645 2.65614 75.5742 2.55974 74.6959 2.54903C74.182 2.54903 73.5499 2.48478 73.3037 2.3991C73.0467 2.31341 72.329 2.21705 71.6972 2.17419C70.5405 2.09923 70.3584 2.02426 70.6691 1.71368C70.9583 1.42452 70.5835 1.34956 69.1805 1.39238C68.0238 1.42452 67.7346 1.46735 67.3063 1.68154C66.91 1.87433 66.6957 1.90647 66.3639 1.8529C65.9246 1.77793 65.8819 1.7351 66.021 1.52089C66.1174 1.36024 67.9059 0.974689 68.9233 0.878324C69.5016 0.824755 69.7266 0.846182 69.9194 0.964005C70.2194 1.15677 71.8258 1.29599 72.3612 1.17819C72.6182 1.12462 72.779 1.00683 72.8754 0.803356C72.9715 0.610566 73.1324 0.48206 73.3359 0.439204C73.5072 0.407092 73.6356 0.353523 73.6036 0.332126C73.5821 0.310698 73.1109 0.214303 72.5648 0.139336C71.3224 -0.0534245 69.1056 -0.0427404 67.7668 0.150049ZM68.6129 4.4661C68.1951 4.60532 68.0238 4.70171 68.0345 4.83022C68.0453 4.92661 68.0453 5.0123 68.0345 5.0123C68.0345 5.0123 67.6167 5.08726 67.1135 5.17294C66.1389 5.34431 63.1509 5.38713 63.5258 5.22648C63.6436 5.17294 63.9006 5.13009 64.0934 5.13009C64.5539 5.11937 64.436 4.90519 63.9648 4.90519C63.5472 4.90519 61.0947 5.3657 60.2698 5.60132C59.938 5.69771 59.5739 5.86908 59.456 5.97615C59.3381 6.07255 59.0277 6.19037 58.7597 6.22248C58.2029 6.29745 56.9393 6.19037 56.9393 6.08326C56.9393 6.04044 57.0891 5.94404 57.2819 5.85836C58.3422 5.41927 55.9216 5.94404 53.8335 6.59735C53.2766 6.7794 52.4625 7.02573 52.0449 7.15423C51.6164 7.27206 51.263 7.4327 51.263 7.48624C51.263 7.5505 51.3272 7.58264 51.4021 7.5505C51.4881 7.51838 52.0984 7.46482 52.7731 7.4327C53.9618 7.35774 53.9833 7.36845 53.7371 7.5505C53.5977 7.65761 53.3085 7.90393 53.0945 8.10741C52.8803 8.3002 52.5374 8.54653 52.3341 8.65361C51.9593 8.8464 51.1881 9.03916 51.0168 8.99633C50.9739 8.98562 50.5561 9.0713 50.0848 9.18909C49.6243 9.30691 49.1639 9.40331 49.0567 9.40331C48.8854 9.40331 48.8854 9.3926 49.0567 9.19981C49.2388 8.99633 49.2283 8.99633 48.8747 9.02844C48.5106 9.06059 46.6898 9.76743 46.4973 9.94951C46.3257 10.1102 46.6042 10.0566 47.4076 9.76743C47.8358 9.6175 48.1999 9.51039 48.2214 9.54253C48.3178 9.62821 47.3646 10.1209 45.7474 10.8277C44.8694 11.2133 43.5947 11.7702 42.9307 12.07C41.8062 12.5734 40.6817 12.9697 39.6321 13.2481C38.9362 13.4302 38.4757 13.7943 38.4327 14.1906C38.39 14.6511 37.9615 15.0045 36.6015 15.7114C35.7766 16.1504 35.434 16.3968 35.252 16.6753C35.1234 16.8894 34.9094 17.1572 34.7808 17.2643C34.6629 17.3821 34.5557 17.5534 34.5557 17.6498C34.5557 17.7569 34.288 18.0033 33.9454 18.2389C33.2492 18.6887 32.8421 19.0314 32.8421 19.1706C32.8421 19.3634 33.0886 19.2242 34.1809 18.3995C35.1878 17.6391 35.734 17.3714 35.734 17.6177C35.734 17.6713 35.5519 17.8533 35.3376 18.0461C35.1126 18.2389 34.995 18.3888 35.0699 18.3995C35.1449 18.3995 35.5946 18.0247 36.0873 17.5534C36.9975 16.686 37.544 16.3218 37.8543 16.3861C37.983 16.4182 37.8866 16.5146 37.5652 16.6753C37.2975 16.8145 36.8155 17.2 36.4729 17.532C35.7555 18.2389 34.995 18.8922 33.9669 19.6847C33.5599 20.006 33.0457 20.413 32.8317 20.6057C32.4246 20.9592 32.0175 21.1412 31.8997 21.0341C31.8677 20.9913 32.1677 20.6164 32.5852 20.1988C33.3993 19.3634 33.3241 19.3313 32.4031 20.1345C32.0713 20.413 31.7713 20.6486 31.7284 20.6486C31.6212 20.6486 31.6535 20.1131 31.7713 19.8882C31.9104 19.6526 30.5289 20.4879 30.0362 20.9484C29.8649 21.0984 29.7363 21.1626 29.7363 21.0984C29.7363 20.852 29.4901 20.9699 28.6014 21.6125C27.5195 22.405 27.1554 22.5336 27.8195 21.9123C28.4298 21.334 29.7363 20.4237 30.7003 19.9096C31.0966 19.6954 31.9426 19.1706 32.5852 18.7422C33.5169 18.1103 33.7953 17.864 34.0418 17.4356C34.2131 17.1358 34.3203 16.9002 34.2988 16.9002C34.2666 16.9002 33.7741 17.2643 33.2065 17.7141C32.5425 18.2282 32.1139 18.4959 32.0068 18.4531C31.8997 18.4102 31.6535 18.5709 31.3216 18.9029C31.0432 19.1813 30.8074 19.3634 30.8074 19.3206C30.8074 19.1599 31.7928 17.8319 32.3497 17.2428C32.6389 16.943 32.8209 16.686 32.7565 16.686C32.6923 16.686 32.1889 16.9858 31.6427 17.35C30.9253 17.8212 30.015 18.6351 28.3978 20.2202C27.1662 21.4304 25.9772 22.5441 25.774 22.6942C25.5704 22.8332 24.7456 23.5937 23.9532 24.3756C22.4646 25.8534 21.3079 26.8496 20.344 27.4599C19.6907 27.8885 18.5662 28.4024 18.6197 28.2526C18.6411 28.1988 18.9624 27.7172 19.3373 27.1815C19.9263 26.3461 20.0655 26.2071 20.269 26.2605C20.5261 26.3247 21.1793 25.6287 23.3534 22.9511C24.7885 21.1841 25.956 19.9096 27.1877 18.7744C28.3978 17.6498 28.7938 17.4356 27.8621 18.3995C27.5088 18.7636 27.316 19.0207 27.4339 18.9564C27.7016 18.8172 28.1513 18.3352 28.9225 17.3607C29.2546 16.9323 29.7578 16.4289 30.0362 16.2468C30.3362 16.0327 30.4648 15.9791 30.3576 16.1183C30.2505 16.2361 30.1649 16.354 30.1649 16.3754C30.1649 16.5039 31.5678 15.7328 32.0925 15.3044C33.6885 14.0299 35.9268 12.7448 39.2146 11.2239C40.3925 10.6778 41.4206 10.1423 41.5066 10.0245C41.7206 9.73529 42.8558 8.9749 43.0808 8.9749C43.2307 8.9749 43.2414 8.99633 43.1128 9.14627C42.9844 9.30692 42.9952 9.31763 43.2307 9.23195C43.6377 9.09273 44.5372 9.11412 44.5909 9.27477C44.6229 9.36045 44.1839 9.62821 43.3808 9.99233C42.6953 10.3243 42.1491 10.6135 42.1811 10.6456C42.2882 10.742 43.9162 10.2387 44.7088 9.86383C45.2227 9.62821 45.5226 9.41402 45.5868 9.25338C45.7154 8.92136 48.6607 7.04715 49.6031 6.70443C50.5775 6.35102 52.1091 5.93333 52.184 6.0083C52.2162 6.04044 52.6338 5.90119 53.105 5.69771C53.7156 5.44067 54.0048 5.3657 54.1012 5.44067C54.3796 5.67629 55.4719 5.67629 56.4573 5.45138C56.9927 5.33359 58.1709 5.06583 59.0812 4.85165C60.1734 4.60532 61.1266 4.45538 61.8551 4.42324C62.4654 4.39113 63.0008 4.34827 63.0223 4.31616C63.0545 4.28402 64.4575 4.26259 66.1389 4.27331C69.202 4.28402 69.202 4.28402 68.6129 4.4661ZM76.2167 5.54778C77.7161 5.61203 80.0295 5.74054 81.3573 5.82622C83.617 5.98687 83.9062 6.02972 86.134 6.57592C88.5758 7.16495 89.1861 7.34702 88.8113 7.35774C88.4153 7.37916 88.8435 7.65761 89.6362 7.89322C90.0537 8.02173 90.8463 8.27877 91.371 8.45013C91.9064 8.6215 92.5492 8.79283 92.7954 8.81425C93.3523 8.86782 93.9521 9.04987 94.2947 9.26406C94.4875 9.38188 94.5198 9.44613 94.4234 9.56396C94.3377 9.67104 94.3911 9.746 94.6588 9.91737C95.0444 10.153 97.2078 11.2775 97.4435 11.3632C97.5184 11.3846 97.5611 11.4382 97.5292 11.4703C97.4969 11.5024 97.1758 11.4703 96.8329 11.3846C95.9549 11.1811 95.8586 11.1811 96.1474 11.4382L96.4047 11.6524L96.137 11.5988C95.9869 11.5667 95.3229 11.4275 94.6481 11.2775C93.2344 10.9669 93.2025 10.9669 93.5988 11.1811C93.7594 11.2668 94.3377 11.4382 94.8839 11.5452C96.0298 11.7916 96.9935 12.1557 96.9935 12.3485C96.9935 12.4127 96.8759 12.5306 96.7258 12.5948C96.1474 12.8625 93.5236 12.0486 94.0056 11.7488C94.2091 11.6309 94.0485 11.5024 93.4594 11.3418C93.1917 11.2668 92.7098 11.0419 92.3883 10.8384C92.0028 10.6028 91.5211 10.4315 90.9747 10.3243C90.5142 10.2387 90.0322 10.1102 89.9039 10.0352C89.5932 9.87454 89.1754 9.49967 89.1754 9.38188C89.1754 9.32834 89.2825 9.2962 89.4219 9.31763C89.6039 9.33903 89.6466 9.30692 89.6254 9.14627C89.5932 8.96419 89.6362 8.95348 90.0003 9.00704L90.407 9.0713L90.0966 8.89994C89.9253 8.81426 89.3577 8.69646 88.8435 8.65361C87.8476 8.57864 87.6334 8.48225 87.5262 8.0753C87.4728 7.86108 87.237 7.74329 85.8341 7.28277C84.9346 6.9829 83.7886 6.64018 83.2959 6.51167C82.2463 6.24391 81.0362 6.08326 81.0362 6.21177C81.0362 6.25463 81.1003 6.29745 81.1752 6.29745C81.2504 6.30817 81.229 6.36174 81.1111 6.44739C80.9398 6.57592 80.9613 6.59735 81.3253 6.67232C81.8073 6.75797 82.4821 7.02573 82.4069 7.10069C82.3857 7.13283 81.4966 7.03644 80.447 6.88651C78.2515 6.57592 77.973 6.56521 78.7871 6.82225L79.3763 7.0043L78.1446 7.07927C76.431 7.18637 75.5957 7.17566 74.4604 7.03644C73.293 6.89722 72.5648 6.72586 72.6289 6.61875C72.6612 6.56521 73.036 6.50095 73.475 6.4581C74.0749 6.40456 74.3318 6.41527 74.5676 6.54378C74.8245 6.683 74.9743 6.683 75.3384 6.58664C75.5849 6.52238 75.7885 6.4367 75.7885 6.39385C75.7885 6.35102 75.2208 6.21177 74.5353 6.08326C71.9971 5.61203 71.1296 5.30145 72.6397 5.38713C73.1002 5.41927 74.7174 5.49424 76.2167 5.54778ZM15.7709 35.803C15.4389 36.5419 15.0748 37.5059 14.957 37.9234C14.7 38.8551 14.3251 39.6263 13.7147 40.5365C13.4576 40.9009 13.2648 41.2113 13.297 41.2113C13.3827 41.2113 13.0078 42.3358 12.483 43.6211C12.2046 44.3278 11.894 45.2384 11.7976 45.6344C11.5727 46.5876 11.1229 47.5408 10.5124 48.3227C10.1911 48.7402 9.95553 49.2007 9.8056 49.6934C9.5593 50.4968 9.59141 50.7323 9.86988 50.2396L10.0412 49.9399L9.97696 50.4753C9.88056 51.2357 8.65966 56.0122 8.53116 56.1408C8.3598 56.3121 8.40262 55.9907 8.63824 55.284C8.91671 54.4806 8.86314 54.181 8.55256 54.7806C8.42405 55.0378 8.28483 55.2411 8.25269 55.2411C8.15629 55.2411 8.31694 54.0739 8.45619 53.7739C8.59541 53.4525 8.45619 53.3027 8.25269 53.5704C8.11347 53.7739 8.10275 53.7632 8.08133 53.4099C8.0385 52.5423 8.32765 51.5357 8.95953 50.3255C9.17372 49.9184 9.20586 49.9399 9.17372 50.5287C9.16303 50.7323 9.18443 50.8717 9.21657 50.8394C9.29154 50.7645 9.92342 48.6653 9.88056 48.6334C9.85917 48.6119 9.76277 48.7724 9.64495 48.976C9.44148 49.3616 9.33437 49.415 9.09875 49.2652C8.99167 49.2007 9.12018 48.719 9.59141 47.3053C10.234 45.3667 10.491 44.7883 11.0158 44.0175C11.3157 43.5889 11.637 43.4176 11.637 43.696C11.6477 43.8351 12.4081 42.1003 12.558 41.6183C12.6223 41.3826 12.6223 41.3826 12.4188 41.5542C12.301 41.6613 12.1403 41.747 12.044 41.747C11.7976 41.747 11.5727 42.0681 11.3692 42.6787C11.1979 43.2141 10.9944 43.4283 10.9944 43.0962C10.9944 42.8177 11.2086 42.3573 11.8726 41.1901C12.4616 40.1512 12.558 40.0441 12.7722 40.0975C13.0399 40.1724 13.2006 39.9262 13.2649 39.3263C13.3184 38.8766 13.0828 38.9088 12.7508 39.3801C12.5794 39.6155 12.4081 39.8191 12.376 39.8191C12.226 39.8191 13.1578 37.3987 13.5969 36.6168C14.0788 35.7708 14.2823 35.621 14.5714 35.9101C14.7321 36.0814 14.7642 36.0707 14.957 35.8349C15.2676 35.4708 15.214 35.7066 14.8392 36.3706C14.6571 36.6917 14.5393 36.9702 14.5607 36.9917C14.6571 37.0881 15.1391 36.4026 15.5996 35.5246C16.0922 34.5606 16.2422 34.3248 16.3171 34.4001C16.3493 34.4212 16.0922 35.0533 15.7709 35.803ZM7.62081 56.205C7.70649 56.3336 7.5887 57.1797 7.46016 57.394C7.28883 57.6509 7.24598 57.4367 7.31023 56.7619C7.3852 56.1301 7.47088 55.9695 7.62081 56.205ZM6.0679 60.2748C6.24998 61.7207 6.44274 63.0914 6.49631 63.3272C6.6141 63.8196 6.6141 66.2402 6.49631 67.1827C6.44274 67.6324 6.41063 67.172 6.39991 65.6296C6.37848 62.8022 6.23926 62.5023 5.7145 64.1837C5.56456 64.6549 5.31823 65.6189 5.1683 66.3259C5.00765 67.0326 4.85772 67.6539 4.83629 67.7181C4.6435 68.1356 5.09333 62.1275 5.37177 60.4891C5.45745 59.9963 5.48959 59.5678 5.43602 59.5251C5.3932 59.4929 5.3932 59.0966 5.43602 58.6468C5.51099 57.8971 5.60739 57.5223 5.69307 57.6187C5.7145 57.6402 5.88583 58.8396 6.0679 60.2748ZM6.91397 71.7022C6.97825 71.8735 7.10676 72.334 7.19244 72.7515C7.28883 73.1586 7.50302 73.919 7.67438 74.4225C8.00636 75.3864 8.25269 77.3033 8.02779 77.1642C7.96353 77.1212 7.88857 76.875 7.86714 76.6178C7.83503 76.3393 7.66367 75.9003 7.44948 75.5685C7.13887 75.065 7.09604 74.9152 7.10676 74.3261C7.11747 73.8441 7.08533 73.662 6.99965 73.694C6.92468 73.7155 6.86043 73.8868 6.839 74.0691C6.79617 74.5081 6.64624 74.5081 6.56056 74.0796C6.47488 73.6298 6.47488 71.5736 6.57127 71.4879C6.69978 71.3486 6.79617 71.413 6.91397 71.7022ZM2.63008 78.5349V78.7492L2.53368 78.5349C2.48014 78.417 2.43732 78.2457 2.43732 78.1601C2.4266 78.021 2.43732 78.021 2.53368 78.1601C2.58725 78.2457 2.63008 78.417 2.63008 78.5349ZM8.57398 85.3998C8.67038 85.4428 8.74535 85.5926 8.74535 85.7639C8.74535 86.2352 8.56327 86.2352 8.44548 85.7639C8.39191 85.5285 8.3598 85.3357 8.37051 85.3357C8.39191 85.3357 8.47759 85.3679 8.57398 85.3998ZM10.2233 89.6409C10.5874 90.4228 11.1443 91.6864 11.4763 92.4576C11.8083 93.218 12.3866 94.4496 12.7722 95.1778C13.1471 95.9063 13.4576 96.5596 13.4576 96.6452C13.4576 96.9986 13.2434 96.7201 12.6009 95.5527C12.2153 94.8674 11.894 94.3532 11.8833 94.407C11.7548 94.7925 14.0895 98.8086 14.4536 98.8408C14.5286 98.8513 14.6464 98.862 14.7214 98.8728C14.7964 98.8728 14.9998 99.1297 15.1712 99.4404C15.4389 99.9009 15.4604 99.9973 15.3211 100.051C15.2247 100.083 15.0748 100.072 14.9784 100.019C14.7 99.8689 13.6397 98.723 13.3612 98.2625C12.9757 97.6411 12.9757 97.8661 13.3505 98.6158C13.5326 98.9799 13.629 99.2476 13.5647 99.2049C13.4041 99.1085 13.0399 98.3481 12.0975 96.2167C11.1657 94.0855 10.8659 93.3681 10.9408 93.3681C10.973 93.3681 11.0908 93.5609 11.2086 93.8071C11.3371 94.0533 11.4656 94.2249 11.487 94.1927C11.5192 94.1604 11.155 93.2072 10.6838 92.0615C9.96624 90.3264 9.38794 88.645 9.38794 88.3129C9.38794 87.9918 9.65566 88.42 10.2233 89.6409ZM24.5316 106.209C24.7029 106.381 24.7778 106.541 24.7244 106.584C24.6065 106.659 23.9532 106.156 23.9532 105.995C23.9532 105.802 24.2424 105.909 24.5316 106.209Z" fill="#3296FA"/>
<path d="M50.0304 8.06449C49.5914 8.25725 49.9982 8.26796 50.5124 8.06449C50.8443 7.93595 50.855 7.91455 50.6195 7.91455C50.4694 7.91455 50.2125 7.97881 50.0304 8.06449Z" fill="#3296FA"/>
<path d="M43.1012 10.7424C42.5121 11.053 42.3727 11.2243 42.7156 11.2243C42.8547 11.2243 43.1546 11.053 43.3904 10.8495C43.8935 10.4211 43.7971 10.3783 43.1012 10.7424Z" fill="#3296FA"/>
<path d="M39.5899 12.3052C39.033 12.5301 38.4762 12.7229 38.3583 12.7229C38.1655 12.7229 35.413 14.0723 35.413 14.1687C35.413 14.1901 35.5094 14.1794 35.6273 14.1473C36.0236 14.0402 35.8416 14.2865 35.1131 14.8434C34.3742 15.4003 34.1495 15.486 33.9567 15.2932C33.8815 15.2182 33.6245 15.3468 33.1855 15.6788C32.8214 15.9465 32.5215 16.1928 32.5215 16.2143C32.5215 16.2892 32.9286 16.0536 33.0035 15.9358C33.1213 15.743 33.2819 15.8287 33.2177 16.0429C33.1213 16.3321 33.1855 16.3213 33.7746 15.893C34.5135 15.3682 34.8991 15.1968 35.1988 15.2504C35.3811 15.2932 35.6915 15.1647 36.1842 14.8755C36.5805 14.6292 36.9231 14.4364 36.9553 14.4364C36.9873 14.4364 37.2445 14.2758 37.523 14.083C37.8121 13.8795 38.5726 13.3976 39.2258 13.012C41.2498 11.8018 41.357 11.5769 39.5899 12.3052Z" fill="#3296FA"/>
<path d="M24.6468 22.6506C24.2186 22.8756 23.8438 23.2182 23.8438 23.4003C23.8438 23.6468 23.9936 23.5611 24.54 23.0043C25.1181 22.4151 25.1181 22.3937 24.6468 22.6506Z" fill="#3296FA"/>
<path d="M21.4468 26.0251C21.2969 26.2175 21.2005 26.3891 21.2328 26.4211C21.2755 26.4748 21.522 26.1964 21.7147 25.8642C21.8861 25.5643 21.7359 25.6499 21.4468 26.0251Z" fill="#3296FA"/>
<path d="M76.3223 6.72577C76.3223 6.77931 76.5258 6.83288 76.7828 6.82217C77.1683 6.81146 77.1898 6.80074 76.9648 6.72577C76.5792 6.59727 76.3223 6.59727 76.3223 6.72577Z" fill="#3296FA"/>
<path d="M93.4043 10.2164C93.629 10.452 94.6037 10.859 94.7108 10.7519C94.7535 10.7198 93.3183 9.93799 93.2115 9.93799C93.1685 9.93799 93.2649 10.0665 93.4043 10.2164Z" fill="#3296FA"/>
<path d="M13.8024 38.7695C13.5025 39.2514 13.2026 40.0333 13.2883 40.1082C13.3204 40.1405 13.5239 39.7976 13.7381 39.3478C14.1344 38.4695 14.1772 38.1699 13.8024 38.7695Z" fill="#3296FA"/>
<path d="M76.4296 0.685069C76.2795 0.760037 75.8405 0.856432 75.455 0.899258C75.0586 0.931399 74.6731 1.00637 74.5981 1.05991C74.2878 1.2527 74.6519 1.28481 75.6263 1.1563C76.1831 1.08133 76.8152 1.04919 77.0188 1.08133C77.4363 1.14559 77.4255 1.05991 76.9865 0.749323C76.74 0.577961 76.6651 0.567277 76.4296 0.685069Z" fill="#3296FA"/>
<path d="M55.2249 1.26348C50.7376 2.02386 47.5139 2.73071 47.5139 2.96632C47.5139 3.00915 47.6211 3.10554 47.7601 3.15908C47.9852 3.26619 47.9637 3.28762 47.4068 3.55535C46.6786 3.89807 46.4966 3.90879 46.6571 3.63031C46.9356 3.10554 45.9716 3.30905 45.1793 3.9409C44.8901 4.17651 44.6117 4.3693 44.5687 4.3693C44.4615 4.3693 43.0156 5.32248 43.0156 5.39745C43.0156 5.4617 43.3478 5.29034 43.8298 4.95833C44.2153 4.70131 45.3291 4.40144 45.4577 4.52995C45.5004 4.57278 45.3613 4.74414 45.1578 4.9155C44.9543 5.07615 44.8256 5.22608 44.8686 5.22608C45.0292 5.22608 45.5753 4.90479 45.661 4.75485C45.7039 4.67989 46.1859 4.47641 46.7106 4.31576C47.2462 4.16583 48.2099 3.74814 48.8527 3.40541C50.5553 2.51652 52.3546 1.98104 53.297 2.08812C53.6719 2.13097 54.0789 2.04529 55.1178 1.70257C56.5315 1.24205 57.6133 1.04926 57.7309 1.24205C57.7631 1.3063 57.5918 1.38127 57.2919 1.42412C56.3387 1.56334 54.1538 2.34516 54.1538 2.53792C54.1538 2.58077 54.5931 2.50581 55.1393 2.36659C55.6854 2.22734 56.7777 2.03458 57.5811 1.93818C58.3734 1.84179 59.0482 1.74542 59.0697 1.72399C59.1019 1.70257 59.0162 1.61688 58.8876 1.52049C58.5877 1.3063 58.5877 1.19922 58.9306 0.888639C59.1019 0.727991 59.1553 0.620882 59.0697 0.631596C58.984 0.631596 57.2596 0.920751 55.2249 1.26348Z" fill="#3296FA"/>
<path d="M61.2234 0.835372C61.1056 0.91034 61.17 0.942481 61.47 0.942481C61.6839 0.942481 61.866 0.888942 61.866 0.835372C61.866 0.696152 61.4377 0.696152 61.2234 0.835372Z" fill="#3296FA"/>
<path d="M50.8326 2.97723C50.7469 3.03076 50.7257 3.0843 50.7792 3.0843C50.8433 3.0843 50.9612 3.03076 51.0469 2.97723C51.1325 2.92369 51.1647 2.87012 51.1006 2.87012C51.0469 2.87012 50.9185 2.92369 50.8326 2.97723Z" fill="#3296FA"/>
<path d="M66.9557 7.91476C66.8381 7.95758 66.5489 8.00044 66.3239 8.00044C66.0028 8.01112 65.9276 8.04326 66.0132 8.12895C66.1526 8.26817 67.3305 8.16109 67.3305 8.01112C67.3305 7.86119 67.1807 7.81836 66.9557 7.91476Z" fill="#3296FA"/>
<path d="M88.1891 11.192C88.2642 11.2242 88.3609 11.2135 88.3932 11.1813C88.436 11.1491 88.3717 11.1169 88.2535 11.1276C88.1356 11.1276 88.1032 11.1598 88.1891 11.192Z" fill="#3296FA"/>
<path d="M50.7699 11.5662L50.5664 11.8125L50.8129 11.609C51.0376 11.4162 51.1021 11.3306 51.0164 11.3306C50.995 11.3306 50.8878 11.4377 50.7699 11.5662Z" fill="#3296FA"/>
<path d="M87.9843 12.0803C88.252 12.1982 88.5412 12.2838 88.6268 12.2624C88.8304 12.2089 88.3165 11.984 87.8345 11.909C87.5668 11.8661 87.588 11.8983 87.9843 12.0803Z" fill="#3296FA"/>
<path d="M25.8057 14.8756C25.2274 15.379 25.0453 15.6575 25.5165 15.3254C25.8702 15.0684 26.4912 14.4365 26.3841 14.4365C26.3519 14.4365 26.0949 14.64 25.8057 14.8756Z" fill="#3296FA"/>
<path d="M111.023 15.1325C111.023 15.186 111.944 15.8286 112.03 15.8286C112.212 15.8286 112.041 15.6358 111.623 15.3681C111.173 15.0896 111.023 15.0254 111.023 15.1325Z" fill="#3296FA"/>
<path d="M24.3285 16.0535C23.7287 16.664 23.9645 16.5997 24.7034 15.9464C24.9926 15.6894 25.1209 15.5073 25.0245 15.5073C24.9284 15.5073 24.6177 15.7536 24.3285 16.0535Z" fill="#3296FA"/>
<path d="M18.5317 21.3232C17.7606 22.1587 16.9895 23.0152 16.8181 23.2187C16.5504 23.5616 16.5397 23.5724 16.7753 23.3796C16.9252 23.2617 17.2894 22.9403 17.6 22.6618C17.8998 22.3727 18.2532 22.1479 18.3603 22.1479C18.6281 22.1479 19.2278 21.4196 19.6562 20.5521C19.849 20.188 19.9882 19.8667 19.9668 19.8452C19.9454 19.8238 19.3028 20.4878 18.5317 21.3232Z" fill="#3296FA"/>
<path d="M26.3295 25.2103C25.8583 25.6173 25.7727 25.7886 26.0511 25.7886C26.1687 25.7886 26.2009 25.8528 26.1368 26.0244C26.0615 26.2599 26.0723 26.2599 26.3188 26.0778C26.6829 25.8101 27.229 25.5744 27.4752 25.5744C27.6895 25.5744 27.8608 25.2959 27.711 25.1995C27.6576 25.1783 27.4003 25.2318 27.1219 25.3282C26.5543 25.5424 26.4259 25.478 26.6721 25.0924C26.9076 24.739 26.8542 24.7498 26.3295 25.2103Z" fill="#3296FA"/>
<path d="M14.4101 25.9288C13.821 26.6678 13.8746 26.7854 14.4636 26.0572C14.6885 25.7895 14.8277 25.5752 14.7742 25.5752C14.7313 25.5752 14.56 25.7361 14.4101 25.9288Z" fill="#3296FA"/>
<path d="M11.4835 32.2152C11.3336 32.4507 11.2051 32.6542 11.2051 32.6864C11.2051 32.7079 11.3764 32.6435 11.5799 32.5471C11.8691 32.4188 11.9441 32.3116 11.9548 32.0758C11.9548 31.6691 11.8156 31.7118 11.4835 32.2152Z" fill="#3296FA"/>
<path d="M20.1733 33.4145C19.2522 34.9461 19.0273 35.4066 19.0273 35.7173C19.0273 36.0169 19.3165 35.6635 20.109 34.4C20.5695 33.6503 20.848 33.1146 20.8052 33.0074C20.773 32.9218 20.8373 32.6541 20.9659 32.4079C21.0835 32.1721 21.1587 31.9581 21.1372 31.9367C21.1157 31.9044 20.6766 32.5792 20.1733 33.4145Z" fill="#3296FA"/>
<path d="M126.723 40.7188C126.83 40.9865 126.851 41.1578 126.776 41.2005C126.712 41.2434 126.819 41.447 127.034 41.6932C127.226 41.929 127.419 42.0895 127.462 42.0465C127.547 41.9609 127.055 40.9543 126.734 40.5472C126.562 40.3117 126.552 40.3117 126.723 40.7188Z" fill="#3296FA"/>
<path d="M129.665 41.1576C129.687 41.211 129.858 41.5539 130.04 41.9073C130.661 43.1067 131.882 46.459 131.7 46.459C131.582 46.459 131.154 45.9771 131.154 45.8484C131.154 45.4309 130.029 42.1965 129.912 42.3036C129.901 42.3248 130.094 43.0425 130.351 43.8886C130.865 45.5807 131.025 46.3519 130.854 46.3519C130.801 46.3519 130.64 46.0735 130.501 45.7306C130.361 45.3987 130.233 45.1952 130.212 45.2808C130.179 45.4843 131.389 47.7226 131.454 47.5513C131.475 47.4764 131.422 47.198 131.325 46.9195C131.122 46.3304 131.111 46.2018 131.272 46.3089C131.443 46.4161 131.946 47.5513 132.214 48.4404C132.386 49.0184 132.493 49.222 132.707 49.3184C132.857 49.3828 132.974 49.404 132.974 49.3506C132.974 49.3076 132.835 48.922 132.653 48.4938C132.482 48.0655 132.332 47.6692 132.332 47.6047C132.332 47.3585 132.664 47.8083 132.857 48.344C132.974 48.6543 133.167 49.008 133.285 49.1256C133.392 49.2327 133.51 49.3933 133.532 49.4685C133.564 49.5541 133.628 49.5861 133.671 49.5434C133.971 49.2649 131.775 44.1563 130.533 42.2072C130.051 41.4575 129.526 40.8255 129.665 41.1576Z" fill="#3296FA"/>
<path d="M128.049 42.4318C128.049 42.5497 128.938 44.1132 128.981 44.0706C129.045 43.9956 128.231 42.3892 128.134 42.3892C128.092 42.3892 128.049 42.4106 128.049 42.4318Z" fill="#3296FA"/>
<path d="M128.33 43.8885C128.394 44.2633 128.533 44.5096 128.63 44.4132C128.662 44.392 128.587 44.1777 128.469 43.9419L128.266 43.5137L128.33 43.8885Z" fill="#3296FA"/>
<path d="M125.973 46.813C126.006 46.9205 126.07 46.974 126.102 46.9417C126.134 46.9097 126.102 46.8238 126.027 46.7487C125.92 46.652 125.909 46.6625 125.973 46.813Z" fill="#3296FA"/>
<path d="M127.373 47.5192C127.588 47.8833 127.781 48.1513 127.812 48.1298C127.887 48.0549 127.256 46.9623 127.116 46.9089C127.041 46.8874 127.159 47.1658 127.373 47.5192Z" fill="#3296FA"/>
<path d="M126.443 47.166C126.443 47.3695 126.7 47.9049 127.953 50.3148C128.221 50.818 128.489 51.3644 128.564 51.5464C128.682 51.8461 128.682 51.8249 128.649 51.2784C128.617 50.9573 128.543 50.4324 128.478 50.122C128.382 49.6827 128.307 49.5651 128.146 49.5651C127.996 49.5651 127.803 49.2867 127.397 48.4618C127.107 47.8622 126.764 47.2731 126.647 47.1552C126.443 46.9517 126.443 46.9517 126.443 47.166Z" fill="#3296FA"/>
<path d="M130.729 48.0335C130.729 48.237 131.596 50.6574 131.832 51.1393C132.11 51.6962 132.624 53.9775 132.731 55.1876C132.806 56.0015 133.138 56.7299 133.331 56.5372C133.395 56.4727 133.545 56.4193 133.652 56.4193C133.867 56.4193 133.867 56.4834 133.652 55.2948C133.545 54.7591 133.759 55.0912 134.209 56.1943C134.445 56.7726 134.691 57.2439 134.745 57.2546C134.959 57.2868 134.852 55.4231 134.541 53.8811C134.263 52.4674 134.22 52.371 134.038 52.4889C133.899 52.5745 133.834 52.7673 133.813 53.1956L133.781 53.7847L133.374 53.1633C133.042 52.6709 132.924 52.328 132.71 51.2891C132.474 50.1432 132.078 49.1473 131.789 48.976C131.639 48.8796 131.671 49.2759 131.853 49.7042C132.046 50.1646 132.067 50.4111 131.907 50.2503C131.843 50.1861 131.607 49.6615 131.393 49.0831C131.168 48.5047 130.932 48.012 130.857 47.9798C130.793 47.9586 130.729 47.9798 130.729 48.0335Z" fill="#3296FA"/>
<path d="M1.10946 56.0662C1.08803 56.1196 1.03449 56.3339 0.991634 56.5481C0.927381 56.88 0.948808 56.9549 1.08803 56.9549C1.20582 56.9549 1.24868 56.837 1.24868 56.4729C1.24868 56.0125 1.20582 55.8946 1.10946 56.0662Z" fill="#3296FA"/>
<path d="M133.471 58.7965C133.482 60.0386 133.686 61.067 133.996 61.4418C134.382 61.9023 134.467 63.1659 134.114 63.1659C134.017 63.1659 134.017 63.4336 134.135 64.2904C134.232 64.9437 134.339 65.383 134.403 65.34C134.457 65.3081 134.478 65.0723 134.435 64.8153C134.403 64.5369 134.414 64.3441 134.478 64.3441C134.606 64.3441 134.585 64.1298 134.681 66.0362C134.746 67.1178 134.821 67.7176 134.906 67.8033C135.014 67.9104 135.024 67.7499 134.96 67.0214C134.917 66.5182 134.874 64.8153 134.853 63.2408C134.81 60.0493 134.724 59.5354 134.168 59.1176C133.975 58.9785 133.793 58.6893 133.675 58.3464C133.578 58.0572 133.493 57.811 133.482 57.811C133.471 57.811 133.461 58.2608 133.471 58.7965Z" fill="#3296FA"/>
<path d="M9.89048 61.313C9.85837 61.3557 9.8048 61.8484 9.76198 62.3946C9.69772 63.1016 9.71912 63.38 9.8048 63.38C9.87977 63.38 9.92262 63.1338 9.93334 62.7052L9.94405 62.0412L10.094 62.4698L10.2439 62.898L10.1903 62.1591C10.1475 61.4628 10.019 61.1095 9.89048 61.313Z" fill="#3296FA"/>
<path d="M130.364 74.2294C130.31 74.9254 130.299 75.5145 130.321 75.5467C130.428 75.6539 130.599 73.8116 130.524 73.3941C130.46 73.0512 130.428 73.2121 130.364 74.2294Z" fill="#3296FA"/>
<path d="M0.326496 74.7867C0.422861 75.3543 0.615651 75.9435 0.679904 75.8682C0.754871 75.7933 0.487115 74.5939 0.358608 74.4653C0.294355 74.4011 0.283641 74.5083 0.326496 74.7867Z" fill="#3296FA"/>
<path d="M7.14062 98.0369C7.14062 98.1011 7.31199 98.7332 7.51549 99.4291C7.90104 100.725 8.92918 102.974 9.25047 103.242C9.35755 103.317 9.30401 103.167 9.13265 102.867C8.78993 102.289 8.81136 102.085 9.16479 102.535C9.5182 102.985 9.42181 102.706 8.89704 101.721C8.6186 101.218 8.11523 100.158 7.7725 99.365C7.42981 98.5723 7.14062 97.9728 7.14062 98.0369Z" fill="#3296FA"/>
<path d="M15.9219 98.3798C15.9219 98.455 15.9968 98.6905 16.0825 98.9048C16.2646 99.3438 16.286 99.5151 16.1361 99.4187C15.9112 99.2796 16.0397 99.5795 16.4895 100.222C16.7358 100.586 16.9929 100.961 17.0464 101.057C17.1107 101.154 17.3141 101.475 17.4962 101.764C18.1495 102.76 18.0853 103.317 17.3998 102.771C16.8215 102.321 16.9714 102.567 17.946 103.692C18.7814 104.645 19.1562 104.902 18.4172 104.003C17.5605 102.964 17.5712 102.964 19.7774 104.656C21.0412 105.62 21.4587 105.855 20.9982 105.352C20.8912 105.224 20.5163 104.902 20.1737 104.645C19.8309 104.378 19.5739 104.11 19.5953 104.045C19.6167 103.981 19.3597 103.553 19.0277 103.103C18.685 102.642 17.8925 101.411 17.2606 100.361C16.0183 98.3264 15.9219 98.1766 15.9219 98.3798Z" fill="#3296FA"/>
<path d="M10.5658 103.489C10.5658 103.521 10.6408 103.724 10.7265 103.938C10.9621 104.506 10.9193 104.613 10.6301 104.153C10.2874 103.596 10.2553 103.585 10.2981 104.014C10.3623 104.742 11.2834 106.862 11.8403 107.601L12.1188 107.976L12.1723 107.569L12.2258 107.162L13.3504 108.522C14.1215 109.443 14.582 110.118 14.8176 110.643C15.2246 111.543 15.2674 111.789 14.989 111.564C14.6034 111.243 15.0532 111.853 15.7601 112.624C16.2099 113.106 16.9381 113.695 17.7735 114.263C18.491 114.745 19.3478 115.366 19.6691 115.634C20.1511 116.051 20.2153 116.073 20.0225 115.805C19.894 115.623 19.6477 115.334 19.4549 115.162C19.0372 114.766 18.8445 114.445 19.0694 114.531C19.1872 114.573 19.2086 114.531 19.1765 114.338C19.1229 114.123 19.1658 114.145 19.4228 114.466C19.5834 114.67 20.0226 115.184 20.3974 115.602C21.0293 116.341 21.2543 116.683 20.9008 116.394C20.8151 116.319 20.7401 116.287 20.7401 116.319C20.7401 116.415 22.3893 117.979 23.364 118.793C24.2849 119.575 24.6812 119.821 24.3706 119.425C24.1993 119.211 24.1459 119.168 25.4631 120.121C26.277 120.71 27.9799 121.61 28.0762 121.513C28.1512 121.449 27.4764 121.021 26.0949 120.249C24.6063 119.425 23.5033 118.547 22.6035 117.497C22.0681 116.876 22.0467 116.737 22.4964 116.94C22.8393 117.101 22.9357 117.026 22.7856 116.737C22.6677 116.523 20.5902 114.787 20.4509 114.787C20.4081 114.787 20.5152 114.927 20.6865 115.109C20.8579 115.28 20.9544 115.462 20.9114 115.505C20.8793 115.548 20.2796 114.991 19.5834 114.274C18.898 113.556 18.2554 112.967 18.1591 112.967C17.9663 112.967 15.91 110.054 14.9354 108.383C14.582 107.783 14.25 107.291 14.1964 107.291C14.0572 107.291 14.0786 107.366 14.2928 107.698L14.4749 107.987L14.1429 107.751C13.6074 107.376 13.0612 106.702 12.7078 106.005C12.3115 105.213 11.9902 105.095 12.2794 105.845C12.4829 106.381 12.1937 105.995 11.4226 104.72C10.7051 103.532 10.5658 103.339 10.5658 103.489Z" fill="#3296FA"/>
<path d="M21.4709 106.23C21.5247 106.584 21.5566 106.605 21.7601 106.391C21.878 106.273 21.8888 106.22 21.7816 106.145C21.4709 105.898 21.4283 105.909 21.4709 106.23Z" fill="#3296FA"/>
<path d="M23.9633 107.74C24.2633 107.997 24.5521 108.704 24.4346 108.886C24.4023 108.95 24.5521 109.09 24.7772 109.207C25.0022 109.315 25.3555 109.593 25.5591 109.797C25.9124 110.171 25.9231 110.182 25.6662 110.161C24.8843 110.075 25.6769 111.275 27.1118 112.345C29.4787 114.113 32.0599 115.451 36.6973 117.325C38.1214 117.904 38.7854 118.225 39.0534 118.482C39.5246 118.932 40.8631 119.767 42.5341 120.646C44.0012 121.417 43.894 121.524 42.2127 120.956C41.6235 120.753 41.1204 120.613 41.0989 120.635C41.0774 120.656 41.6558 120.956 42.384 121.31L43.712 121.941L44.0441 121.738C44.2262 121.62 44.4617 121.535 44.5581 121.535C44.815 121.535 46.2287 122.263 46.2287 122.402C46.2287 122.466 46.1645 122.498 46.0896 122.466C46.004 122.434 45.6611 122.381 45.3077 122.338L44.6759 122.274L44.9436 122.488C45.2862 122.766 46.1111 123.023 46.8608 123.087L47.4603 123.141L47.0213 122.938C46.4752 122.691 46.4003 122.573 46.5716 122.295C46.7429 122.017 46.5823 121.834 45.8112 121.47C45.479 121.31 45.265 121.16 45.3292 121.138C45.6718 121.02 48.6171 121.995 49.3026 122.456C49.4524 122.541 49.538 122.691 49.5061 122.766C49.4309 122.97 50.3414 123.302 51.8515 123.634C52.5048 123.773 53.4687 123.987 53.9934 124.105C54.5288 124.223 55.2999 124.49 55.7177 124.694C56.2961 124.983 56.6172 125.069 57.11 125.079C57.913 125.101 58.9949 124.876 58.9412 124.715C58.92 124.64 58.5663 124.48 58.1595 124.351C57.6561 124.201 57.517 124.116 57.7203 124.116C57.8811 124.105 58.0094 124.051 58.0094 123.998C58.0094 123.869 57.292 123.859 57.2386 123.987C57.2278 124.041 56.7029 123.912 56.0818 123.719C54.7753 123.302 54.8929 123.323 54.9251 123.484C54.9785 123.751 52.8904 123.526 52.0121 123.173C51.8942 123.13 51.9264 123.087 52.1192 123.034C52.3439 122.97 52.2798 122.938 51.7444 122.83C50.6626 122.616 49.3241 122.177 49.2704 122.017C49.2381 121.931 48.9385 121.813 48.6063 121.749C48.2637 121.684 47.4926 121.481 46.8715 121.299C46.2502 121.117 45.6611 120.946 45.5647 120.924C45.297 120.849 45.3292 120.678 45.6184 120.667C45.7467 120.667 45.4363 120.528 44.9329 120.356C44.419 120.185 43.5299 119.81 42.9516 119.521C41.8912 118.986 39.9959 117.797 39.8672 117.583C39.8243 117.529 39.7279 117.497 39.6422 117.529C39.3319 117.647 37.9823 116.63 37.9823 116.287C37.9823 116.179 37.8859 116.062 37.7681 116.019C37.4789 115.923 36.4615 115.162 34.8228 113.823C33.6019 112.817 32.3276 111.896 32.1455 111.896C32.1133 111.896 31.3529 111.553 30.4534 111.135C28.6649 110.3 26.8871 109.347 25.0771 108.265C23.7598 107.473 23.5563 107.376 23.9633 107.74Z" fill="#3296FA"/>
<path d="M116.229 116.565C115.662 117.187 115.287 117.465 115.479 117.112C115.662 116.801 115.19 117.369 114.708 118.054C114.087 118.943 114.216 118.857 115.876 117.304C116.508 116.715 117.022 116.18 117.022 116.105C117.022 115.816 116.829 115.923 116.229 116.565Z" fill="#3296FA"/>
<path d="M33.2179 116.597L32.8965 116.661L33.3247 116.983C33.5605 117.165 33.978 117.529 34.2565 117.807C34.5352 118.075 35.0706 118.45 35.4347 118.622C35.8095 118.804 36.495 119.125 36.9663 119.35C37.4375 119.564 37.7586 119.767 37.6837 119.799C37.6088 119.821 37.4052 119.778 37.2232 119.714C36.452 119.392 36.9233 119.757 38.3799 120.592C41.0465 122.145 42.2462 122.67 42.5031 122.413C42.6422 122.274 43.4671 122.659 44.0881 123.141C44.2916 123.302 44.7844 123.505 45.1699 123.602C45.566 123.698 46.5299 124.03 47.3118 124.33C51.5314 125.936 52.2384 126.151 52.6559 125.925C52.7845 125.861 52.8702 125.786 52.8487 125.765C52.8379 125.743 52.1632 125.572 51.3708 125.39C49.3895 124.908 49.4214 124.919 49.5716 124.587C49.7644 124.169 49.5823 124.084 48.3614 124.051C46.9155 124.019 45.9945 123.709 43.0493 122.284C41.2392 121.406 40.7788 121.138 40.4576 120.763C40.2434 120.517 40.0398 120.238 39.9972 120.132C39.922 119.928 37.7586 118.836 37.0197 118.632C36.5699 118.504 34.5886 117.347 33.8604 116.79C33.6247 116.597 33.4534 116.554 33.2179 116.597Z" fill="#3296FA"/>
<path d="M22.0233 118.504C22.9446 119.328 24.0795 120.474 24.5295 121.042C24.7865 121.374 25.5147 121.824 25.6218 121.717C25.6326 121.706 25.3434 121.438 24.9578 121.128C24.583 120.817 24.2723 120.517 24.2723 120.464C24.2723 120.41 24.3794 120.357 24.5081 120.335C24.7116 120.314 24.5615 120.142 23.6298 119.307C23.0195 118.761 22.4626 118.333 22.3981 118.354C22.3447 118.375 22.0877 118.257 21.8412 118.097C21.1023 117.583 21.1772 117.743 22.0233 118.504Z" fill="#3296FA"/>
<path d="M113.423 118.665C112.866 119.072 111.773 120.186 111.773 120.335C111.773 120.411 111.848 120.625 111.945 120.796C112.138 121.171 112.245 121.128 112.759 120.421C113.144 119.896 113.155 119.671 112.791 119.736C112.641 119.768 112.523 119.757 112.523 119.704C112.523 119.596 113.048 119.222 113.326 119.136C113.551 119.072 114.001 118.429 113.83 118.429C113.776 118.429 113.594 118.536 113.423 118.665Z" fill="#3296FA"/>
<path d="M35.9686 120.057C36.1294 120.196 36.5577 120.464 36.9325 120.657C37.5324 120.978 37.575 120.988 37.2859 120.742C37.1146 120.592 36.6756 120.314 36.3222 120.132C35.7758 119.853 35.7224 119.843 35.9686 120.057Z" fill="#3296FA"/>
<path d="M26.0091 122.092C26.0414 122.167 26.3305 122.445 26.6731 122.702C27.005 122.949 27.7442 123.591 28.3119 124.116C28.9544 124.716 29.3719 125.037 29.4149 124.962C29.522 124.791 30.1004 125.101 31.9208 126.301C32.7562 126.847 34.0523 127.618 34.8231 128.025C35.8515 128.56 36.1512 128.764 36.0121 128.817C35.862 128.871 36.087 129.01 36.8474 129.332C37.4258 129.578 37.9826 129.781 38.0898 129.781C38.1969 129.781 39.0537 130.156 39.9962 130.617C40.9386 131.088 42.1166 131.624 42.6093 131.816C43.0913 132.009 43.6908 132.255 43.9266 132.352C44.7619 132.716 48.9922 134.076 50.9094 134.601C55.4501 135.832 60.9228 136.711 65.2391 136.903C66.0099 136.935 67.1666 136.989 67.8092 137.021C69.0945 137.075 69.2121 136.925 67.97 136.796C67.5737 136.753 67.1881 136.679 67.1025 136.625C67.0168 136.571 67.0061 136.528 67.0595 136.528C67.3594 136.518 66.7918 136.314 66.4599 136.314C65.8067 136.314 65.0782 136.186 65.0782 136.068C65.0782 136.004 65.6031 135.982 66.5775 136.025C67.4451 136.057 68.0769 136.036 68.0769 135.982C68.0769 135.929 68.0342 135.886 67.9805 135.886C67.9271 135.886 67.7343 135.758 67.5522 135.607C67.0595 135.19 65.9457 135.147 64.1038 135.458C63.0327 135.64 62.4009 135.682 61.619 135.65C61.0514 135.618 60.5479 135.565 60.5053 135.522C60.4623 135.49 60.5268 135.393 60.6336 135.307C60.8264 135.168 60.8159 135.147 60.4196 135.04C60.1839 134.976 59.6162 134.868 59.1557 134.804C58.6953 134.751 57.9241 134.579 57.4421 134.419C56.7781 134.215 56.4355 134.162 56.0177 134.204C55.536 134.258 55.4501 134.237 55.4074 134.055C55.3644 133.905 55.2576 133.851 54.9896 133.851C54.5613 133.851 51.3161 133.198 50.1916 132.887C49.7526 132.769 48.7568 132.502 47.9964 132.298C47.2252 132.095 45.833 131.634 44.8905 131.27C43.2411 130.638 42.5878 130.349 43.0698 130.467C43.1877 130.488 43.498 130.553 43.766 130.585C44.6225 130.713 44.1086 130.456 42.8128 130.103C41.3669 129.717 41.1311 129.61 41.292 129.417C41.3884 129.31 41.11 129.181 40.0389 128.817C39.2892 128.56 38.0041 128.1 37.19 127.779C36.3762 127.468 35.6692 127.232 35.6372 127.275C35.605 127.307 35.7656 127.5 36.0013 127.704C36.2368 127.896 36.3869 128.068 36.3332 128.068C36.0228 128.068 33.4954 126.419 33.6237 126.29C33.6452 126.258 33.8702 126.322 34.1164 126.419C34.3626 126.515 34.5984 126.568 34.6306 126.526C34.7482 126.408 34.6091 126.354 33.4309 126.033C32.6063 125.819 32.1993 125.647 31.9957 125.455C31.3854 124.844 32.0709 125.005 34.277 125.99C36.6012 127.04 35.9691 126.526 33.3882 125.273C32.5422 124.865 31.5141 124.309 31.1177 124.052C30.7107 123.784 30.3788 123.602 30.3788 123.634C30.3788 123.666 30.6035 123.923 30.8712 124.212C31.2676 124.63 31.332 124.748 31.1712 124.748C30.8927 124.748 30.4215 124.448 28.9329 123.313C27.4658 122.188 27.2515 122.038 27.4762 122.317C27.7442 122.659 27.487 122.649 26.7803 122.306C26.0091 121.921 25.9557 121.91 26.0091 122.092Z" fill="#3296FA"/>
<path d="M47.4082 122.584C47.4082 122.713 48.3933 122.927 48.9398 122.927C49.5501 122.927 49.3146 122.767 48.4685 122.627C47.6225 122.477 47.4082 122.467 47.4082 122.584Z" fill="#3296FA"/>
<path d="M109.652 122.831C109.202 123.163 109.095 123.366 109.491 123.163C109.684 123.055 110.241 122.499 110.155 122.499C110.123 122.499 109.898 122.649 109.652 122.831Z" fill="#3296FA"/>
<path d="M47.4919 123.537C47.567 123.569 47.6636 123.559 47.6959 123.526C47.7387 123.494 47.6744 123.462 47.5562 123.473C47.4383 123.473 47.406 123.505 47.4919 123.537Z" fill="#3296FA"/>
<path d="M48.0289 123.645C48.1041 123.677 48.2007 123.666 48.233 123.634C48.2761 123.602 48.2115 123.569 48.0936 123.58C47.9754 123.58 47.9431 123.613 48.0289 123.645Z" fill="#3296FA"/>
<path d="M61.1129 125.079C60.9953 125.165 60.9846 125.208 61.0917 125.251C61.3165 125.336 61.1129 125.497 60.7596 125.497C60.3313 125.508 60.556 125.647 61.1452 125.754C61.563 125.829 61.6594 125.968 61.3702 126.075C61.1559 126.161 59.8386 126.161 59.4101 126.075C59.0033 125.99 59.0782 125.818 59.5172 125.818C59.7207 125.818 59.8171 125.776 59.7744 125.7C59.6673 125.54 58.5428 125.625 58.4357 125.807C58.3819 125.915 57.9859 125.99 57.1076 126.065C56.4221 126.129 55.8652 126.204 55.8652 126.247C55.8652 126.279 56.315 126.397 56.8611 126.504C59.6351 127.039 60.856 127.221 62.3446 127.275C63.9191 127.339 63.9618 127.339 64.3259 127.082C64.69 126.825 64.7007 126.804 64.6792 126.14C64.6688 125.776 64.6258 125.433 64.5724 125.379C64.476 125.283 62.1733 124.961 61.6164 124.961C61.4236 124.961 61.1986 125.015 61.1129 125.079Z" fill="#3296FA"/>
<path d="M102.721 127.092C102.656 127.146 102.26 127.382 101.832 127.617C101.039 128.035 100.964 128.174 101.511 128.174C101.875 128.174 102.357 127.981 102.978 127.596C103.406 127.317 103.428 127.296 103.235 127.157C103.01 126.975 102.86 126.964 102.721 127.092Z" fill="#3296FA"/>
<path d="M100.152 128.175C99.7877 128.561 99.8196 128.561 100.484 128.271C100.88 128.111 100.966 128.036 100.848 127.961C100.591 127.8 100.484 127.832 100.152 128.175Z" fill="#3296FA"/>
<path d="M99.144 128.828C98.8867 128.946 98.6939 129.064 98.7262 129.096C98.8333 129.192 99.326 129.021 99.5188 128.807C99.7328 128.56 99.7435 128.56 99.144 128.828Z" fill="#3296FA"/>
<path d="M76.0788 129.834C75.3396 129.995 75.2539 130.048 75.6395 130.145C75.9287 130.22 76.9141 129.952 77.0212 129.77C77.1069 129.642 76.8604 129.663 76.0788 129.834Z" fill="#3296FA"/>
<path d="M92.1901 131.495C90.7015 132.019 89.2129 132.566 88.8811 132.716C88.5597 132.865 88.1633 132.994 88.0243 132.994C87.767 132.994 86.3321 133.722 86.4178 133.808C86.439 133.84 86.6748 133.808 86.9317 133.754C88.3561 133.422 87.371 133.937 85.6144 134.451C83.9438 134.922 81.9302 135.339 80.8594 135.414L80.0134 135.468L81.245 135.029C83.1084 134.365 83.3012 134.311 84.3186 134.108C85.1862 133.947 85.7108 133.744 85.2933 133.744C85.1969 133.744 85.1005 133.69 85.079 133.626C85.0468 133.54 84.6185 133.605 83.708 133.829C81.2555 134.44 78.6961 134.847 74.1443 135.35C72.5594 135.532 71.1991 135.672 71.1134 135.672C71.017 135.672 70.9851 135.714 71.017 135.778C71.0493 135.832 71.2635 135.886 71.4775 135.886C72.1738 135.886 71.6918 136.068 70.4817 136.26C69.8391 136.357 69.2178 136.496 69.1002 136.55C68.7039 136.764 69.1106 136.828 70.0531 136.689C70.5888 136.625 71.2847 136.582 71.6062 136.603C71.9276 136.625 72.5808 136.603 73.0521 136.55L73.9086 136.464L73.4803 136.25L73.0521 136.046L74.1121 136.014C74.8833 135.993 75.2903 136.036 75.5903 136.153C76.1579 136.378 77.1753 136.357 78.7173 136.089C79.435 135.971 80.3237 135.832 80.7093 135.778C83.4191 135.436 89.8235 133.583 93.9145 131.966C96.0029 131.131 96.3885 130.852 95.4246 130.852C95.0283 130.852 94.9426 130.82 94.9963 130.691C95.0283 130.606 95.0175 130.531 94.9748 130.531C94.9319 130.542 93.679 130.97 92.1901 131.495Z" fill="#3296FA"/>
<path d="M66.6836 134.493C66.6836 134.622 66.7692 134.622 67.0584 134.493C67.2512 134.407 67.2405 134.397 66.9835 134.397C66.8122 134.386 66.6836 134.429 66.6836 134.493Z" fill="#3296FA"/>
<path d="M58.3878 57.3867H55.136V65.6322H52.8133V57.3867H49.5762V55.4707H58.3878V57.3867Z" fill="#3296FA"/>
<path d="M66.9076 60.3337C67.5268 60.5176 68.001 60.8175 68.3302 61.2335C68.6591 61.6498 68.8235 62.1625 68.8235 62.7722C68.8235 63.6723 68.4824 64.374 67.8002 64.8771C67.118 65.3806 66.143 65.6322 64.8752 65.6322H59.8672V55.4707H64.5995C65.7801 55.4707 66.6996 55.6981 67.3576 56.1529C68.0157 56.6077 68.3445 57.2562 68.3445 58.0981C68.3445 58.6013 68.2189 59.0442 67.9673 59.4265C67.7157 59.8085 67.3624 60.1111 66.9076 60.3337ZM62.2042 59.6804H64.3962C64.9093 59.6804 65.2963 59.5763 65.5575 59.3683C65.8189 59.1603 65.9496 58.8529 65.9496 58.4464C65.9496 58.0498 65.8165 57.7448 65.5503 57.532C65.2841 57.3189 64.8994 57.2127 64.3962 57.2127H62.2042V59.6804ZM64.7881 63.8902C65.8914 63.8902 66.4429 63.4545 66.4429 62.5836C66.4429 61.7417 65.8914 61.3207 64.7881 61.3207H62.2042V63.8902H64.7881Z" fill="#3296FA"/>
<path d="M75.5325 65.8066C74.4775 65.8066 73.5267 65.5792 72.6801 65.1244C71.8331 64.6696 71.1703 64.0429 70.6913 63.2445C70.2123 62.4462 69.9727 61.5485 69.9727 60.5517C69.9727 59.555 70.2123 58.6576 70.6913 57.859C71.1703 57.0606 71.8331 56.4339 72.6801 55.9791C73.5267 55.5243 74.4775 55.2969 75.5325 55.2969C76.5872 55.2969 77.5356 55.5243 78.3775 55.9791C79.2197 56.4339 79.8825 57.0606 80.3663 57.859C80.8503 58.6576 81.0921 59.555 81.0921 60.5517C81.0921 61.5485 80.8503 62.4462 80.3663 63.2445C79.8825 64.0429 79.2197 64.6696 78.3775 65.1244C77.5356 65.5792 76.5872 65.8066 75.5325 65.8066ZM75.5325 63.8035C76.1324 63.8035 76.6743 63.6656 77.1584 63.3899C77.6421 63.1138 78.0221 62.7291 78.2978 62.2358C78.5736 61.7422 78.7114 61.1808 78.7114 60.5517C78.7114 59.9226 78.5736 59.3616 78.2978 58.868C78.0221 58.3744 77.6421 57.9897 77.1584 57.7139C76.6743 57.4382 76.1324 57.3003 75.5325 57.3003C74.9324 57.3003 74.3904 57.4382 73.9066 57.7139C73.4229 57.9897 73.043 58.3744 72.7672 58.868C72.4912 59.3616 72.3533 59.9226 72.3533 60.5517C72.3533 61.1808 72.4912 61.7422 72.7672 62.2358C73.043 62.7291 73.4229 63.1138 73.9066 63.3899C74.3904 63.6656 74.9324 63.8035 75.5325 63.8035Z" fill="#3296FA"/>
<path d="M90.6564 55.4707V65.6322H88.3337V62.9319H86.1852L84.3854 65.6322H81.903L84.0225 62.569C83.3352 62.2885 82.8079 61.865 82.4402 61.2989C82.0725 60.7327 81.8887 60.0529 81.8887 59.2594C81.8887 58.4757 82.0674 57.8006 82.4256 57.2345C82.7837 56.6683 83.2916 56.2329 83.95 55.9279C84.608 55.6232 85.3822 55.4707 86.2724 55.4707H90.6564ZM86.3306 57.3867C85.6627 57.3867 85.1524 57.5416 84.799 57.8513C84.4457 58.1611 84.2693 58.6207 84.2693 59.2304C84.2693 59.8207 84.4385 60.2755 84.7772 60.5949C85.116 60.9142 85.6143 61.0738 86.2724 61.0738H88.3337V57.3867H86.3306Z" fill="#3296FA"/>
<path d="M23.9479 75.0823H20.6964V83.3275H18.3738V75.0823H15.1367V73.166H23.9479V75.0823Z" fill="#3296FA"/>
<path d="M25.4297 73.166H27.7667V79.7856L32.6151 73.166H34.8218V83.3275H32.499V76.7225L27.6506 83.3275H25.4297V73.166Z" fill="#3296FA"/>
<path d="M46.609 73.166V83.3275H44.272V75.0823H39.6847V83.3275H37.3477V73.166H46.609Z" fill="#3296FA"/>
<path d="M53.9817 83.5019C52.9268 83.5019 51.9759 83.2745 51.1293 82.8197C50.2826 82.3649 49.6195 81.7382 49.1405 80.9399C48.6615 80.1412 48.4219 79.2438 48.4219 78.2471C48.4219 77.2503 48.6615 76.3526 49.1405 75.5543C49.6195 74.756 50.2826 74.1292 51.1293 73.6744C51.9759 73.2196 52.9268 72.9922 53.9817 72.9922C55.0367 72.9922 55.9848 73.2196 56.827 73.6744C57.6689 74.1292 58.3317 74.756 58.8155 75.5543C59.2996 76.3526 59.5416 77.2503 59.5416 78.2471C59.5416 79.2438 59.2996 80.1412 58.8155 80.9399C58.3317 81.7382 57.6689 82.3649 56.827 82.8197C55.9848 83.2745 55.0367 83.5019 53.9817 83.5019ZM53.9817 81.4985C54.5816 81.4985 55.1235 81.3606 55.6076 81.0849C56.0914 80.8091 56.4713 80.4244 56.747 79.9308C57.0228 79.4372 57.1607 78.8762 57.1607 78.2471C57.1607 77.618 57.0228 77.0566 56.747 76.563C56.4713 76.0697 56.0914 75.685 55.6076 75.4089C55.1235 75.1332 54.5816 74.9953 53.9817 74.9953C53.3816 74.9953 52.8399 75.1332 52.3559 75.4089C51.8721 75.685 51.4922 76.0697 51.2164 76.563C50.9407 77.0566 50.8028 77.618 50.8028 78.2471C50.8028 78.8762 50.9407 79.4372 51.2164 79.9308C51.4922 80.4244 51.8721 80.8091 52.3559 81.0849C52.8399 81.3606 53.3816 81.4985 53.9817 81.4985Z" fill="#3296FA"/>
<path d="M68.5119 75.0823H63.6779L63.6925 83.3275H61.3555V73.166H68.5263L68.5119 75.0823Z" fill="#3296FA"/>
<path d="M74.3632 73.166C75.2633 73.166 76.0446 73.3161 76.7077 73.6161C77.3705 73.916 77.8808 74.3419 78.239 74.8937C78.5971 75.4452 78.7761 76.0985 78.7761 76.8532C78.7761 77.5984 78.5971 78.2493 78.239 78.8056C77.8808 79.3622 77.3705 79.788 76.7077 80.0832C76.0446 80.3783 75.2633 80.5258 74.3632 80.5258H72.3165V83.3275H69.9648V73.166H74.3632ZM74.2325 78.6098C74.9392 78.6098 75.4761 78.4573 75.8437 78.1526C76.2117 77.8476 76.3955 77.4146 76.3955 76.8532C76.3955 76.2823 76.2117 75.8445 75.8437 75.5395C75.4761 75.2348 74.9392 75.0823 74.2325 75.0823H72.3165V78.6098H74.2325Z" fill="#3296FA"/>
<path d="M86.6995 81.1501H81.9818L81.0817 83.3275H78.6719L83.2012 73.166H85.5237L90.0673 83.3275H87.5996L86.6995 81.1501ZM85.9591 79.3645L84.3478 75.4741L82.7366 79.3645H85.9591Z" fill="#3296FA"/>
<path d="M103.309 78.2175C103.309 79.5629 102.852 80.6202 101.937 81.3896C101.023 82.159 99.709 82.5869 97.9963 82.6741V83.7774H95.8332V82.6597C94.1107 82.5628 92.7922 82.1297 91.8778 81.3604C90.9631 80.591 90.5059 79.5435 90.5059 78.2175C90.5059 76.882 90.9631 75.8345 91.8778 75.075C92.7922 74.3152 94.1107 73.8821 95.8332 73.7756V72.7305H97.9963V73.7613C99.709 73.858 101.023 74.2934 101.937 75.0675C102.852 75.842 103.309 76.8919 103.309 78.2175ZM97.9963 80.8306C99.022 80.7339 99.7866 80.4701 100.29 80.0395C100.793 79.6088 101.045 78.9967 101.045 78.2032C101.045 76.6546 100.029 75.7933 97.9963 75.6193V80.8306ZM92.785 78.2175C92.785 79.7467 93.8012 80.6175 95.8332 80.8306V75.6193C94.798 75.716 94.031 75.9748 93.5326 76.3959C93.0342 76.817 92.785 77.424 92.785 78.2175Z" fill="#3296FA"/>
<path d="M105.061 73.166H107.398V79.7856L112.246 73.166H114.453V83.3275H112.13V76.7225L107.281 83.3275H105.061V73.166Z" fill="#3296FA"/>
<path d="M125.094 73.166V83.3275H122.771V80.6275H120.623L118.823 83.3275H116.34L118.46 80.2646C117.773 79.9838 117.245 79.5606 116.878 78.9945C116.51 78.4283 116.326 77.7485 116.326 76.955C116.326 76.171 116.505 75.4959 116.863 74.9298C117.221 74.3636 117.729 73.9282 118.387 73.6235C119.046 73.3185 119.82 73.166 120.71 73.166H125.094ZM120.768 75.0823C120.1 75.0823 119.59 75.2372 119.237 75.5469C118.883 75.8564 118.707 76.316 118.707 76.9257C118.707 77.516 118.876 77.9711 119.215 78.2905C119.553 78.6098 120.052 78.7695 120.71 78.7695H122.771V75.0823H120.768Z" fill="#3296FA"/>
</svg>
