<svg width="30" height="30" viewBox="0 0 30 30" fill="none" xmlns="http://www.w3.org/2000/svg">
<path fill-rule="evenodd" clip-rule="evenodd" d="M15.3223 29.9144C12.3781 29.9144 11.01 29.4827 8.63175 27.7561C7.12749 29.6985 2.36389 31.2166 2.15615 28.6194C2.15615 26.6698 1.72635 25.0222 1.23925 23.2236C0.659025 21.0077 0 18.54 0 14.9644C0 6.42461 6.97705 0 15.2435 0C23.5171 0 29.9999 6.74117 29.9999 15.0435C30.0276 23.2175 23.4609 29.8707 15.3223 29.9144ZM15.4441 7.38147C11.4183 7.17284 8.28075 9.9715 7.58588 14.36C7.01288 17.9932 8.03 22.4178 8.89688 22.648C9.31225 22.7488 10.3581 21.8997 11.01 21.2451C12.0879 21.993 13.3431 22.4421 14.649 22.5472C18.8204 22.7489 22.3846 19.5594 22.6646 15.3745C22.8278 11.1808 19.616 7.62863 15.4441 7.38868V7.38147Z" fill="url(#paint0_linear_291_190)"/>
<defs>
<linearGradient id="paint0_linear_291_190" x1="15" y1="0" x2="15" y2="30" gradientUnits="userSpaceOnUse">
<stop stop-color="#5A8CFF"/>
<stop offset="1" stop-color="#8F3FFF"/>
</linearGradient>
</defs>
</svg>
