<svg width="43" height="43" viewBox="0 0 43 43" fill="none" xmlns="http://www.w3.org/2000/svg">
<path fill-rule="evenodd" clip-rule="evenodd" d="M21.8342 42.628C17.6388 42.628 15.6893 42.0129 12.3002 39.5525C10.1567 42.3204 3.36854 44.4837 3.07251 40.7826C3.07251 38.0044 2.46005 35.6567 1.76593 33.0937C0.93911 29.936 0 26.4195 0 21.3242C0 9.15507 9.9423 0 21.722 0C33.5119 0 42.7498 9.60617 42.7498 21.437C42.7894 33.0849 33.4317 42.5658 21.8342 42.628ZM22.0079 10.5186C16.271 10.2213 11.8001 14.2094 10.8099 20.463C9.99335 25.6404 11.4428 31.9453 12.678 32.2734C13.27 32.417 14.7603 31.2071 15.6892 30.2743C17.2252 31.34 19.014 31.98 20.8748 32.1298C26.819 32.4171 31.8981 27.8721 32.2971 21.9087C32.5295 15.9326 27.9528 10.8708 22.0079 10.5289V10.5186Z" fill="black"/>
</svg>
