<svg width="27" height="28" viewBox="0 0 27 28" fill="none" xmlns="http://www.w3.org/2000/svg">
<path d="M4.79527 0.0586128C4.36616 0.169863 3.92646 0.413553 3.47616 0.80028C2.97818 1.22939 1.19288 3.04648 0.901514 3.42261C-0.279858 4.93243 -0.301048 7.27928 0.84324 10.3095C2.23652 14.0126 4.84825 17.7633 8.15397 20.8094C12.7099 25.0105 18.8128 27.7281 21.9543 26.9653C22.4205 26.854 23.1939 26.4938 23.5489 26.2236C23.9091 25.9534 26.3037 23.4953 26.5262 23.1722C26.9394 22.5735 27.0983 21.7736 26.9394 21.0955C26.7592 20.3379 26.701 20.2691 24.3965 17.9593C22.0708 15.6336 21.9967 15.5754 21.2285 15.4164C20.6193 15.2893 19.9995 15.4006 19.4008 15.7449C19.2631 15.8297 18.6062 16.4283 17.944 17.0852L16.7414 18.2719L16.3547 18.0706C15.4064 17.5779 14.7071 17.1064 13.6635 16.2482C12.5934 15.3688 11.0995 13.8272 10.273 12.7464C9.67439 11.9624 8.79498 10.5161 8.78969 10.3201C8.78969 10.283 9.2029 9.84863 9.70618 9.35596C10.7657 8.32292 11.1842 7.84083 11.4226 7.38524C11.7193 6.80779 11.7775 6.07672 11.5709 5.47279C11.3643 4.85827 11.163 4.62517 9.13933 2.59618C7.13683 0.593674 6.82956 0.328791 6.25742 0.132778C5.8601 -0.0102577 5.20319 -0.0420437 4.79527 0.0586128ZM6.02432 1.54725C6.17266 1.63201 7.02028 2.43195 8.15927 3.57624C10.22 5.64231 10.2995 5.73767 10.2942 6.28333C10.2942 6.76541 10.1671 6.93494 8.78439 8.31762C8.0851 9.01161 7.47587 9.65262 7.43349 9.74268C7.36992 9.85393 7.35403 10.0076 7.36992 10.2671C7.38581 10.585 7.42819 10.7069 7.75135 11.3479C8.48242 12.7994 9.44659 14.0761 11.0412 15.7078C12.6252 17.3289 14.2039 18.5368 15.8302 19.3738C16.4077 19.6704 16.5189 19.7128 16.7838 19.7075C16.9639 19.7075 17.1546 19.6704 17.2659 19.6122C17.3666 19.5592 18.0235 18.9447 18.7227 18.2507C19.6233 17.3554 20.063 16.9581 20.2326 16.8839C20.5504 16.7409 20.9636 16.7409 21.255 16.8839C21.5729 17.0428 25.3183 20.7829 25.4825 21.1114C25.5726 21.2862 25.6097 21.4452 25.6097 21.6729C25.6097 22.2186 25.4984 22.3669 23.9939 23.8768C22.5053 25.3707 22.3675 25.4714 21.5729 25.6515C20.8047 25.821 19.5174 25.6833 18.2142 25.2965C16.2276 24.7085 13.5576 23.2993 11.359 21.6782C7.12623 18.5632 3.49206 13.8007 1.98223 9.39834C1.26175 7.30577 1.18229 5.80654 1.73324 4.69404C1.90277 4.3391 2.06169 4.15898 3.1636 3.04118C3.8417 2.35249 4.49331 1.72737 4.60456 1.6479C5.08134 1.31945 5.56873 1.28237 6.02432 1.54725Z" fill="white"/>
</svg>
