<svg width="44" height="44" viewBox="0 0 44 44" fill="none" xmlns="http://www.w3.org/2000/svg">
<path fill-rule="evenodd" clip-rule="evenodd" d="M0 21.6964C-4.24566e-08 18.8472 0.561195 16.0259 1.65154 13.3936C2.74189 10.7612 4.34004 8.36944 6.35474 6.35474C8.36944 4.34004 10.7612 2.74189 13.3936 1.65154C16.0259 0.561195 18.8472 0 21.6964 0C24.5456 0 27.367 0.561195 29.9993 1.65154C32.6316 2.74189 35.0234 4.34004 37.0381 6.35474C39.0528 8.36944 40.651 10.7612 41.7413 13.3936C42.8317 16.0259 43.3929 18.8472 43.3929 21.6964C43.3929 27.4507 41.107 32.9692 37.0381 37.0381C32.9692 41.107 27.4507 43.3929 21.6964 43.3929C15.9422 43.3929 10.4236 41.107 6.35474 37.0381C2.28587 32.9692 8.5745e-08 27.4507 0 21.6964ZM28.935 34.7593L32.2939 9.26357L6.04929 21.9118L13.8182 24.7275L22.4518 18.0546C22.6189 17.9257 22.8099 17.8309 23.0136 17.7758C23.2174 17.7206 23.4301 17.7061 23.6394 17.7331C23.8488 17.7601 24.0508 17.8281 24.2339 17.9332C24.417 18.0383 24.5777 18.1784 24.7066 18.3455C24.8356 18.5127 24.9303 18.7036 24.9855 18.9074C25.0407 19.1112 25.0552 19.3238 25.0281 19.5332C25.0011 19.7426 24.9331 19.9446 24.8281 20.1277C24.723 20.3108 24.5829 20.4714 24.4157 20.6004L17.2543 26.1321V34.8943L22.6704 29.7386L28.935 34.7593Z" fill="white"/>
</svg>
