<?xml version="1.0" encoding="UTF-8" standalone="no"?>
<!DOCTYPE svg PUBLIC "-//W3C//DTD SVG 1.1//EN" "http://www.w3.org/Graphics/SVG/1.1/DTD/svg11.dtd">
<!-- Created with Vectornator (http://vectornator.io/) -->
<svg height="511.9999999999998px" stroke-miterlimit="10" style="fill-rule:nonzero;clip-rule:evenodd;stroke-linecap:round;stroke-linejoin:round;" version="1.1" viewBox="0 0 512 512" width="511.9999999999999px" xml:space="preserve" xmlns="http://www.w3.org/2000/svg" xmlns:xlink="http://www.w3.org/1999/xlink">
<defs/>
<g id="Слой-1">
<g opacity="1">
<path d="M256.895 26.9192C252.445 27.5651 252.194 27.7087 255.423 27.7805C256.895 27.8164 258.833 27.9599 259.73 28.0676C263.749 28.7135 257.074 29.3954 248.426 29.2518C245.662 29.18 243.33 29.0724 243.222 29.0006C243.15 28.8929 243.294 28.6417 243.581 28.4623C244.514 27.8164 241.751 28.5341 240.279 29.2877C239.526 29.6824 238.916 30.0413 238.916 30.0772C238.916 30.1131 241.105 30.0772 243.76 30.0054C248.426 29.8619 248.605 29.8619 248.605 30.5796C248.605 31.5485 247.744 31.728 242.899 31.728C239.023 31.728 238.844 31.7638 239.023 32.4457C239.203 33.1275 239.023 33.1634 235.363 33.1634C233.246 33.1634 231.38 33.307 231.164 33.4864C230.734 33.917 225.243 34.9577 223.52 34.9577C222.803 34.9218 221.834 34.7065 221.331 34.4194C219.86 33.594 218.245 33.8094 214.513 35.3166C212.575 36.0702 209.632 37.075 207.982 37.4698C206.367 37.9004 204.68 38.331 204.285 38.4387C203.639 38.6181 203.604 38.5822 204.106 38.0081C204.608 37.4339 204.573 37.398 203.927 37.5774C203.532 37.6851 202.168 38.044 200.876 38.3669C199.584 38.6899 195.099 40.2689 190.9 41.812C183.364 44.647 180.026 45.4724 179.56 44.7188C179.309 44.2882 177.945 44.647 173.818 46.226C172.454 46.7643 171.162 47.1232 170.947 47.0514C170.732 46.9438 168.83 48.0921 166.677 49.5276C164.559 50.9989 162.729 52.1832 162.586 52.1832C162.442 52.1832 162.729 51.7884 163.196 51.286C163.662 50.7836 163.949 50.3888 163.842 50.3888C163.734 50.3888 162.334 51.1066 160.719 52.0037C159.105 52.9009 157.633 53.6186 157.454 53.6186C156.449 53.6186 141.807 63.8821 140.085 65.7841L139.403 66.5377L141.09 65.7841C142.023 65.3893 142.884 65.1381 142.992 65.2099C143.063 65.3175 141.7 66.5736 139.905 67.9731C138.111 69.3727 136.64 70.7005 136.64 70.8799C136.64 71.4182 134.487 72.3154 133.769 72.1001C131.723 71.4541 134.558 66.8607 138.075 65.1381C139.941 64.2051 147.047 59.181 147.047 58.7862C147.047 58.4633 144.965 59.7193 141.771 62.016C139.941 63.3079 138.147 64.3845 137.716 64.3845C137.322 64.3845 136.03 64.851 134.845 65.4611C133.661 66.0353 132.441 66.5377 132.154 66.5377C131.257 66.5377 132.549 64.4922 134.271 63.272C135.707 62.1954 141.413 59.0016 141.843 59.0016C141.951 59.0016 141.987 59.3245 141.843 59.6834C141.664 60.3294 141.736 60.3652 142.669 60.114C144.284 59.6475 145.863 58.7145 150.061 55.8794C154.619 52.7932 156.377 51.8243 157.526 51.8243C157.992 51.8243 160.468 50.64 163.052 49.2046C167.968 46.5131 169.547 45.5083 169.26 45.2212C169.189 45.1136 166.856 46.3337 164.129 47.9127C159.392 50.64 158.207 51.1066 159.248 49.8505C160.289 48.5945 159.033 48.9534 154.906 51.0707C152.537 52.3267 150.492 53.2239 150.384 53.1162C150.097 52.8291 142.453 56.8484 138.075 59.5399C136.209 60.6882 133.159 62.8055 131.257 64.241C127.955 66.7171 127.776 66.9324 127.381 68.7267C127.13 69.7316 126.269 72.423 125.443 74.7198L123.936 78.8467L119.773 82.2559C112.452 88.3207 107.5 92.7347 102.081 98.0817C99.1744 100.953 96.8059 103.142 96.8059 102.926C96.8059 102.065 100.036 97.7229 103.086 94.529C106.316 91.1198 108.002 89.6126 107.715 90.4021C107.356 91.4069 112.739 86.0957 114.139 84.0502C114.785 83.1172 115.646 82.2918 116.077 82.1841C117.01 81.9329 121.029 77.9854 121.747 76.5858C122.644 74.8633 121.352 74.5762 119.845 76.1552C119.307 76.7294 117.979 77.5548 116.902 77.9854C115.251 78.6314 114.821 79.0261 114.247 80.2104C113.852 81.1075 111.268 83.9425 107.464 87.7106C104.055 91.048 101.256 93.7036 101.184 93.6318C101.112 93.5601 101.794 92.3399 102.727 90.9045C104.486 88.213 107.859 84.6603 109.043 84.3014C109.869 84.0143 109.94 83.5478 109.151 83.2607C108.792 83.1172 107.895 83.7272 106.567 85.055C105.455 86.1675 104.127 87.28 103.624 87.6029C103.122 87.89 101.615 89.8279 100.215 91.8734C98.8514 93.9548 96.5188 96.9693 95.1193 98.5842C93.6838 100.199 91.6024 102.747 90.454 104.218C89.3416 105.69 86.1118 109.242 83.3127 112.113C78.1809 117.424 76.0277 120.188 76.6019 120.762C77.1761 121.336 78.4321 120.08 82.1284 115.307C84.1381 112.723 85.8247 110.714 85.9324 110.821C86.04 110.929 85.6812 111.683 85.107 112.472C83.0973 115.307 82.9897 115.487 83.4562 115.2C83.6715 115.056 83.8868 115.092 83.8868 115.271C83.8868 115.953 81.7696 118.465 79.6164 120.331C78.3962 121.408 77.0684 122.915 76.6378 123.74L75.9201 125.212L77.212 123.992C77.9297 123.31 78.5039 122.879 78.5039 123.095C78.5039 123.274 77.6785 124.709 76.6737 126.253C74.7717 129.267 72.7621 133.035 72.7621 133.645C72.7621 134.578 73.6234 133.825 74.8435 131.815C77.2479 127.831 79.6164 124.315 79.9035 124.315C80.0829 124.315 80.1188 124.745 80.047 125.284C79.8676 126.253 79.9035 126.253 80.37 125.571C80.6571 125.176 82.2361 122.592 83.9227 119.829C86.686 115.2 86.9372 114.625 86.9731 112.723C87.0448 111.001 87.296 110.211 88.5162 108.202C89.8081 106.013 90.167 105.654 92.0689 104.828C94.9398 103.536 96.8059 103.572 96.8059 104.936C96.8059 105.654 90.2387 112.113 89.521 112.113C88.875 112.113 83.7792 123.095 83.8151 124.351C83.8151 125.176 83.4203 125.678 81.5542 127.186C78.6116 129.482 74.7 134.183 70.573 140.32C68.8146 142.976 67.2715 145.38 67.1638 145.667C67.0562 145.918 67.2715 146.456 67.6662 146.851C68.3481 147.533 68.3481 147.569 66.805 149.794C65.9437 151.014 65.1901 152.198 65.1183 152.45C64.7594 153.454 64.58 152.306 64.903 150.906C65.0824 150.045 65.1901 149.292 65.1183 149.22C65.0465 149.148 63.4317 152.198 61.4938 156.002C59.5559 159.77 57.7257 163.072 57.4745 163.287C56.9721 163.682 55.8955 166.373 55.8955 167.163C55.8955 167.378 56.4697 166.517 57.1515 165.225C58.5152 162.713 59.6277 161.385 59.9507 161.888C60.0583 162.031 59.3765 164.041 58.4435 166.302C56.1108 171.972 54.4601 176.78 53.9577 179.508L53.527 181.84L51.7686 181.876L49.9743 181.912L49.9025 180.118C49.7949 177.965 50.4049 171.756 50.9432 169.603C51.1585 168.778 51.2303 167.988 51.1585 167.881C50.8714 167.629 46.2062 179.615 44.1966 185.752C41.864 192.857 41.1821 192.893 42.6176 185.824C43.0482 183.85 43.4071 181.697 43.4789 181.015C43.6224 179.651 47.1034 171.11 47.8211 170.357C48.0723 170.106 48.6465 168.814 49.0771 167.522C49.5436 166.194 50.7279 163.251 51.8045 160.919C52.8452 158.622 53.8859 155.93 54.1371 154.962C54.3524 153.993 54.7113 153.024 54.9266 152.844C55.2855 152.45 55.2855 152.521 54.2806 156.792C53.527 160.093 52.9528 164.005 53.0964 164.974C53.2041 165.584 53.4911 165.225 54.4242 163.431C55.3213 161.708 55.7161 160.344 55.9673 158.227C56.4338 153.777 57.1157 151.947 59.4483 148.789C62.3909 144.806 63.2881 143.047 61.4579 144.77C60.9555 145.236 60.5607 145.488 60.5607 145.344C60.5607 145.021 62.4627 142.222 63.9699 140.284C65.5489 138.31 65.8719 137.593 64.7953 138.562C63.2522 139.997 63.3599 139.459 65.1542 137.126C66.1231 135.906 67.738 133.681 68.7787 132.138C69.8194 130.631 71.4702 128.549 72.475 127.509C73.8028 126.145 74.3052 125.284 74.377 124.458C74.4129 123.848 74.9512 122.269 75.5612 120.941L76.7096 118.501L73.6234 121.3C69.5323 125.032 68.384 126.468 64.7953 132.568C57.1874 145.523 54.0294 151.552 50.692 159.519C49.7231 161.852 48.7542 163.646 48.5747 163.574C48.0723 163.395 45.0579 170.106 43.2994 175.273C41.7922 179.795 41.3975 182.486 40.8592 191.96C40.4644 198.599 39.3161 205.166 38.3112 206.566C37.5576 207.571 37.0911 209.401 36.7322 212.595C36.481 214.497 36.0145 215.825 35.6915 215.466C35.5839 215.358 35.6556 214.318 35.8351 213.169C36.2298 210.872 35.871 210.011 35.0456 211.016C34.6508 211.482 34.5791 212.595 34.6508 215.861C34.7944 220.633 34.1484 225.658 33.4666 225.37C33.2154 225.299 32.8565 225.37 32.6412 225.586C32.2464 225.981 32.1747 225.909 31.744 224.437C31.6723 224.15 31.3852 225.335 31.0981 227.129C30.4521 231.328 30.4521 238.325 31.134 241.483C31.3852 242.847 31.6364 245.862 31.6364 248.122C31.6364 251.567 31.5287 252.608 30.811 254.438C30.0933 256.34 30.0215 257.166 30.1292 260.288C30.165 262.298 30.0933 263.912 29.9497 263.912C29.5909 263.912 30.0574 271.449 30.4521 272.166C30.7033 272.597 30.7392 272.525 30.7751 271.879C30.7751 270.264 31.4211 271.161 31.6723 273.135C32.067 276.58 33.2872 282.25 33.8972 283.614L34.5073 284.906L34.7226 282.214C34.902 279.846 34.8303 279.415 34.1484 278.446C33.3589 277.334 33.323 277.011 32.7489 268.039L32.5694 265.168L33.0718 267.716C33.5025 269.977 34.5791 272.776 34.902 272.453C34.9738 272.417 34.8303 270.946 34.6149 269.188C34.3279 266.855 34.3279 265.778 34.6508 264.881C35.1174 263.554 34.8661 249.055 34.3279 247.225C34.1125 246.508 34.0767 247.261 34.1843 249.45C34.4355 253.29 33.8972 253.936 33.323 250.527C32.713 246.759 32.39 231.866 32.9283 230.574C33.5025 229.139 33.9331 229.139 33.7178 230.538C33.5742 231.615 34.1843 232.835 34.7226 232.512C34.902 232.404 35.1174 231.651 35.2609 230.789C35.4044 229.964 35.6198 229.139 35.7274 228.959C35.7992 228.78 36.481 230.502 37.1988 232.727L38.4907 236.818L38.4548 244.354C38.4189 249.594 38.2753 252.142 37.9883 252.716C37.6294 253.362 37.6294 254.403 37.9524 257.561C38.2036 259.785 38.4189 263.769 38.4907 266.46C38.5266 269.224 38.7419 271.628 38.9572 272.023C39.1725 272.382 39.3878 272.489 39.3878 272.238C39.3878 271.233 40.1056 271.915 40.1056 272.956C40.1056 273.602 40.3568 275.647 40.6438 277.442C41.1821 280.671 41.1463 280.815 40.4644 281.497C40.0697 281.891 39.7467 282.501 39.7467 282.86C39.7467 283.219 39.5314 283.829 39.2443 284.224C38.7419 284.87 38.6701 284.798 37.9165 283.004C37.4858 281.963 37.0911 281.174 37.0193 281.245C36.9476 281.281 37.127 282.322 37.4141 283.47C38.06 286.198 38.06 286.557 37.45 286.305C36.5887 285.982 36.4451 287.382 36.8758 291.832C37.2705 295.421 37.45 296.174 38.1677 296.964C38.8495 297.646 39.029 298.256 39.029 299.655C39.029 302.275 39.7467 307.514 40.4644 310.385C40.8233 311.749 41.0745 312.933 41.0027 313.005C40.9668 313.077 39.9261 311.354 38.7419 309.201C36.8758 305.899 35.4403 303.854 35.4403 304.572C35.4403 304.679 36.2657 306.904 37.2705 309.524C38.5983 313.113 39.0648 314.727 38.9931 315.948C38.8854 317.706 39.6749 320.577 40.0697 319.967C40.3926 319.429 44.3042 323.986 45.7397 326.57C46.3857 327.754 46.9239 328.4 46.9239 328.041C46.9239 326.857 45.1296 321.976 43.8377 319.716C41.7204 315.912 42.5099 316.378 44.9143 320.362C46.1703 322.443 48.2159 325.565 49.4719 327.323C50.692 329.046 52.1634 331.594 52.7016 332.994C53.9218 336.116 55.7161 342.432 55.429 342.719C54.7113 343.472 52.3069 339.561 52.3069 337.587C52.3069 336.582 51.0509 337.264 50.8714 338.376C50.692 339.381 50.6202 339.345 50.0102 337.479C49.6513 336.403 49.0771 335.183 48.6824 334.788C48.2876 334.393 46.9239 332.204 45.632 329.943C44.376 327.682 42.9047 325.314 42.4023 324.74L41.5051 323.663L42.0793 324.811C42.6535 326.032 43.8018 331.02 43.5506 331.271C43.4789 331.343 42.9765 330.625 42.4023 329.62C41.5769 328.041 40.8233 327.288 40.8233 328.005C40.8233 328.508 45.3091 336.403 45.5962 336.403C45.7756 336.403 45.7756 336.08 45.6679 335.685C45.5603 335.29 45.5603 334.967 45.6679 334.967C45.8832 334.967 49.0054 341.391 49.5436 342.934C49.6872 343.293 49.6154 343.58 49.436 343.58C49.2207 343.58 49.0771 343.401 49.0771 343.221C49.0771 342.755 47.7493 342.755 47.4264 343.257C47.1393 343.759 49.2924 345.984 50.3331 346.236C50.8714 346.379 51.3021 346.882 51.5892 347.707C51.8045 348.389 52.2351 349.178 52.4863 349.465C52.7734 349.752 54.5677 352.695 56.4697 355.997C62.4627 366.404 66.4461 372.397 69.1376 374.945C70.9678 376.703 70.7525 375.77 68.7069 373.15C66.5538 370.423 65.226 368.126 65.226 367.229C65.226 366.906 64.5082 366.045 63.6111 365.327C62.7139 364.573 61.3502 362.851 60.489 361.415C58.6588 358.257 56.8286 354.023 57.1874 353.7C57.331 353.556 57.4745 353.628 57.5463 353.808C58.1205 355.387 62.7139 361.487 65.9437 365.004C68.5993 367.839 70.8242 370.71 72.7621 373.796C74.3411 376.272 75.633 378.497 75.633 378.713C75.633 378.928 75.3459 378.964 75.0229 378.856C74.5205 378.677 74.5564 378.856 75.2741 380.04C77.3197 383.486 80.1547 386.895 85.6812 392.565C92.033 399.132 95.0116 402.469 95.0116 403.044C95.0116 403.259 95.8011 404.658 96.8059 406.166C97.7749 407.673 98.6002 409.108 98.6002 409.36C98.6002 410.364 103.194 414.24 107.464 416.824C109.187 417.901 111.089 419.551 113.314 421.992C115.862 424.755 117.118 425.831 118.84 426.657C120.06 427.267 122.178 428.666 123.541 429.743C124.941 430.82 127.489 432.829 129.211 434.157C130.97 435.521 132.477 436.849 132.585 437.136C132.836 437.746 135.276 439.038 136.209 439.038C137.034 439.038 140.228 441.047 140.228 441.55C140.228 442.267 149.523 447.83 150.312 447.579C150.528 447.507 149.702 446.717 148.446 445.856C147.226 444.995 146.401 444.205 146.616 444.133C147.083 443.99 154.224 447.614 155.659 448.727L156.557 449.445L155.588 449.445C155.014 449.445 154.583 449.552 154.583 449.732C154.583 449.875 155.624 450.701 156.915 451.562C158.207 452.423 159.248 453.284 159.248 453.464C159.248 453.895 165.133 456.622 169.081 458.021C173.172 459.457 177.658 460.605 185.445 462.148C188.89 462.83 193.591 463.979 195.852 464.696C205.936 467.89 218.209 470.582 225.638 471.263C227.504 471.443 230.913 471.515 233.174 471.443C237.265 471.263 237.301 471.263 238.162 472.197C238.736 472.807 239.418 473.13 240.136 473.13C241.105 473.165 241.141 473.201 240.602 473.524C240.136 473.811 238.413 473.704 234.322 473.165C231.236 472.735 228.222 472.412 227.612 472.448L226.535 472.484L227.54 472.878C229.298 473.56 228.58 473.847 225.028 473.847C221.977 473.883 221.583 473.919 222.157 474.35C222.659 474.744 223.126 474.78 224.131 474.493C225.638 474.063 230.554 474.314 236.332 475.103C241.141 475.749 249.287 476.431 249.682 476.18C249.861 476.072 251.153 475.965 252.624 475.965C255.136 475.929 259.012 476.682 260.699 477.508C261.237 477.795 263.677 477.831 268.414 477.687C274.515 477.472 276.812 477.256 283.307 476.18C284.168 476.036 284.743 475.749 284.635 475.57C284.527 475.39 284.599 475.032 284.85 474.744C285.173 474.386 285.101 474.17 284.635 473.919C283.953 473.56 284.132 473.488 290.7 472.197C293.391 471.694 294.073 471.658 295.257 472.053C296.047 472.304 296.585 472.627 296.513 472.807C296.406 472.95 295.365 473.165 294.145 473.309C292.709 473.488 292.099 473.704 292.315 473.919C292.709 474.314 294.037 474.063 298.81 472.771C300.281 472.376 301.537 472.125 301.609 472.197C301.717 472.268 300.676 472.699 299.384 473.13C298.092 473.56 297.052 473.991 297.123 474.063C297.195 474.134 298.308 473.919 299.564 473.632C300.855 473.345 305.844 472.376 310.688 471.479C324.182 469.039 322.208 469.828 338.5 460.749C342.448 458.56 347.221 456.227 349.087 455.545C350.953 454.863 355.797 452.638 359.888 450.629C364.087 448.583 367.389 447.148 367.46 447.363C367.532 447.579 369.614 446.502 372.09 444.959C381.707 438.858 383.322 437.961 384.435 437.961C385.26 437.961 386.157 437.459 387.88 436.059C389.136 435.018 392.76 432.147 395.918 429.743C401.768 425.221 403.239 423.858 400.296 425.58C399.363 426.083 398.466 426.441 398.287 426.298C398.071 426.19 396.815 427.195 395.488 428.523C393.693 430.317 392.581 431.107 391.253 431.537C389.71 432.04 388.777 432.147 389.315 431.753C389.566 431.537 398.394 424.252 399.076 423.642C399.615 423.212 399.794 423.176 400.009 423.571C400.225 423.894 400.404 423.929 400.548 423.642C400.691 423.427 400.619 423.248 400.368 423.248C400.045 423.248 400.045 423.14 400.368 422.745C400.584 422.458 400.763 422.099 400.727 421.956C400.584 421.13 400.871 420.7 402.019 419.838C402.665 419.3 403.526 418.834 403.885 418.798C404.244 418.726 405.787 417.183 407.366 415.317C412.857 408.714 415.907 405.269 416.086 405.412C416.338 405.663 415.297 407.494 413.861 409.431C412.57 411.118 412.713 411.226 414.4 409.826L415.297 409.073L414.579 409.97C414.22 410.472 412.498 412.302 410.811 414.097C406.828 418.224 404.352 421.094 404.352 421.489C404.352 423.929 417.988 408.642 424.879 398.486C426.135 396.62 428.072 394.18 429.149 393.103C430.262 392.027 432.594 388.94 434.388 386.285C438.013 380.866 440.633 377.78 441.817 377.457C443.504 377.062 451.865 361.882 454.592 354.346C455.49 351.834 456.207 350.506 457.32 349.286C458.827 347.635 461.77 342.324 461.77 341.247C461.77 340.817 461.554 340.709 461.052 340.889C460.585 341.032 460.262 340.924 460.155 340.601C459.832 339.848 461.662 334.537 462.954 332.348C464.354 330.051 470.526 314.763 471.1 312.215C471.459 310.565 471.315 309.667 470.777 310.026C470.598 310.098 470.275 311.175 470.024 312.359C469.772 313.543 469.342 314.799 469.055 315.122C468.588 315.696 468.588 315.589 468.768 314.046C468.911 313.113 469.557 310.529 470.239 308.304C471.997 302.705 471.818 303.136 472.141 303.71C472.356 304.033 472.571 303.603 472.859 302.347C473.469 299.512 474.976 288.566 475.406 284.009C475.837 279.092 475.837 268.326 475.406 266.066C475.119 264.666 475.119 264.774 475.227 266.963C475.335 268.326 475.263 270.049 475.084 270.731L474.796 271.987L474.509 270.085C474.079 267.034 473.792 268.326 473.899 272.884C474.007 275.647 473.899 277.19 473.648 277.334C473.397 277.513 473.253 277.119 473.253 276.186C473.253 273.817 472.823 270.372 472.536 270.551C472.392 270.659 472.069 271.484 471.818 272.417L471.351 274.14L471.064 272.884C470.921 272.202 470.454 268.326 470.024 264.271C469.593 260.216 469.09 256.592 468.911 256.197C468.696 255.73 468.66 258.924 468.839 264.989C469.234 279.81 469.162 284.87 468.48 288.1C467.906 290.791 467.081 292.119 466.327 291.653C466.148 291.545 466.112 291.94 466.22 292.514C466.363 293.124 466.291 294.954 466.076 296.605C465.861 298.256 465.538 300.839 465.394 302.311C464.999 305.828 463.564 311.067 463.133 310.636C462.954 310.457 462.775 309.38 462.739 308.268C462.703 307.155 462.595 306.474 462.452 306.689C462.308 306.94 461.447 310.206 460.55 313.974C456.781 329.297 453.408 339.13 448.312 349.501C444.831 356.607 440.956 363.21 440.31 363.066C440.13 363.03 439.52 363.999 438.982 365.219C437.869 367.767 434.604 372.72 431.661 376.416C428.108 380.902 423.946 385.567 423.515 385.567C422.905 385.567 419.675 389.371 416.015 394.359C410.309 402.146 409.089 403.654 406.469 406.309C404.746 408.104 403.813 408.821 403.634 408.498C403.203 407.852 397.964 411.692 393.765 415.711C386.911 422.315 374.566 431.466 362.795 438.643C359.924 440.437 359.027 440.832 358.632 440.509C358.022 440.007 356.766 440.473 349.194 444.062C345.103 446 343.165 446.717 341.443 446.933C339.039 447.22 334.481 449.122 332.938 450.485C332.435 450.916 332.292 451.203 332.579 451.095C338.608 449.086 339.146 449.588 333.476 451.885C330.892 452.926 327.986 454.325 327.017 454.971C325.509 455.976 324.72 456.227 322.387 456.442C319.839 456.658 319.445 456.801 318.404 457.878C317.004 459.242 314.456 460.211 312.231 460.211C310.975 460.211 310.473 460.39 309.863 461.144C309.325 461.754 308.356 462.22 306.92 462.543C305.772 462.83 304.731 463.01 304.695 462.938C304.624 462.866 305.521 462.112 306.741 461.251C309.468 459.242 308.786 459.062 304.265 460.569C300.389 461.825 300.353 461.861 301.143 460.964C301.466 460.605 302.973 459.78 304.444 459.134C305.915 458.488 307.064 457.878 306.956 457.806C306.454 457.304 300.03 458.775 294.037 460.749C290.269 462.005 285.891 463.261 284.312 463.584C281.656 464.122 275.807 464.876 274.371 464.876C273.331 464.876 273.654 464.23 274.802 463.979C276.13 463.691 276.453 463.225 275.627 462.794C275.197 462.579 273.115 462.83 269.599 463.512C264.574 464.445 263.821 464.481 258.294 464.302C254.921 464.158 250.758 463.763 248.605 463.368C246.272 462.938 242.002 462.579 237.301 462.364C233.174 462.22 228.868 461.897 227.791 461.646C225.494 461.144 217.886 457.627 216.953 456.622C216.2 455.796 212.145 454.469 206.546 453.213C202.85 452.351 198.436 451.167 196.965 450.593C196.642 450.485 197.108 451.239 197.969 452.244L199.513 454.146L202.994 454.038C205.147 453.966 207.085 454.11 208.125 454.433C210.853 455.222 210.243 455.689 206.905 455.402C205.254 455.294 202.348 455.079 200.41 454.935C197.323 454.756 196.642 454.576 195.027 453.607C194.022 452.997 192.622 451.741 191.941 450.808C190.828 449.301 190.362 449.014 187.096 447.83C185.086 447.076 179.129 444.385 173.854 441.837C165.385 437.782 163.734 437.1 160.217 436.31C154.906 435.162 151.533 433.439 146.15 429.133C141.126 425.114 140.587 424.791 140.587 425.58C140.587 426.154 140.228 426.119 138.542 425.508C138.29 425.401 138.075 425.508 138.075 425.724C138.075 426.477 136.317 425.006 135.204 423.319C134.558 422.35 134.128 421.238 134.128 420.52C134.128 419.48 133.984 419.3 132.8 418.905C131.795 418.582 129.75 416.752 125.156 412.159C118.984 405.986 118.912 405.915 121.639 407.816C123.182 408.857 124.546 409.611 124.69 409.503C125.084 409.108 124.367 408.57 119.307 405.448C114.821 402.649 113.278 401.931 115.144 403.474C115.61 403.869 115.79 404.192 115.539 404.228C114.606 404.228 110.514 399.599 108.433 396.118C107.285 394.18 106.352 392.349 106.352 392.134C106.388 391.883 105.203 390.519 103.696 389.084C91.7459 377.636 89.3416 375.268 89.0904 374.622C88.9468 374.227 88.5521 373.581 88.1932 373.186C87.296 372.181 82.8103 363.497 82.8103 362.779C82.8103 361.882 80.7647 358.042 79.7599 357.145C78.6833 356.14 74.4129 346.989 70.4295 337.12C67.3791 329.584 62.5704 315.983 62.8575 315.66C62.9651 315.589 63.9699 316.091 65.1183 316.773C66.2667 317.491 69.4247 319.249 72.152 320.72C77.0326 323.376 77.1402 323.448 78.0374 325.35C78.6116 326.498 78.9704 327.969 79.0063 329.046C79.0781 331.307 81.1954 335.721 84.2098 339.955C85.43 341.642 86.6142 343.724 86.9013 344.8C87.5831 347.061 89.7363 350.793 92.1407 353.808C93.1096 355.064 93.935 356.176 93.935 356.284C93.935 357.073 93.002 356.104 91.1 353.305C89.9157 351.547 88.6956 350.04 88.4085 349.932C88.1214 349.824 87.619 349.178 87.2602 348.532C86.1477 346.343 81.303 338.161 81.1595 338.269C81.0877 338.341 81.3748 339.417 81.7337 340.637C82.8103 344.047 83.205 347.061 82.7385 348.066C82.4155 348.784 82.5591 349.178 84.0304 351.08C85.717 353.269 87.1525 354.095 87.942 353.305C89.2339 352.013 91.4589 354.382 94.7245 360.518C96.8777 364.538 97.0571 364.789 98.6002 365.363C100.933 366.224 102.368 367.624 100.933 367.624C100.646 367.624 100.395 367.767 100.395 367.911C100.395 368.377 102.297 370.889 103.445 371.93C104.809 373.186 107.931 377.493 107.931 378.103C107.931 378.39 108.182 378.928 108.469 379.323C109.151 380.22 109.151 380.579 108.469 380.328C108.146 380.184 107.931 380.328 107.931 380.686C107.931 381.368 111.627 385.065 112.596 385.388C113.421 385.639 114.857 384.957 114.57 384.455C114.139 383.809 114.929 384.167 115.897 385.1C116.436 385.639 116.902 385.89 116.902 385.711C116.902 385.495 116.328 384.813 115.646 384.132C114.964 383.45 114.39 382.732 114.39 382.517C114.39 381.871 110.371 376.38 106.998 372.468C102.153 366.834 94.6527 355.925 94.4733 354.238C94.4015 353.808 93.612 352.157 92.6431 350.578C90.5976 347.133 87.1525 339.955 83.3486 331.307C81.0159 325.924 80.4418 324.919 79.5805 324.56C78.8628 324.273 78.3245 323.555 77.6067 321.797C77.0326 320.541 76.0636 318.926 75.4177 318.208C74.3052 317.06 74.1617 316.988 72.6185 317.204L70.9678 317.455L69.9271 315.086C68.4198 311.785 68.0251 310.206 68.6352 310.206C69.2452 310.206 68.3481 307.909 66.9126 305.792C66.4102 305.074 65.9078 303.854 65.7643 303.1C65.5131 301.665 64.5441 299.619 64.5082 300.516C64.5082 300.804 64.6518 301.593 64.8312 302.239C65.0106 302.849 65.0465 303.387 64.8671 303.387C64.7236 303.387 64.4006 302.634 64.1853 301.665C63.9341 300.732 63.1087 298.973 62.3192 297.789C61.5297 296.569 60.7402 295.026 60.5607 294.38C59.9148 292.227 59.4483 287.49 59.843 287.095C60.3813 286.557 61.2426 287.561 61.6732 289.248C62.2474 291.545 62.8575 291.258 62.5345 288.853C62.2474 286.341 62.8216 286.27 63.3599 288.746C63.5752 289.786 64.0417 292.011 64.3647 293.662C65.0465 296.856 65.4413 297.502 68.8505 300.158C70.1783 301.198 70.3218 301.27 69.8194 300.516C68.1686 298.184 67.3791 296.605 67.1638 295.205C67.0562 294.38 67.0562 293.698 67.2356 293.698C67.7021 293.698 67.2356 284.403 66.6973 283.04C66.2667 281.927 66.2308 281.891 65.3695 282.466C64.7953 282.824 64.4365 283.506 64.2929 284.439C63.8623 286.916 63.324 285.337 63.2881 281.604C63.2881 279.308 63.4317 277.8 63.7546 277.226C64.1494 276.473 64.1494 276.329 63.647 276.042C63.001 275.683 62.8575 273.171 63.3958 271.736C63.6111 271.161 63.5752 270.587 63.2522 270.049C62.678 268.972 62.4986 269.295 61.9962 272.31C61.6373 274.176 61.6373 275.36 61.9962 277.585C62.4268 280.277 62.3909 280.492 61.7809 280.958C60.812 281.676 60.166 280.922 59.6636 278.375C59.1612 276.042 59.2688 275.504 60.1301 276.186C60.5966 276.58 60.6325 276.508 60.4531 275.575C59.9148 273.028 59.7712 263.554 60.166 259.427C60.4172 257.058 60.7402 254.977 60.8837 254.833C61.0273 254.69 61.2785 256.269 61.3861 258.386C61.4938 260.503 61.7809 262.405 61.9962 262.62C62.4627 263.087 62.4627 259.427 61.9603 256.556C61.7809 255.371 61.5297 253.828 61.422 253.146L61.2426 251.89L61.8527 252.931C62.3551 253.864 62.4986 253.9 62.7857 253.362C62.9651 253.039 63.1087 252.249 63.0728 251.603C63.0369 250.957 63.001 248.697 62.9651 246.543C62.9651 243.637 62.8575 242.847 62.6063 243.493C62.2474 244.318 62.2474 244.283 61.9603 242.919C61.5656 240.873 61.5656 235.167 61.9962 230.861C62.3551 227.272 63.5752 219.629 64.0417 218.157L64.257 217.44L64.5441 218.157C64.7236 218.552 64.7594 220.741 64.6159 223.002C64.4724 226.483 64.5082 227.057 64.903 226.662C65.2977 226.304 65.4054 224.796 65.4413 220.382C65.4772 214.138 66.2308 209.939 67.1997 210.334C67.5227 210.442 68.0969 209.724 68.7787 208.289C69.8194 206.243 69.8912 205.741 69.9271 202.224C69.963 197.128 70.2501 195.513 72.0444 190.92C73.0851 188.192 73.5516 186.362 73.6234 184.819C73.6951 183.527 74.0899 181.769 74.6282 180.477C75.9919 177.175 80.9083 168.347 81.0877 168.885C81.1954 169.137 81.626 168.67 82.0208 167.845C82.6308 166.696 86.1118 158.55 87.7267 154.531C87.8343 154.28 88.1214 154.136 88.3726 154.244C88.6956 154.351 88.9827 153.849 89.2698 152.737C89.4851 151.839 90.2387 149.866 90.9206 148.394C92.356 145.308 92.2842 144.662 90.8488 147.138C90.2746 148.107 88.5521 150.583 86.9731 152.665C85.1429 155.105 83.3127 158.084 81.8772 161.098C80.6212 163.646 79.5805 165.584 79.5805 165.404C79.5805 164.543 80.8006 159.986 82.3437 155.069C83.7792 150.548 84.2457 149.507 85.5735 147.964C86.7936 146.528 87.1166 145.882 87.1166 144.806C87.1166 142.688 88.1214 139.818 89.0186 139.351C89.4492 139.1 90.0234 138.669 90.2746 138.346C92.2484 135.87 93.8991 132.927 95.3346 129.375C96.9854 125.212 100.036 120.367 101.005 120.367C101.794 120.367 100.61 122.879 96.3035 130.236C94.3657 133.609 93.7197 134.937 94.1144 135.009C94.5092 135.116 94.2221 135.87 92.9661 138.167C92.033 139.925 91.4589 141.361 91.6383 141.54C92.1766 142.042 93.0737 141.109 93.5762 139.566C94.2221 137.593 95.3346 136.049 95.9805 136.301C96.3394 136.444 96.77 135.906 97.416 134.435C98.3131 132.533 101.651 127.903 102.584 127.329C102.835 127.186 103.158 127.365 103.337 127.688C103.84 128.549 104.198 128.406 106.1 126.647C107.034 125.75 107.931 125.032 108.038 125.032C108.182 125.032 107.859 125.607 107.392 126.324C106.89 127.042 106.495 127.903 106.495 128.226C106.459 128.549 105.347 130.164 103.983 131.851C101.435 134.901 100.933 135.942 102.081 135.726C103.409 135.475 112.201 121.444 113.672 117.317C113.995 116.348 113.888 116.42 112.56 117.927C111.053 119.685 110.443 120.044 110.443 119.147C110.443 118.86 110.012 118.573 109.51 118.501L108.577 118.393L109.94 117.03C110.658 116.312 111.483 115.702 111.771 115.702C112.022 115.702 112.237 115.451 112.237 115.128C112.237 114.841 112.739 113.872 113.314 113.01C113.924 112.149 114.39 111.324 114.39 111.144C114.39 111.001 115.323 110.463 116.436 109.996C117.548 109.494 120.814 107.592 123.685 105.726C126.556 103.859 129.785 101.922 130.826 101.383C132.692 100.486 132.764 100.486 133.231 101.132C133.841 101.957 133.482 102.209 143.279 94.4931C151.21 88.2848 157.131 83.9067 160.899 81.5382C164.38 79.3132 164.559 79.2414 163.662 80.2463C163.196 80.7128 162.837 81.2152 162.837 81.3228C162.837 81.7894 169.189 79.062 170.983 77.806C172.024 77.0883 173.459 75.7605 174.177 74.8633C176.186 72.3154 177.981 70.4852 178.304 70.6646C178.447 70.7723 180.636 70.1981 183.148 69.4086C185.696 68.6191 188.172 67.9731 188.639 67.9731C189.141 67.9731 191.833 66.6095 194.668 64.9228C199.979 61.693 202.168 60.6882 206.51 59.3604L209.094 58.5709L210.781 59.5757C212.18 60.4011 212.862 60.5806 214.836 60.5447C216.81 60.5447 217.599 60.3294 219.717 59.2528C221.762 58.2121 223.413 57.7455 228.509 56.8125C231.954 56.1665 236.188 55.6282 237.911 55.5565C241.607 55.4847 243.294 55.1258 243.114 54.5875C243.043 54.3363 242.54 54.121 242.038 54.0492C241.5 53.9775 241.069 53.798 241.069 53.6186C241.069 53.3315 245.016 52.7215 246.272 52.865C246.667 52.9009 249.395 52.4344 252.373 51.8243C255.316 51.2142 259.586 50.4965 261.811 50.2094C266.656 49.5635 275.017 49.4917 275.376 50.0659C275.484 50.2812 276.309 50.7836 277.206 51.1783C278.068 51.5372 278.678 52.0037 278.57 52.219C278.247 52.7215 275.233 52.6138 274.91 52.0755C274.048 50.6042 268.558 49.9941 263.713 50.7836C261.56 51.1425 261.273 51.286 261.452 51.8961C261.56 52.3267 261.237 52.9727 260.591 53.6904L259.55 54.767L261.165 54.4799C262.062 54.3005 266.584 54.2287 271.213 54.3363C278.75 54.4799 289.444 54.4799 294.898 54.3363C299.276 54.2287 318.547 58.7145 325.509 61.4777C326.981 62.0878 328.488 62.5184 328.847 62.5184C329.744 62.4466 336.598 66.1429 336.347 66.5377C336.239 66.7171 336.67 67.1477 337.316 67.4707C339.039 68.332 341.622 70.1622 341.443 70.3416C341.156 70.6646 336.562 69.4445 335.055 68.655C334.23 68.2602 333.476 68.009 333.368 68.1167C333.117 68.4038 333.189 68.4397 335.27 69.5162C337.244 70.5569 336.742 70.7723 334.373 69.9469C333.512 69.6598 332.758 69.4445 332.687 69.5521C332.615 69.6239 334.696 70.4493 337.316 71.3823C342.842 73.3561 343.632 73.7149 345.211 75.1145C346 75.7605 347.292 76.3346 349.087 76.7294C354.757 78.0931 360.714 81.0358 363.979 84.0861C364.769 84.8397 366.025 85.8086 366.779 86.2393C367.496 86.7058 368.106 87.2441 368.142 87.4594C368.142 87.7106 369.721 88.8949 371.623 90.1509C374.279 91.8734 374.781 92.1246 373.669 91.1198C372.449 90.0073 372.341 89.8638 373.131 90.0791C374.638 90.4739 376.755 91.694 377.724 92.6629C378.513 93.4165 379.124 93.596 381.42 93.8113C383.466 93.9907 384.614 94.3137 385.834 95.0314C387.916 96.2515 394.519 101.85 395.057 102.855C395.416 103.501 395.344 103.536 394.591 103.321C394.16 103.178 392.043 102.245 389.889 101.24C387.772 100.271 385.942 99.5172 385.834 99.6607C385.727 99.7684 386.265 100.199 387.054 100.594C389.566 101.886 397.174 108.489 397.174 109.422C397.174 109.601 397.892 110.247 398.789 110.786C399.686 111.36 401.014 112.544 401.804 113.405C402.557 114.266 403.454 114.984 403.742 114.984C404.065 114.984 405.428 115.415 406.828 115.917C409.124 116.779 409.627 117.173 412.462 120.224C414.149 122.09 415.44 123.597 415.297 123.597C415.153 123.597 415.871 124.494 416.876 125.607C419.316 128.262 419.209 128.908 416.732 126.468C415.656 125.391 414.759 124.674 414.759 124.889C414.759 125.642 416.409 127.724 417.594 128.442C418.24 128.836 419.819 130.092 421.146 131.205C423.73 133.466 424.268 133.717 423.91 132.461C423.694 131.707 423.694 131.707 424.412 132.568C424.807 133.071 425.812 134.686 426.601 136.193C427.391 137.7 428.252 139.136 428.575 139.387C429.436 140.105 429.221 140.499 428.216 140.033C427.714 139.818 427.247 139.71 427.139 139.818C427.032 139.925 427.749 141.361 428.79 143.011C431.876 148.035 431.661 147.784 432.02 147.246C432.163 146.959 432.235 146.349 432.092 145.846C431.876 144.877 432.056 144.985 433.42 146.744C434.173 147.748 434.209 147.784 433.958 146.923C433.599 145.631 437.546 151.624 439.197 154.89C439.951 156.433 440.597 157.94 440.597 158.227C440.597 158.55 441.063 159.483 441.637 160.309C442.176 161.134 444.078 164.22 445.8 167.199C447.523 170.141 449.532 173.479 450.25 174.555C451.363 176.278 451.542 176.422 451.65 175.704C451.722 175.237 451.542 174.591 451.255 174.268C450.968 173.945 450.286 172.797 449.748 171.72C449.03 170.249 448.922 169.854 449.353 169.998C449.82 170.177 449.927 169.998 449.927 169.101C449.927 168.024 449.963 167.988 450.609 168.598C451.686 169.603 453.731 174.017 455.274 178.718C456.638 182.989 458.432 187.008 458.755 186.649C458.863 186.542 458.181 183.994 457.248 180.979C455.023 173.622 452.69 167.737 452.224 168.204C452.116 168.311 452.296 168.921 452.619 169.531C452.942 170.177 453.049 170.608 452.87 170.464C452.296 170.106 447.056 163.144 447.056 162.749C447.056 162.534 446.267 160.739 445.262 158.765C444.293 156.792 443.468 155.105 443.468 154.997C443.468 154.244 444.437 155.715 445.98 158.765C446.949 160.703 447.918 162.39 448.133 162.534C448.671 162.857 448.061 161.385 445.764 156.792C443.934 153.167 442.642 151.05 443.324 152.808C443.97 154.459 442.535 152.593 437.941 145.667C435.25 141.612 432.056 137.09 430.907 135.619C429.723 134.147 428.754 132.748 428.754 132.533C428.754 132.317 428.18 131.205 427.498 130.056C426.816 128.908 426.242 127.796 426.242 127.509C426.242 126.863 428.18 128.8 428.97 130.272C429.328 130.954 429.795 131.492 429.939 131.492C430.441 131.492 429.974 130.631 427.857 127.544C425.776 124.638 422.474 121.444 421.469 121.444C420.931 121.444 414.041 114.446 414.041 113.872C414.041 113.692 413.503 113.333 412.893 113.046C411.565 112.436 404.065 105.474 404.387 105.151C404.746 104.757 410.883 109.601 413.754 112.544C415.261 114.087 416.768 115.343 417.055 115.343C417.988 115.343 423.658 120.367 429.293 126.181C435.429 132.461 436.865 134.255 439.7 139.028C440.848 140.894 442.463 143.442 443.324 144.698C444.185 145.954 444.903 147.067 444.903 147.21C444.903 147.641 452.367 158.765 452.655 158.765C452.762 158.765 452.655 158.443 452.439 158.012C452.188 157.617 452.08 157.187 452.188 157.115C452.367 156.899 455.741 162.067 456.602 163.933C457.104 164.974 457.392 165.153 458.038 165.01C458.719 164.83 459.006 165.081 459.939 166.732C460.55 167.773 461.483 169.926 461.985 171.505C462.99 174.448 464.21 177.247 464.461 176.996C464.712 176.745 463.672 171.505 463.241 170.644C462.99 170.177 462.164 168.85 461.411 167.701C459.545 164.83 457.894 160.057 457.499 156.505C457.32 154.89 457.212 153.49 457.284 153.418C457.356 153.347 457.93 153.67 458.54 154.1C459.15 154.531 459.724 154.818 459.832 154.71C460.191 154.351 458.863 152.234 456.997 150.225C453.982 146.923 452.439 144.913 452.439 144.303C452.439 143.98 451.973 143.191 451.399 142.545C450.25 141.217 447.272 135.081 447.774 135.081C447.953 135.081 448.528 135.691 449.066 136.408C449.64 137.162 450.214 137.916 450.358 138.131C451.04 138.92 448.922 134.578 446.159 129.518C442.104 122.09 440.597 119.075 440.597 118.25C440.597 117.245 433.671 108.668 432.63 108.381C432.163 108.273 431.446 108.166 431.015 108.166C430.584 108.166 429.508 107.592 428.611 106.91C427.678 106.228 426.852 105.654 426.745 105.654C426.493 105.654 429.831 109.996 430.549 110.606C431.948 111.79 432.415 111.719 431.266 110.498C430.369 109.529 430.226 109.207 430.728 109.422C431.123 109.565 431.912 109.781 432.486 109.888C434.209 110.175 437.762 115.235 440.812 121.731C441.673 123.597 442.355 125.212 442.283 125.248C442.212 125.319 441.279 124.494 440.238 123.417C439.161 122.341 438.085 121.444 437.869 121.444C437.618 121.444 437.044 120.905 436.613 120.259C436.147 119.649 434.604 117.855 433.168 116.348C431.733 114.805 430.549 113.405 430.549 113.19C430.549 112.975 429.221 111.431 427.606 109.745C425.955 108.058 424.556 106.515 424.484 106.264C424.304 105.654 421.864 103.142 421.469 103.142C421.29 103.142 421.218 103.393 421.362 103.68C421.613 104.398 421.362 104.362 419.89 103.465C418.527 102.603 416.194 99.7325 416.194 98.8712C416.194 98.5483 416.517 98.0817 416.948 97.8305C417.594 97.3999 417.809 97.4358 418.491 98.0459C419.998 99.4454 422.295 100.701 422.833 100.486C423.623 100.199 424.412 100.666 427.175 102.998C428.898 104.47 429.544 104.828 429.687 104.434C429.974 103.716 429.077 102.137 426.637 99.1225C423.802 95.6415 421.972 93.883 422.044 94.7443C422.079 95.1391 421.792 95.462 421.218 95.6056C420.5 95.785 420.321 96.0362 420.357 96.9334L420.429 98.0459L418.204 96.5028C417.019 95.6774 414.328 94.1343 412.247 93.0577C409.089 91.4428 407.94 90.5815 405.069 87.7465C402.629 85.3421 401.05 84.122 399.507 83.4042C397.497 82.4712 392.617 78.5237 393.012 78.129C393.299 77.8419 396.78 79.708 400.332 82.0406C402.163 83.2607 403.742 84.1579 403.849 84.0502C403.921 83.9425 403.096 83.0095 401.947 81.9688C400.476 80.641 398.466 79.385 394.842 77.6266C389.315 74.9351 386.157 72.9613 384.973 71.4541C383.753 69.911 384.794 70.234 388.669 72.6384C392.222 74.8274 394.806 76.227 395.236 76.227C395.38 76.227 394.411 75.2222 393.083 74.0379C390.32 71.49 390.177 70.844 392.832 72.9613C393.837 73.7508 395.918 75.1504 397.461 76.0476C400.368 77.806 403.347 80.1745 402.593 80.1745C402.127 80.1745 403.131 81.9688 403.885 82.4353C405.033 83.153 409.196 86.6699 413.108 90.1509C415.44 92.2682 417.486 94.0266 417.665 94.0984C419.388 94.7443 412.354 87.1723 407.868 83.5478C406.361 82.3277 403.777 80.1386 402.127 78.739C398 75.1504 395.631 73.3561 392.689 71.6335C389.746 69.911 387.629 68.1885 388.741 68.4397C389.136 68.5473 389.746 68.7267 390.105 68.8703C391.325 69.3727 390.679 68.4755 388.956 67.3272C387.485 66.3224 387.09 66.1788 386.516 66.5377C385.942 66.8965 385.547 66.8248 384.219 66.1788C381.348 64.7075 376.934 61.693 373.848 59.0016C369.829 55.5206 367.64 54.1928 364.015 52.9009C362.365 52.2908 357.053 50.2094 352.245 48.1998C342.304 44.0729 333.225 40.5201 331.754 40.1612C331.179 40.0177 330.785 39.6588 330.785 39.3C330.785 38.1157 329.995 37.8286 326.909 37.8286C325.258 37.8286 322.423 37.6492 320.557 37.4339C316.071 36.8956 315.318 37.1468 318.332 38.1516C319.696 38.6181 320.701 39.0488 320.629 39.1564C320.306 39.4435 311.657 38.1157 309.468 37.4339C307.746 36.9315 307.279 36.8956 306.884 37.2545C306.382 37.7927 305.09 37.721 298.487 36.8956C296.226 36.6085 293.858 36.3932 293.212 36.3932C292.566 36.3932 292.027 36.2138 292.027 36.0343C292.027 35.819 291.489 35.4243 290.879 35.1372C289.767 34.6706 289.946 34.6348 293.822 34.6348C296.083 34.6348 299.922 34.8501 302.327 35.0654C304.767 35.3166 306.597 35.3884 306.454 35.2807C305.7 34.5271 299.348 33.8094 290.951 33.4864C285.927 33.307 281.046 33.0199 280.113 32.8404C279.144 32.6969 278.391 32.6251 278.391 32.6969C278.391 32.7687 279.108 33.1634 280.006 33.5582C281.082 34.0247 282.805 34.3477 284.958 34.4912C287.219 34.6348 288.654 34.9218 289.515 35.3884L290.771 36.0702L289.515 35.8549C286.644 35.3166 283.056 34.9936 280.113 34.9577C278.391 34.9577 276.273 34.7424 275.448 34.4553C274.587 34.1682 272.182 33.8453 270.065 33.7017C266.189 33.4505 265.579 33.1993 266.62 32.1586C267.589 31.1897 266.333 30.9385 261.632 31.082C257.756 31.1897 256.787 31.3332 255.352 32.0509C254.024 32.6969 253.306 32.8046 252.194 32.6251C250.722 32.3739 250.579 32.2304 251.045 31.5126C251.368 30.9743 257.361 29.6824 260.77 29.3595C262.708 29.18 263.462 29.2518 264.108 29.6466C265.113 30.2925 270.496 30.759 272.29 30.3643C273.151 30.1848 273.69 29.7901 274.013 29.1083C274.335 28.4623 274.874 28.0317 275.556 27.8881C276.13 27.7805 276.56 27.601 276.453 27.5293C276.381 27.4575 274.802 27.1345 272.972 26.8833C268.809 26.2374 261.381 26.2732 256.895 26.9192ZM259.73 41.3814C258.33 41.8479 257.756 42.1709 257.792 42.6015C257.828 42.9245 257.828 43.2116 257.792 43.2116C257.792 43.2116 256.392 43.4628 254.706 43.7499C251.44 44.3241 241.428 44.4676 242.684 43.9293C243.079 43.7499 243.94 43.6063 244.586 43.6063C246.129 43.5704 245.734 42.8527 244.155 42.8527C242.756 42.8527 234.538 44.3958 231.774 45.1853C230.662 45.5083 229.442 46.0825 229.047 46.4413C228.652 46.7643 227.612 47.1591 226.714 47.2667C224.848 47.5179 220.614 47.1591 220.614 46.8002C220.614 46.6567 221.116 46.3337 221.762 46.0466C225.315 44.5753 217.204 46.3337 210.207 48.5228C208.341 49.1328 205.613 49.9582 204.214 50.3888C202.778 50.7836 201.594 51.3219 201.594 51.5013C201.594 51.7166 201.809 51.8243 202.06 51.7166C202.348 51.609 204.393 51.4295 206.654 51.3219C210.637 51.0707 210.709 51.1066 209.884 51.7166C209.417 52.0755 208.448 52.9009 207.731 53.5827C207.013 54.2287 205.864 55.0541 205.183 55.4129C203.927 56.0589 201.343 56.7048 200.769 56.5613C200.625 56.5254 199.225 56.8125 197.646 57.2072C196.103 57.602 194.56 57.925 194.201 57.925C193.627 57.925 193.627 57.8891 194.201 57.2431C194.811 56.5613 194.776 56.5613 193.591 56.6689C192.371 56.7766 186.27 59.1451 185.625 59.7552C185.05 60.2935 185.983 60.114 188.675 59.1451C190.11 58.6427 191.33 58.2838 191.402 58.3915C191.725 58.6786 188.531 60.3294 183.112 62.6978C180.17 63.9898 175.899 65.8558 173.674 66.8607C169.906 68.5473 166.138 69.8751 162.621 70.8082C160.289 71.4182 158.746 72.6384 158.602 73.9661C158.459 75.5093 157.023 76.6935 152.466 79.062C149.702 80.5333 148.554 81.3587 147.944 82.2918C147.513 83.0095 146.796 83.9067 146.365 84.2655C145.97 84.6603 145.611 85.2344 145.611 85.5574C145.611 85.9163 144.714 86.7417 143.566 87.5312C141.233 89.0384 139.869 90.1868 139.869 90.6533C139.869 91.2992 140.695 90.8327 144.355 88.0695C147.729 85.5215 149.559 84.6244 149.559 85.4498C149.559 85.6292 148.949 86.2393 148.231 86.8852C147.477 87.5312 147.083 88.0336 147.334 88.0695C147.585 88.0695 149.092 86.8134 150.743 85.2344C153.793 82.3277 155.624 81.1075 156.664 81.3228C157.095 81.4305 156.772 81.7535 155.695 82.2918C154.798 82.7583 153.183 84.0502 152.035 85.1627C149.631 87.5312 147.083 89.7202 143.638 92.3758C142.274 93.4524 140.551 94.8161 139.834 95.462C138.47 96.6463 137.106 97.2564 136.711 96.8975C136.604 96.754 137.609 95.4979 139.008 94.0984C141.736 91.2992 141.484 91.1916 138.398 93.883C137.286 94.8161 136.281 95.6056 136.137 95.6056C135.778 95.6056 135.886 93.8113 136.281 93.0577C136.747 92.2682 132.118 95.0673 130.467 96.6104C129.893 97.1128 129.462 97.3281 129.462 97.1128C129.462 96.2874 128.637 96.6822 125.659 98.8354C122.034 101.491 120.814 101.922 123.039 99.8402C125.084 97.9023 129.462 94.852 132.692 93.1294C134.02 92.4117 136.855 90.6533 139.008 89.2178C142.13 87.1005 143.063 86.2752 143.889 84.8397C144.463 83.8349 144.822 83.0454 144.75 83.0454C144.642 83.0454 142.992 84.2655 141.09 85.7727C138.865 87.4953 137.429 88.3924 137.07 88.2489C136.711 88.1054 135.886 88.6436 134.774 89.7561C133.841 90.6892 133.051 91.2992 133.051 91.1557C133.051 90.6174 136.353 86.1675 138.219 84.1937C139.188 83.1889 139.798 82.3277 139.582 82.3277C139.367 82.3277 137.68 83.3325 135.85 84.5526C133.446 86.1316 130.396 88.859 124.977 94.1701C120.85 98.2253 116.866 101.957 116.185 102.46C115.503 102.926 112.739 105.474 110.084 108.094C105.096 113.046 101.22 116.384 97.9902 118.429C95.8011 119.865 92.033 121.587 92.2125 121.085C92.2842 120.905 93.3608 119.291 94.6169 117.496C96.5906 114.697 97.0571 114.231 97.739 114.41C98.6002 114.625 100.789 112.293 108.074 103.321C112.883 97.3999 116.795 93.1294 120.922 89.3255C124.977 85.5574 126.304 84.8397 123.182 88.0695C121.998 89.2896 121.352 90.1509 121.747 89.9356C122.644 89.469 124.151 87.8541 126.735 84.5885C127.848 83.153 129.534 81.4664 130.467 80.8563C131.472 80.1386 131.903 79.9592 131.544 80.4257C131.185 80.8204 130.898 81.2152 130.898 81.287C130.898 81.7176 135.599 79.1338 137.357 77.6983C142.705 73.4279 150.205 69.1215 161.222 64.0256C165.169 62.1954 168.614 60.4011 168.902 60.0064C169.619 59.0374 173.423 56.4895 174.177 56.4895C174.679 56.4895 174.715 56.5613 174.284 57.0637C173.854 57.602 173.89 57.6379 174.679 57.3508C176.043 56.8843 179.057 56.956 179.237 57.4943C179.344 57.7814 177.873 58.6786 175.182 59.8987C172.885 61.0112 171.055 61.9801 171.162 62.0878C171.521 62.4108 176.976 60.7241 179.632 59.4681C181.354 58.6786 182.359 57.9609 182.574 57.4226C183.005 56.3101 192.874 50.03 196.032 48.8816C199.297 47.6974 204.429 46.2978 204.68 46.549C204.788 46.6567 206.187 46.1901 207.766 45.5083C209.812 44.647 210.781 44.3958 211.104 44.647C212.037 45.4365 215.697 45.4365 218.999 44.6829C220.793 44.2882 224.741 43.391 227.791 42.6733C231.451 41.8479 234.645 41.3455 237.086 41.2378C239.131 41.1302 240.925 40.9866 240.997 40.879C241.105 40.7713 245.806 40.6995 251.44 40.7354C261.704 40.7713 261.704 40.7713 259.73 41.3814ZM285.209 45.0059C290.233 45.2212 297.985 45.6518 302.434 45.9389C310.006 46.4772 310.975 46.6208 318.44 48.451C326.622 50.4247 328.667 51.0348 327.411 51.0707C326.084 51.1425 327.519 52.0755 330.175 52.865C331.574 53.2956 334.23 54.1569 335.988 54.7311C337.782 55.3053 339.936 55.8794 340.761 55.9512C342.627 56.1307 344.637 56.7407 345.785 57.4584C346.431 57.8532 346.539 58.0685 346.216 58.4633C345.929 58.8221 346.108 59.0733 347.005 59.6475C348.297 60.437 355.546 64.2051 356.336 64.4922C356.587 64.5639 356.73 64.7434 356.623 64.851C356.515 64.9587 355.439 64.851 354.29 64.5639C351.348 63.8821 351.025 63.8821 351.993 64.7434L352.855 65.4611L351.958 65.2817C351.455 65.174 349.23 64.7075 346.969 64.2051C342.232 63.1644 342.125 63.1644 343.453 63.8821C343.991 64.1692 345.929 64.7434 347.759 65.1022C351.599 65.9276 354.828 67.1477 354.828 67.7937C354.828 68.009 354.434 68.4038 353.931 68.6191C351.993 69.5162 343.201 66.7889 344.816 65.7841C345.498 65.3893 344.96 64.9587 342.986 64.4204C342.089 64.1692 340.474 63.4156 339.397 62.7337C338.105 61.9442 336.491 61.3701 334.66 61.0112C333.117 60.7241 331.502 60.2935 331.072 60.0423C330.031 59.504 328.631 58.2479 328.631 57.8532C328.631 57.6738 328.99 57.5661 329.457 57.6379C330.067 57.7096 330.21 57.602 330.139 57.0637C330.031 56.4536 330.175 56.4177 331.395 56.5972L332.758 56.8125L331.718 56.2383C331.144 55.9512 329.242 55.5565 327.519 55.4129C324.182 55.1617 323.464 54.8387 323.105 53.4751C322.926 52.7573 322.136 52.3626 317.435 50.8195C314.421 49.8147 310.581 48.6663 308.93 48.2357C305.413 47.3385 301.358 46.8002 301.358 47.2308C301.358 47.3744 301.573 47.5179 301.824 47.5179C302.076 47.5538 302.004 47.7333 301.609 48.0203C301.035 48.451 301.107 48.5228 302.327 48.774C303.942 49.061 306.203 49.9582 305.951 50.2094C305.88 50.3171 302.901 49.9941 299.384 49.4917C292.027 48.451 291.094 48.4151 293.822 49.2764L295.796 49.8864L291.669 50.1376C285.927 50.4965 283.128 50.4606 279.324 49.9941C275.412 49.5276 272.972 48.9534 273.187 48.5945C273.295 48.4151 274.551 48.1998 276.022 48.0562C278.032 47.8768 278.893 47.9127 279.683 48.3433C280.544 48.8098 281.046 48.8098 282.266 48.4869C283.092 48.2716 283.774 47.9845 283.774 47.8409C283.774 47.6974 281.872 47.2308 279.575 46.8002C271.07 45.2212 268.163 44.1805 273.223 44.4676C274.766 44.5753 280.185 44.8265 285.209 45.0059ZM82.6667 146.385C81.5542 148.861 80.3341 152.091 79.9394 153.49C79.0781 156.612 77.8221 159.196 75.7765 162.246C74.9153 163.467 74.2693 164.507 74.377 164.507C74.6641 164.507 73.408 168.275 71.6496 172.582C70.7166 174.95 69.6759 178.001 69.3529 179.328C68.5993 182.522 67.0921 185.716 65.0465 188.336C63.9699 189.735 63.1804 191.278 62.678 192.929C61.8527 195.621 61.9603 196.41 62.8934 194.759L63.4675 193.755L63.2522 195.549C62.9292 198.097 58.8382 214.102 58.4076 214.533C57.8334 215.107 57.9769 214.03 58.7664 211.662C59.6995 208.97 59.52 207.966 58.4793 209.975C58.0487 210.837 57.5822 211.518 57.4745 211.518C57.1515 211.518 57.6898 207.607 58.1564 206.602C58.6229 205.525 58.1564 205.023 57.4745 205.92C57.008 206.602 56.9721 206.566 56.9003 205.382C56.7568 202.475 57.7257 199.102 59.843 195.047C60.5607 193.683 60.6684 193.755 60.5607 195.728C60.5249 196.41 60.5966 196.877 60.7043 196.769C60.9555 196.518 63.0728 189.484 62.9292 189.377C62.8575 189.305 62.5345 189.843 62.1397 190.525C61.4579 191.817 61.099 191.996 60.3095 191.494C59.9507 191.278 60.3813 189.664 61.9603 184.927C64.1135 178.431 64.9748 176.493 66.7332 173.91C67.738 172.474 68.8146 171.9 68.8146 172.833C68.8505 173.299 71.3984 167.486 71.9008 165.871C72.1161 165.081 72.1161 165.081 71.4343 165.656C71.0395 166.015 70.5013 166.302 70.1783 166.302C69.3529 166.302 68.5993 167.378 67.9174 169.424C67.3433 171.218 66.6614 171.936 66.6614 170.823C66.6614 169.89 67.3791 168.347 69.6041 164.436C71.5778 160.955 71.9008 160.596 72.6185 160.775C73.5157 161.026 74.054 160.201 74.2693 158.191C74.4487 156.684 73.6592 156.792 72.5468 158.371C71.9726 159.16 71.3984 159.842 71.2908 159.842C70.7883 159.842 73.9105 151.732 75.3818 149.112C76.9967 146.277 77.6785 145.775 78.6474 146.744C79.1857 147.318 79.2934 147.282 79.9394 146.492C80.9801 145.272 80.8006 146.062 79.5446 148.287C78.9345 149.363 78.5398 150.296 78.6116 150.368C78.9345 150.691 80.5494 148.394 82.0925 145.452C83.7433 142.222 84.2457 141.432 84.4969 141.684C84.6046 141.755 83.7433 143.873 82.6667 146.385ZM55.3572 214.748C55.6443 215.179 55.2496 218.014 54.8189 218.732C54.2448 219.593 54.1012 218.875 54.3165 216.614C54.5677 214.497 54.8548 213.959 55.3572 214.748ZM50.1537 228.385C50.7638 233.23 51.4097 237.823 51.5892 238.613C51.9839 240.263 51.9839 248.374 51.5892 251.532C51.4097 253.039 51.3021 251.496 51.2662 246.328C51.1944 236.854 50.7279 235.849 48.9695 241.483C48.4671 243.062 47.6417 246.292 47.1393 248.661C46.601 251.029 46.0986 253.111 46.0268 253.326C45.3808 254.725 46.8881 234.593 47.8211 229.103C48.1082 227.452 48.2159 226.016 48.0364 225.873C47.8929 225.765 47.8929 224.437 48.0364 222.93C48.2876 220.418 48.6106 219.162 48.8977 219.485C48.9695 219.557 49.5436 223.576 50.1537 228.385ZM52.9887 266.676C53.2041 267.25 53.6347 268.793 53.9218 270.192C54.2448 271.556 54.9625 274.104 55.5367 275.791C56.6491 279.021 57.4745 285.444 56.7209 284.978C56.5056 284.834 56.2544 284.009 56.1826 283.147C56.075 282.214 55.5008 280.743 54.7831 279.631C53.7423 277.944 53.5988 277.442 53.6347 275.468C53.6706 273.853 53.5629 273.243 53.2758 273.35C53.0246 273.422 52.8093 273.996 52.7375 274.607C52.594 276.078 52.0916 276.078 51.8045 274.642C51.5174 273.135 51.5174 266.245 51.8404 265.958C52.271 265.491 52.594 265.707 52.9887 266.676ZM38.6342 289.571L38.6342 290.289L38.3112 289.571C38.1318 289.176 37.9883 288.602 37.9883 288.315C37.9524 287.849 37.9883 287.849 38.3112 288.315C38.4907 288.602 38.6342 289.176 38.6342 289.571ZM58.5511 312.574C58.8741 312.718 59.1253 313.22 59.1253 313.794C59.1253 315.373 58.5152 315.373 58.1205 313.794C57.941 313.005 57.8334 312.359 57.8693 312.359C57.941 312.359 58.2281 312.467 58.5511 312.574ZM64.0776 326.785C65.2977 329.405 67.1638 333.639 68.2763 336.223C69.3888 338.771 71.3266 342.898 72.6185 345.338C73.8746 347.779 74.9153 349.968 74.9153 350.255C74.9153 351.439 74.1975 350.506 72.0444 346.594C70.7525 344.298 69.6759 342.575 69.64 342.755C69.2093 344.047 77.0326 357.504 78.2527 357.612C78.5039 357.647 78.8987 357.683 79.1499 357.719C79.4011 357.719 80.0829 358.58 80.6571 359.621C81.5542 361.164 81.626 361.487 81.1595 361.667C80.8365 361.774 80.3341 361.738 80.0111 361.559C79.0781 361.057 75.5253 357.217 74.5923 355.674C73.3004 353.592 73.3004 354.346 74.5564 356.858C75.1665 358.078 75.4895 358.975 75.2741 358.832C74.7358 358.509 73.5157 355.961 70.3577 348.819C67.2356 341.678 66.2308 339.274 66.482 339.274C66.5896 339.274 66.9844 339.92 67.3791 340.745C67.8098 341.57 68.2404 342.145 68.3122 342.037C68.4198 341.929 67.1997 338.735 65.6207 334.896C63.2163 329.082 61.2785 323.448 61.2785 322.335C61.2785 321.259 62.1756 322.694 64.0776 326.785ZM112.022 382.301C112.596 382.876 112.847 383.414 112.668 383.557C112.273 383.809 110.084 382.122 110.084 381.584C110.084 380.938 111.053 381.297 112.022 382.301Z" fill="#ffffff" fill-rule="nonzero" opacity="1" stroke="none"/>
<path d="M197.467 53.4392C195.996 54.0851 197.359 54.121 199.082 53.4392C200.194 53.0085 200.23 52.9368 199.441 52.9368C198.938 52.9368 198.077 53.1521 197.467 53.4392Z" fill="#ffffff" fill-rule="nonzero" opacity="1" stroke="none"/>
<path d="M174.249 62.4108C172.275 63.4515 171.808 64.0256 172.957 64.0256C173.423 64.0256 174.428 63.4515 175.218 62.7696C176.904 61.3342 176.581 61.1906 174.249 62.4108Z" fill="#ffffff" fill-rule="nonzero" opacity="1" stroke="none"/>
<path d="M162.478 67.6502C160.612 68.4038 158.746 69.0497 158.351 69.0497C157.705 69.0497 148.482 73.5714 148.482 73.8944C148.482 73.9661 148.805 73.9303 149.2 73.8226C150.528 73.4637 149.918 74.2891 147.477 76.1552C145.001 78.0213 144.248 78.3084 143.602 77.6624C143.35 77.4112 142.489 77.8419 141.018 78.9543C139.798 79.8515 138.793 80.6769 138.793 80.7487C138.793 80.9999 140.157 80.2104 140.408 79.8156C140.803 79.1697 141.341 79.4568 141.126 80.1745C140.803 81.1434 141.018 81.1075 142.992 79.6721C145.468 77.9136 146.76 77.3395 147.764 77.5189C148.375 77.6624 149.415 77.2318 151.066 76.2629C152.394 75.4375 153.542 74.7915 153.65 74.7915C153.757 74.7915 154.619 74.2532 155.552 73.6073C156.521 72.9254 159.069 71.3106 161.258 70.0187C168.04 65.9635 168.399 65.2099 162.478 67.6502Z" fill="#ffffff" fill-rule="nonzero" opacity="1" stroke="none"/>
<path d="M112.416 102.316C110.981 103.07 109.725 104.218 109.725 104.828C109.725 105.654 110.227 105.367 112.058 103.501C113.995 101.527 113.995 101.455 112.416 102.316Z" fill="#ffffff" fill-rule="nonzero" opacity="1" stroke="none"/>
<path d="M101.686 113.621C101.184 114.266 100.861 114.841 100.969 114.948C101.112 115.128 101.938 114.195 102.584 113.082C103.158 112.077 102.655 112.364 101.686 113.621Z" fill="#ffffff" fill-rule="nonzero" opacity="1" stroke="none"/>
<path d="M285.568 48.9534C285.568 49.1328 286.25 49.3123 287.111 49.2764C288.403 49.2405 288.475 49.2046 287.721 48.9534C286.429 48.5228 285.568 48.5228 285.568 48.9534Z" fill="#ffffff" fill-rule="nonzero" opacity="1" stroke="none"/>
<path d="M342.807 60.6523C343.56 61.4418 346.826 62.8055 347.185 62.4466C347.328 62.339 342.519 59.7193 342.161 59.7193C342.017 59.7193 342.34 60.1499 342.807 60.6523Z" fill="#ffffff" fill-rule="nonzero" opacity="1" stroke="none"/>
<path d="M76.0636 156.325C75.0588 157.94 74.054 160.56 74.3411 160.811C74.4487 160.919 75.1306 159.77 75.8483 158.263C77.1761 155.32 77.3197 154.316 76.0636 156.325Z" fill="#ffffff" fill-rule="nonzero" opacity="1" stroke="none"/>
<path d="M285.927 28.7135C285.424 28.9647 283.953 29.2877 282.661 29.4312C281.333 29.5389 280.041 29.7901 279.79 29.9695C278.75 30.6155 279.97 30.7231 283.235 30.2925C285.101 30.0413 287.219 29.9336 287.901 30.0413C289.3 30.2566 289.264 29.9695 287.793 28.9288C286.967 28.3546 286.716 28.3188 285.927 28.7135Z" fill="#ffffff" fill-rule="nonzero" opacity="1" stroke="none"/>
<path d="M214.872 30.6514C199.836 33.1993 189.034 35.5678 189.034 36.3573C189.034 36.5008 189.393 36.8238 189.859 37.0032C190.613 37.3621 190.541 37.4339 188.675 38.331C186.235 39.4794 185.625 39.5153 186.163 38.5822C187.096 36.8238 183.866 37.5057 181.211 39.6229C180.242 40.4124 179.309 41.0584 179.165 41.0584C178.806 41.0584 173.961 44.2523 173.961 44.5035C173.961 44.7188 175.074 44.1446 176.689 43.0321C177.981 42.1709 181.713 41.1661 182.144 41.5967C182.287 41.7402 181.821 42.3144 181.139 42.8886C180.457 43.4269 180.026 43.9293 180.17 43.9293C180.708 43.9293 182.538 42.8527 182.825 42.3503C182.969 42.0991 184.584 41.4173 186.342 40.879C188.137 40.3766 191.366 38.977 193.52 37.8286C199.225 34.8501 205.254 33.0558 208.412 33.4146C209.668 33.5582 211.032 33.2711 214.513 32.1227C219.25 30.5796 222.875 29.9336 223.269 30.5796C223.377 30.7949 222.803 31.0461 221.798 31.1897C218.604 31.6562 211.283 34.2759 211.283 34.9218C211.283 35.0654 212.755 34.8142 214.585 34.3477C216.415 33.8811 220.075 33.2352 222.767 32.9122C225.422 32.5892 227.683 32.2663 227.755 32.1945C227.863 32.1227 227.576 31.8356 227.145 31.5126C226.14 30.7949 226.14 30.4361 227.289 29.3954C227.863 28.8571 228.042 28.4982 227.755 28.5341C227.468 28.5341 221.69 29.503 214.872 30.6514Z" fill="#ffffff" fill-rule="nonzero" opacity="1" stroke="none"/>
<path d="M234.968 29.2159C234.573 29.4671 234.789 29.5748 235.794 29.5748C236.511 29.5748 237.121 29.3954 237.121 29.2159C237.121 28.7494 235.686 28.7494 234.968 29.2159Z" fill="#ffffff" fill-rule="nonzero" opacity="1" stroke="none"/>
<path d="M200.158 36.3932C199.871 36.5726 199.8 36.752 199.979 36.752C200.194 36.752 200.589 36.5726 200.876 36.3932C201.163 36.2138 201.271 36.0343 201.056 36.0343C200.876 36.0343 200.446 36.2138 200.158 36.3932Z" fill="#ffffff" fill-rule="nonzero" opacity="1" stroke="none"/>
<path d="M254.167 52.9368C253.773 53.0803 252.804 53.2239 252.05 53.2239C250.974 53.2597 250.722 53.3674 251.009 53.6545C251.476 54.121 255.423 53.7622 255.423 53.2597C255.423 52.7573 254.921 52.6138 254.167 52.9368Z" fill="#ffffff" fill-rule="nonzero" opacity="1" stroke="none"/>
<path d="M325.33 63.918C325.581 64.0256 325.904 63.9898 326.012 63.8821C326.155 63.7744 325.94 63.6668 325.545 63.7027C325.151 63.7027 325.043 63.8103 325.33 63.918Z" fill="#ffffff" fill-rule="nonzero" opacity="1" stroke="none"/>
<path d="M199.943 65.174L199.261 65.9994L200.087 65.3175C200.84 64.6716 201.056 64.3845 200.769 64.3845C200.697 64.3845 200.338 64.7434 199.943 65.174Z" fill="#ffffff" fill-rule="nonzero" opacity="1" stroke="none"/>
<path d="M324.648 66.8965C325.545 67.2913 326.514 67.5784 326.801 67.5066C327.483 67.3272 325.761 66.5736 324.146 66.3224C323.249 66.1788 323.32 66.2865 324.648 66.8965Z" fill="#ffffff" fill-rule="nonzero" opacity="1" stroke="none"/>
<path d="M116.292 76.2629C114.354 77.9495 113.744 78.8826 115.323 77.7701C116.508 76.9088 118.589 74.7915 118.23 74.7915C118.122 74.7915 117.261 75.4734 116.292 76.2629Z" fill="#ffffff" fill-rule="nonzero" opacity="1" stroke="none"/>
<path d="M401.84 77.1241C401.84 77.3036 404.926 79.4568 405.213 79.4568C405.823 79.4568 405.249 78.8108 403.849 77.9136C402.342 76.9806 401.84 76.7653 401.84 77.1241Z" fill="#ffffff" fill-rule="nonzero" opacity="1" stroke="none"/>
<path d="M111.34 80.2104C109.33 82.2559 110.12 82.0406 112.596 79.8515C113.565 78.9902 113.995 78.3802 113.672 78.3802C113.35 78.3802 112.309 79.2055 111.34 80.2104Z" fill="#ffffff" fill-rule="nonzero" opacity="1" stroke="none"/>
<path d="M91.9254 97.8664C89.3416 100.666 86.7578 103.536 86.1836 104.218C85.2864 105.367 85.2505 105.403 86.04 104.757C86.5424 104.362 87.7626 103.285 88.8033 102.352C89.8081 101.383 90.9923 100.63 91.3512 100.63C92.2484 100.63 94.258 98.1894 95.6934 95.2826C96.3394 94.0625 96.8059 92.9859 96.7341 92.9141C96.6624 92.8423 94.5092 95.0673 91.9254 97.8664Z" fill="#ffffff" fill-rule="nonzero" opacity="1" stroke="none"/>
<path d="M118.051 110.893C116.472 112.257 116.185 112.831 117.118 112.831C117.512 112.831 117.62 113.046 117.405 113.621C117.153 114.41 117.189 114.41 118.015 113.8C119.235 112.903 121.065 112.113 121.89 112.113C122.608 112.113 123.182 111.18 122.68 110.857C122.501 110.786 121.639 110.965 120.706 111.288C118.804 112.006 118.374 111.79 119.199 110.498C119.988 109.314 119.809 109.35 118.051 110.893Z" fill="#ffffff" fill-rule="nonzero" opacity="1" stroke="none"/>
<path d="M78.1092 113.298C76.1354 115.774 76.3148 116.168 78.2886 113.728C79.0422 112.831 79.5087 112.113 79.3293 112.113C79.1857 112.113 78.6116 112.652 78.1092 113.298Z" fill="#ffffff" fill-rule="nonzero" opacity="1" stroke="none"/>
<path d="M68.3122 134.363C67.8098 135.152 67.3791 135.834 67.3791 135.942C67.3791 136.014 67.9533 135.798 68.6352 135.475C69.6041 135.045 69.8553 134.686 69.8912 133.896C69.8912 132.533 69.4247 132.676 68.3122 134.363Z" fill="#ffffff" fill-rule="nonzero" opacity="1" stroke="none"/>
<path d="M97.416 138.382C94.3298 143.514 93.5762 145.057 93.5762 146.098C93.5762 147.102 94.5451 145.918 97.2007 141.684C98.7438 139.172 99.6768 137.377 99.5333 137.018C99.4256 136.731 99.6409 135.834 100.072 135.009C100.466 134.219 100.718 133.502 100.646 133.43C100.574 133.322 99.1026 135.583 97.416 138.382Z" fill="#ffffff" fill-rule="nonzero" opacity="1" stroke="none"/>
<path d="M454.449 162.857C454.808 163.754 454.88 164.328 454.628 164.471C454.413 164.615 454.772 165.297 455.49 166.122C456.136 166.912 456.781 167.45 456.925 167.306C457.212 167.019 455.561 163.646 454.485 162.282C453.911 161.493 453.875 161.493 454.449 162.857Z" fill="#ffffff" fill-rule="nonzero" opacity="1" stroke="none"/>
<path d="M464.318 164.328C464.389 164.507 464.964 165.656 465.574 166.84C467.655 170.859 471.746 182.092 471.136 182.092C470.741 182.092 469.306 180.477 469.306 180.046C469.306 178.647 465.538 167.809 465.143 168.168C465.107 168.239 465.753 170.644 466.614 173.479C468.337 179.149 468.875 181.733 468.301 181.733C468.122 181.733 467.583 180.8 467.117 179.651C466.65 178.539 466.22 177.857 466.148 178.144C466.04 178.826 470.095 186.326 470.311 185.752C470.382 185.501 470.203 184.568 469.88 183.635C469.198 181.661 469.162 181.23 469.701 181.589C470.275 181.948 471.961 185.752 472.859 188.731C473.433 190.668 473.792 191.35 474.509 191.673C475.012 191.889 475.406 191.96 475.406 191.781C475.406 191.637 474.94 190.345 474.33 188.91C473.756 187.475 473.253 186.147 473.253 185.931C473.253 185.106 474.366 186.613 475.012 188.408C475.406 189.448 476.052 190.633 476.447 191.027C476.806 191.386 477.201 191.924 477.273 192.176C477.38 192.463 477.596 192.57 477.739 192.427C478.744 191.494 471.387 174.376 467.224 167.845C465.61 165.333 463.851 163.215 464.318 164.328Z" fill="#ffffff" fill-rule="nonzero" opacity="1" stroke="none"/>
<path d="M458.899 168.598C458.899 168.993 461.877 174.232 462.021 174.089C462.236 173.838 459.509 168.455 459.186 168.455C459.042 168.455 458.899 168.527 458.899 168.598Z" fill="#ffffff" fill-rule="nonzero" opacity="1" stroke="none"/>
<path d="M459.832 173.479C460.047 174.735 460.514 175.56 460.837 175.237C460.944 175.166 460.693 174.448 460.298 173.658L459.617 172.223L459.832 173.479Z" fill="#ffffff" fill-rule="nonzero" opacity="1" stroke="none"/>
<path d="M451.937 183.276C452.045 183.635 452.26 183.814 452.367 183.706C452.475 183.599 452.367 183.312 452.116 183.061C451.757 182.738 451.722 182.773 451.937 183.276Z" fill="#ffffff" fill-rule="nonzero" opacity="1" stroke="none"/>
<path d="M456.638 185.644C457.356 186.864 458.002 187.762 458.109 187.69C458.36 187.439 456.243 183.778 455.777 183.599C455.525 183.527 455.92 184.46 456.638 185.644Z" fill="#ffffff" fill-rule="nonzero" opacity="1" stroke="none"/>
<path d="M453.516 184.46C453.516 185.142 454.377 186.936 458.576 195.011C459.473 196.697 460.37 198.528 460.621 199.138C461.016 200.142 461.016 200.071 460.908 198.24C460.801 197.164 460.55 195.405 460.334 194.365C460.011 192.893 459.76 192.499 459.222 192.499C458.719 192.499 458.073 191.566 456.71 188.802C455.741 186.793 454.592 184.819 454.198 184.424C453.516 183.742 453.516 183.742 453.516 184.46Z" fill="#ffffff" fill-rule="nonzero" opacity="1" stroke="none"/>
<path d="M467.87 187.367C467.87 188.049 470.777 196.159 471.567 197.774C472.5 199.64 474.222 207.284 474.581 211.339C474.832 214.066 475.945 216.507 476.591 215.861C476.806 215.645 477.308 215.466 477.667 215.466C478.385 215.466 478.385 215.681 477.667 211.698C477.308 209.903 478.026 211.016 479.533 214.712C480.323 216.65 481.148 218.229 481.328 218.265C482.045 218.373 481.687 212.128 480.646 206.961C479.713 202.224 479.569 201.901 478.959 202.296C478.493 202.583 478.277 203.229 478.206 204.664L478.098 206.638L476.734 204.556C475.622 202.906 475.227 201.757 474.509 198.276C473.72 194.436 472.392 191.099 471.423 190.525C470.921 190.202 471.028 191.53 471.638 192.965C472.284 194.508 472.356 195.334 471.818 194.795C471.603 194.58 470.813 192.822 470.095 190.884C469.342 188.946 468.552 187.295 468.301 187.187C468.086 187.116 467.87 187.187 467.87 187.367Z" fill="#ffffff" fill-rule="nonzero" opacity="1" stroke="none"/>
<path d="M33.5384 214.282C33.4666 214.461 33.2872 215.179 33.1436 215.897C32.9283 217.009 33.0001 217.26 33.4666 217.26C33.8613 217.26 34.0049 216.865 34.0049 215.645C34.0049 214.102 33.8613 213.707 33.5384 214.282Z" fill="#ffffff" fill-rule="nonzero" opacity="1" stroke="none"/>
<path d="M477.057 223.433C477.093 227.595 477.775 231.041 478.816 232.297C480.108 233.84 480.395 238.074 479.21 238.074C478.887 238.074 478.887 238.971 479.282 241.842C479.605 244.031 479.964 245.503 480.179 245.359C480.359 245.252 480.431 244.462 480.287 243.601C480.179 242.668 480.215 242.022 480.431 242.022C480.861 242.022 480.789 241.304 481.112 247.692C481.328 251.316 481.579 253.326 481.866 253.613C482.225 253.972 482.261 253.434 482.045 250.993C481.902 249.307 481.758 243.601 481.687 238.325C481.543 227.631 481.256 225.909 479.39 224.509C478.744 224.043 478.134 223.074 477.739 221.925C477.416 220.956 477.129 220.131 477.093 220.131C477.057 220.131 477.021 221.638 477.057 223.433Z" fill="#ffffff" fill-rule="nonzero" opacity="1" stroke="none"/>
<path d="M62.9651 231.866C62.8575 232.009 62.678 233.66 62.5345 235.49C62.3192 237.859 62.3909 238.792 62.678 238.792C62.9292 238.792 63.0728 237.967 63.1087 236.531L63.1446 234.306L63.647 235.742L64.1494 237.177L63.9699 234.701C63.8264 232.368 63.3958 231.184 62.9651 231.866Z" fill="#ffffff" fill-rule="nonzero" opacity="1" stroke="none"/>
<path d="M466.65 275.145C466.471 277.477 466.435 279.451 466.507 279.559C466.866 279.918 467.44 273.745 467.189 272.346C466.973 271.197 466.866 271.736 466.65 275.145Z" fill="#ffffff" fill-rule="nonzero" opacity="1" stroke="none"/>
<path d="M30.9187 277.011C31.2416 278.913 31.8876 280.887 32.1029 280.635C32.3541 280.384 31.4569 276.365 31.0263 275.934C30.811 275.719 30.7751 276.078 30.9187 277.011Z" fill="#ffffff" fill-rule="nonzero" opacity="1" stroke="none"/>
<path d="M53.7423 354.92C53.7423 355.135 54.3165 357.253 54.9984 359.585C56.2903 363.928 59.7354 371.464 60.812 372.361C61.1708 372.612 60.9914 372.11 60.4172 371.105C59.2688 369.167 59.3406 368.485 60.5249 369.992C61.7091 371.5 61.3861 370.566 59.6277 367.265C58.6947 365.578 57.008 362.026 55.8596 359.37C54.7113 356.714 53.7423 354.705 53.7423 354.92Z" fill="#ffffff" fill-rule="nonzero" opacity="1" stroke="none"/>
<path d="M83.1691 356.068C83.1691 356.32 83.4203 357.109 83.7074 357.827C84.3175 359.298 84.3893 359.872 83.8868 359.549C83.1332 359.083 83.5639 360.088 85.0711 362.241C85.8965 363.461 86.7578 364.717 86.9372 365.04C87.1525 365.363 87.8343 366.44 88.4444 367.409C90.6335 370.746 90.4182 372.612 88.1214 370.782C86.1836 369.275 86.686 370.1 89.9516 373.868C92.7508 377.062 94.0068 377.923 91.5306 374.909C88.6597 371.428 88.6956 371.428 96.0882 377.098C100.323 380.328 101.722 381.117 100.179 379.43C99.8204 379 98.5643 377.923 97.416 377.062C96.2676 376.165 95.4064 375.268 95.4781 375.052C95.5499 374.837 94.6886 373.402 93.5762 371.894C92.4278 370.351 89.7722 366.224 87.6549 362.707C83.4921 355.889 83.1691 355.387 83.1691 356.068Z" fill="#ffffff" fill-rule="nonzero" opacity="1" stroke="none"/>
<path d="M65.226 373.186C65.226 373.294 65.4772 373.976 65.7643 374.693C66.5538 376.595 66.4102 376.954 65.4413 375.411C64.2929 373.545 64.1853 373.509 64.3288 374.945C64.5441 377.385 67.6303 384.49 69.4964 386.967L70.4295 388.223L70.6089 386.859L70.7883 385.495L74.5564 390.053C77.1402 393.139 78.6833 395.4 79.4728 397.158C80.8365 400.173 80.9801 400.998 80.047 400.244C78.7551 399.168 80.2623 401.213 82.6308 403.797C84.1381 405.412 86.5783 407.386 89.3775 409.288C91.7818 410.903 94.6527 412.984 95.7293 413.881C97.3442 415.281 97.5595 415.353 96.9136 414.455C96.4829 413.845 95.6576 412.876 95.0116 412.302C93.612 410.974 92.9661 409.898 93.7197 410.185C94.1144 410.329 94.1862 410.185 94.0786 409.539C93.8991 408.821 94.0427 408.893 94.9039 409.97C95.4422 410.652 96.9136 412.374 98.1696 413.774C100.287 416.25 101.041 417.398 99.8563 416.429C99.5692 416.178 99.318 416.07 99.318 416.178C99.318 416.501 104.844 421.74 108.11 424.468C111.196 427.087 112.524 427.913 111.483 426.585C110.909 425.867 110.73 425.724 115.144 428.918C117.871 430.891 123.577 433.906 123.9 433.583C124.151 433.368 121.89 431.932 117.261 429.348C112.273 426.585 108.577 423.642 105.562 420.125C103.768 418.044 103.696 417.578 105.203 418.259C106.352 418.798 106.675 418.546 106.172 417.578C105.777 416.86 98.8156 411.046 98.349 411.046C98.2055 411.046 98.5643 411.513 99.1385 412.123C99.7127 412.697 100.036 413.307 99.8921 413.451C99.7845 413.594 97.7749 411.728 95.4422 409.324C93.1455 406.919 90.9923 404.946 90.6694 404.946C90.0234 404.946 83.1332 395.185 79.8676 389.586C78.6833 387.577 77.5709 385.926 77.3914 385.926C76.9249 385.926 76.9967 386.177 77.7144 387.29L78.3245 388.258L77.212 387.469C75.4177 386.213 73.5875 383.952 72.4032 381.619C71.0754 378.964 69.9988 378.569 70.9678 381.081C71.6496 382.876 70.6807 381.584 68.0969 377.313C65.6925 373.33 65.226 372.684 65.226 373.186Z" fill="#ffffff" fill-rule="nonzero" opacity="1" stroke="none"/>
<path d="M101.758 382.373C101.938 383.557 102.045 383.629 102.727 382.911C103.122 382.517 103.158 382.337 102.799 382.086C101.758 381.261 101.615 381.297 101.758 382.373Z" fill="#ffffff" fill-rule="nonzero" opacity="1" stroke="none"/>
<path d="M110.12 387.433C111.125 388.294 112.093 390.663 111.699 391.273C111.591 391.488 112.093 391.955 112.847 392.349C113.601 392.708 114.785 393.641 115.467 394.323C116.651 395.579 116.687 395.615 115.826 395.543C113.206 395.256 115.862 399.276 120.67 402.864C128.601 408.785 137.25 413.271 152.789 419.551C157.561 421.489 159.786 422.566 160.684 423.427C162.263 424.934 166.748 427.733 172.347 430.676C177.263 433.26 176.904 433.619 171.27 431.717C169.296 431.035 167.61 430.568 167.538 430.64C167.466 430.712 169.404 431.717 171.844 432.901L176.294 435.018L177.407 434.336C178.017 433.942 178.806 433.655 179.129 433.655C179.99 433.655 184.727 436.095 184.727 436.561C184.727 436.777 184.512 436.884 184.261 436.777C183.974 436.669 182.825 436.49 181.641 436.346L179.524 436.131L180.421 436.849C181.569 437.782 184.333 438.643 186.845 438.858L188.854 439.038L187.383 438.356C185.553 437.53 185.302 437.136 185.876 436.203C186.45 435.27 185.912 434.659 183.328 433.439C182.215 432.901 181.498 432.399 181.713 432.327C182.861 431.932 192.73 435.198 195.027 436.741C195.529 437.028 195.816 437.53 195.709 437.782C195.457 438.463 198.508 439.576 203.568 440.688C205.757 441.155 208.987 441.873 210.745 442.267C212.539 442.662 215.123 443.559 216.523 444.241C218.461 445.21 219.537 445.497 221.188 445.533C223.879 445.605 227.504 444.851 227.324 444.313C227.253 444.062 226.068 443.523 224.705 443.093C223.018 442.59 222.552 442.303 223.233 442.303C223.772 442.267 224.202 442.088 224.202 441.908C224.202 441.478 221.798 441.442 221.619 441.873C221.583 442.052 219.824 441.621 217.743 440.975C213.365 439.576 213.759 439.648 213.867 440.186C214.046 441.083 207.049 440.329 204.106 439.145C203.711 439.002 203.819 438.858 204.465 438.679C205.218 438.463 205.003 438.356 203.209 437.997C199.584 437.279 195.099 435.808 194.919 435.27C194.811 434.982 193.807 434.588 192.694 434.372C191.546 434.157 188.962 433.475 186.881 432.865C184.799 432.255 182.825 431.681 182.502 431.609C181.605 431.358 181.713 430.784 182.682 430.748C183.112 430.748 182.072 430.281 180.385 429.707C178.663 429.133 175.684 427.877 173.746 426.908C170.193 425.114 163.842 421.13 163.411 420.413C163.267 420.233 162.944 420.125 162.657 420.233C161.617 420.628 157.095 417.219 157.095 416.07C157.095 415.711 156.772 415.317 156.377 415.173C155.408 414.85 151.999 412.302 146.508 407.816C142.417 404.443 138.147 401.357 137.537 401.357C137.429 401.357 134.881 400.209 131.867 398.809C125.874 396.01 119.917 392.816 113.852 389.191C109.438 386.536 108.756 386.213 110.12 387.433Z" fill="#ffffff" fill-rule="nonzero" opacity="1" stroke="none"/>
<path d="M419.28 417.003C417.378 419.085 416.122 420.018 416.768 418.834C417.378 417.793 415.799 419.695 414.184 421.992C412.103 424.97 412.534 424.683 418.096 419.48C420.213 417.506 421.936 415.711 421.936 415.46C421.936 414.491 421.29 414.85 419.28 417.003Z" fill="#ffffff" fill-rule="nonzero" opacity="1" stroke="none"/>
<path d="M141.126 417.111L140.049 417.326L141.484 418.403C142.274 419.013 143.673 420.233 144.606 421.166C145.54 422.063 147.334 423.319 148.554 423.894C149.81 424.504 152.107 425.58 153.686 426.334C155.265 427.052 156.341 427.733 156.09 427.841C155.839 427.913 155.157 427.769 154.547 427.554C151.963 426.477 153.542 427.698 158.423 430.497C167.358 435.7 171.378 437.459 172.239 436.597C172.705 436.131 175.469 437.423 177.55 439.038C178.232 439.576 179.883 440.258 181.175 440.581C182.502 440.904 185.732 442.016 188.352 443.021C202.491 448.404 204.86 449.122 206.259 448.368C206.69 448.153 206.977 447.901 206.905 447.83C206.869 447.758 204.608 447.184 201.953 446.574C195.314 444.959 195.421 444.995 195.924 443.882C196.57 442.483 195.96 442.196 191.869 442.088C187.024 441.98 183.938 440.94 174.069 436.167C168.004 433.224 166.461 432.327 165.385 431.071C164.667 430.245 163.985 429.312 163.842 428.954C163.59 428.272 156.341 424.611 153.865 423.929C152.358 423.499 145.719 419.623 143.279 417.757C142.489 417.111 141.915 416.967 141.126 417.111Z" fill="#ffffff" fill-rule="nonzero" opacity="1" stroke="none"/>
<path d="M103.624 423.499C106.711 426.262 110.514 430.102 112.022 432.004C112.883 433.116 115.323 434.624 115.682 434.265C115.718 434.229 114.749 433.332 113.457 432.291C112.201 431.25 111.16 430.245 111.16 430.066C111.16 429.887 111.519 429.707 111.95 429.635C112.632 429.564 112.129 428.989 109.007 426.19C106.962 424.36 105.096 422.925 104.88 422.996C104.701 423.068 103.84 422.673 103.014 422.135C100.538 420.413 100.789 420.951 103.624 423.499Z" fill="#ffffff" fill-rule="nonzero" opacity="1" stroke="none"/>
<path d="M409.878 424.037C408.012 425.401 404.352 429.133 404.352 429.635C404.352 429.887 404.603 430.604 404.926 431.178C405.572 432.434 405.931 432.291 407.653 429.922C408.945 428.164 408.981 427.41 407.761 427.626C407.258 427.733 406.864 427.698 406.864 427.518C406.864 427.159 408.622 425.903 409.555 425.616C410.309 425.401 411.816 423.248 411.242 423.248C411.062 423.248 410.452 423.606 409.878 424.037Z" fill="#ffffff" fill-rule="nonzero" opacity="1" stroke="none"/>
<path d="M150.348 428.702C150.887 429.169 152.322 430.066 153.578 430.712C155.588 431.789 155.731 431.824 154.762 430.999C154.188 430.497 152.717 429.564 151.533 428.954C149.702 428.02 149.523 427.985 150.348 428.702Z" fill="#ffffff" fill-rule="nonzero" opacity="1" stroke="none"/>
<path d="M116.974 435.521C117.082 435.772 118.051 436.705 119.199 437.566C120.311 438.392 122.788 440.545 124.69 442.303C126.843 444.313 128.242 445.389 128.386 445.138C128.745 444.564 130.683 445.605 136.783 449.624C139.582 451.454 143.925 454.038 146.508 455.402C149.954 457.196 150.958 457.878 150.492 458.057C149.989 458.237 150.743 458.703 153.291 459.78C155.229 460.605 157.095 461.287 157.454 461.287C157.813 461.287 160.684 462.543 163.842 464.086C167 465.665 170.947 467.46 172.598 468.105C174.213 468.751 176.222 469.577 177.012 469.9C179.811 471.12 193.986 475.677 200.41 477.436C215.625 481.563 233.963 484.506 248.426 485.151C251.009 485.259 254.885 485.439 257.038 485.546C261.345 485.726 261.739 485.223 257.577 484.793C256.249 484.649 254.957 484.398 254.67 484.218C254.383 484.039 254.347 483.895 254.526 483.895C255.531 483.86 253.629 483.178 252.517 483.178C250.328 483.178 247.887 482.747 247.887 482.352C247.887 482.137 249.646 482.065 252.911 482.209C255.818 482.316 257.935 482.245 257.935 482.065C257.935 481.886 257.792 481.742 257.612 481.742C257.433 481.742 256.787 481.312 256.177 480.809C254.526 479.41 250.794 479.266 244.622 480.307C241.033 480.917 238.916 481.06 236.296 480.953C234.394 480.845 232.707 480.666 232.564 480.522C232.42 480.414 232.636 480.092 232.994 479.804C233.64 479.338 233.605 479.266 232.277 478.907C231.487 478.692 229.585 478.333 228.042 478.118C226.499 477.938 223.915 477.364 222.3 476.826C220.075 476.144 218.927 475.965 217.527 476.108C215.913 476.288 215.625 476.216 215.482 475.606C215.338 475.103 214.98 474.924 214.082 474.924C212.647 474.924 201.773 472.735 198.005 471.694C196.534 471.299 193.197 470.402 190.649 469.72C188.065 469.039 183.4 467.495 180.242 466.275C174.715 464.158 172.526 463.189 174.141 463.584C174.536 463.656 175.576 463.871 176.474 463.979C179.344 464.409 177.622 463.548 173.28 462.364C168.435 461.072 167.645 460.713 168.184 460.067C168.507 459.708 167.574 459.277 163.985 458.057C161.473 457.196 157.167 455.653 154.439 454.576C151.712 453.536 149.343 452.746 149.236 452.89C149.128 452.997 149.666 453.643 150.456 454.325C151.245 454.971 151.748 455.545 151.568 455.545C150.528 455.545 142.059 450.019 142.489 449.588C142.561 449.48 143.315 449.696 144.14 450.019C144.965 450.342 145.755 450.521 145.863 450.378C146.257 449.983 145.791 449.803 141.843 448.727C139.08 448.009 137.716 447.435 137.034 446.789C134.989 444.744 137.286 445.282 144.678 448.583C152.466 452.1 150.348 450.378 141.7 446.179C138.865 444.815 135.42 442.949 134.092 442.088C132.728 441.191 131.616 440.581 131.616 440.688C131.616 440.796 132.369 441.657 133.266 442.626C134.594 444.026 134.81 444.421 134.271 444.421C133.338 444.421 131.759 443.416 126.771 439.612C121.855 435.844 121.137 435.341 121.89 436.274C122.788 437.423 121.926 437.387 119.558 436.238C116.974 434.947 116.795 434.911 116.974 435.521Z" fill="#ffffff" fill-rule="nonzero" opacity="1" stroke="none"/>
<path d="M188.675 437.171C188.675 437.602 191.976 438.32 193.807 438.32C195.852 438.32 195.063 437.782 192.228 437.315C189.393 436.813 188.675 436.777 188.675 437.171Z" fill="#ffffff" fill-rule="nonzero" opacity="1" stroke="none"/>
<path d="M397.246 437.997C395.739 439.109 395.38 439.791 396.708 439.109C397.354 438.75 399.22 436.884 398.933 436.884C398.825 436.884 398.071 437.387 397.246 437.997Z" fill="#ffffff" fill-rule="nonzero" opacity="1" stroke="none"/>
<path d="M188.962 440.365C189.213 440.473 189.536 440.437 189.644 440.329C189.787 440.222 189.572 440.114 189.177 440.15C188.783 440.15 188.675 440.258 188.962 440.365Z" fill="#ffffff" fill-rule="nonzero" opacity="1" stroke="none"/>
<path d="M190.756 440.724C191.007 440.832 191.33 440.796 191.438 440.688C191.582 440.581 191.366 440.473 190.972 440.509C190.577 440.509 190.469 440.617 190.756 440.724Z" fill="#ffffff" fill-rule="nonzero" opacity="1" stroke="none"/>
<path d="M234.609 445.533C234.215 445.82 234.179 445.964 234.538 446.107C235.291 446.394 234.609 446.933 233.425 446.933C231.99 446.968 232.743 447.435 234.717 447.794C236.117 448.045 236.44 448.512 235.471 448.87C234.753 449.158 230.339 449.158 228.903 448.87C227.54 448.583 227.791 448.009 229.262 448.009C229.944 448.009 230.267 447.866 230.124 447.614C229.765 447.076 225.997 447.363 225.638 447.973C225.458 448.332 224.131 448.583 221.188 448.835C218.891 449.05 217.025 449.301 217.025 449.445C217.025 449.552 218.532 449.947 220.362 450.306C229.657 452.1 233.748 452.71 238.736 452.89C244.012 453.105 244.155 453.105 245.375 452.244C246.595 451.382 246.631 451.311 246.559 449.086C246.524 447.866 246.38 446.717 246.201 446.538C245.878 446.215 238.162 445.138 236.296 445.138C235.65 445.138 234.896 445.318 234.609 445.533Z" fill="#ffffff" fill-rule="nonzero" opacity="1" stroke="none"/>
<path d="M374.028 452.28C373.812 452.459 372.485 453.249 371.049 454.038C368.394 455.438 368.142 455.904 369.973 455.904C371.193 455.904 372.808 455.258 374.889 453.966C376.324 453.033 376.396 452.961 375.75 452.495C374.997 451.885 374.494 451.849 374.028 452.28Z" fill="#ffffff" fill-rule="nonzero" opacity="1" stroke="none"/>
<path d="M365.415 455.904C364.195 457.196 364.302 457.196 366.527 456.227C367.855 455.689 368.142 455.438 367.748 455.186C366.886 454.648 366.527 454.756 365.415 455.904Z" fill="#ffffff" fill-rule="nonzero" opacity="1" stroke="none"/>
<path d="M362.042 458.093C361.18 458.488 360.534 458.883 360.642 458.99C361.001 459.313 362.652 458.739 363.298 458.021C364.015 457.196 364.051 457.196 362.042 458.093Z" fill="#ffffff" fill-rule="nonzero" opacity="1" stroke="none"/>
<path d="M284.743 461.467C282.266 462.005 281.979 462.184 283.271 462.507C284.24 462.758 287.542 461.861 287.901 461.251C288.188 460.821 287.362 460.892 284.743 461.467Z" fill="#ffffff" fill-rule="nonzero" opacity="1" stroke="none"/>
<path d="M338.751 467.029C333.763 468.787 328.775 470.618 327.663 471.12C326.586 471.622 325.258 472.053 324.792 472.053C323.93 472.053 319.122 474.493 319.409 474.78C319.48 474.888 320.27 474.78 321.131 474.601C325.904 473.488 322.603 475.211 316.717 476.934C311.119 478.513 304.372 479.912 300.784 480.163L297.949 480.343L302.076 478.871C308.32 476.646 308.966 476.467 312.375 475.785C315.282 475.247 317.04 474.565 315.641 474.565C315.318 474.565 314.995 474.386 314.923 474.17C314.815 473.883 313.38 474.099 310.329 474.852C302.111 476.898 293.535 478.261 278.283 479.948C272.972 480.558 268.414 481.025 268.127 481.025C267.804 481.025 267.697 481.168 267.804 481.383C267.912 481.563 268.63 481.742 269.347 481.742C271.68 481.742 270.065 482.352 266.01 482.998C263.857 483.321 261.775 483.788 261.381 483.967C260.053 484.685 261.416 484.9 264.574 484.434C266.369 484.218 268.701 484.075 269.778 484.147C270.855 484.218 273.044 484.147 274.623 483.967L277.493 483.68L276.058 482.962L274.623 482.281L278.175 482.173C280.759 482.101 282.123 482.245 283.128 482.639C285.03 483.393 288.439 483.321 293.606 482.424C296.011 482.029 298.989 481.563 300.281 481.383C309.361 480.235 330.821 474.027 344.529 468.608C351.527 465.809 352.819 464.876 349.589 464.876C348.261 464.876 347.974 464.768 348.154 464.337C348.261 464.05 348.225 463.799 348.082 463.799C347.938 463.835 343.74 465.27 338.751 467.029Z" fill="#ffffff" fill-rule="nonzero" opacity="1" stroke="none"/>
<path d="M253.27 477.077C253.27 477.508 253.557 477.508 254.526 477.077C255.172 476.79 255.136 476.754 254.275 476.754C253.701 476.718 253.27 476.862 253.27 477.077Z" fill="#ffffff" fill-rule="nonzero" opacity="1" stroke="none"/>
</g>
<g opacity="1">
<path d="M209.739 224.512C211.838 225.135 213.445 226.152 214.56 227.562C215.675 228.973 216.233 230.711 216.233 232.778C216.233 235.828 215.077 238.206 212.764 239.912C210.452 241.617 207.147 242.47 202.851 242.47L185.877 242.47L185.877 208.03L201.916 208.03C205.917 208.03 209.033 208.801 211.264 210.342C213.494 211.884 214.609 214.081 214.609 216.935C214.609 218.641 214.183 220.141 213.33 221.437C212.477 222.732 211.28 223.758 209.739 224.512ZM193.798 222.298L201.227 222.298C202.965 222.298 204.277 221.945 205.163 221.24C206.049 220.535 206.491 219.493 206.491 218.116C206.491 216.771 206.04 215.738 205.138 215.016C204.236 214.295 202.933 213.934 201.227 213.934L193.798 213.934L193.798 222.298ZM202.555 236.566C206.295 236.566 208.164 235.09 208.164 232.138C208.164 229.284 206.295 227.858 202.555 227.858L193.798 227.858L193.798 236.566L202.555 236.566Z" fill="#ffffff" fill-rule="nonzero" opacity="1" stroke="none"/>
<path d="M245.852 235.09L229.862 235.09L226.811 242.47L218.644 242.47L233.994 208.03L241.866 208.03L257.266 242.47L248.902 242.47L245.852 235.09ZM243.342 229.038L237.881 215.853L232.42 229.038L243.342 229.038Z" fill="#ffffff" fill-rule="nonzero" opacity="1" stroke="none"/>
<path d="M307.303 208.03L307.303 242.47L261.842 242.47L261.842 208.03L269.763 208.03L269.763 235.976L280.636 235.976L280.636 208.03L288.557 208.03L288.557 235.976L299.381 235.976L299.381 208.03L307.303 208.03Z" fill="#ffffff" fill-rule="nonzero" opacity="1" stroke="none"/>
<path d="M339.184 235.09L323.194 235.09L320.144 242.47L311.977 242.47L327.327 208.03L335.199 208.03L350.599 242.47L342.235 242.47L339.184 235.09ZM336.675 229.038L331.214 215.853L325.753 229.038L336.675 229.038Z" fill="#ffffff" fill-rule="nonzero" opacity="1" stroke="none"/>
<path d="M107.968 274.499L96.9473 274.499L96.9473 302.445L89.0753 302.445L89.0753 274.499L78.1037 274.499L78.1037 268.005L107.968 268.005L107.968 274.499Z" fill="#ffffff" fill-rule="nonzero" opacity="1" stroke="none"/>
<path d="M112.987 268.005L120.908 268.005L120.908 290.44L137.341 268.005L144.819 268.005L144.819 302.445L136.947 302.445L136.947 280.059L120.514 302.445L112.987 302.445L112.987 268.005Z" fill="#ffffff" fill-rule="nonzero" opacity="1" stroke="none"/>
<path d="M184.77 268.005L184.77 302.445L176.848 302.445L176.848 274.499L161.301 274.499L161.301 302.445L153.38 302.445L153.38 268.005L184.77 268.005Z" fill="#ffffff" fill-rule="nonzero" opacity="1" stroke="none"/>
<path d="M209.763 303.035C206.188 303.035 202.965 302.265 200.095 300.723C197.225 299.181 194.979 297.058 193.355 294.352C191.731 291.646 190.92 288.603 190.92 285.225C190.92 281.846 191.731 278.804 193.355 276.098C194.979 273.392 197.225 271.268 200.095 269.727C202.965 268.185 206.188 267.414 209.763 267.414C213.338 267.414 216.553 268.185 219.407 269.727C222.26 271.268 224.507 273.392 226.147 276.098C227.787 278.804 228.607 281.846 228.607 285.225C228.607 288.603 227.787 291.646 226.147 294.352C224.507 297.058 222.26 299.181 219.407 300.723C216.553 302.265 213.338 303.035 209.763 303.035ZM209.763 296.246C211.797 296.246 213.634 295.778 215.274 294.844C216.914 293.909 218.201 292.605 219.136 290.932C220.071 289.259 220.538 287.357 220.538 285.225C220.538 283.093 220.071 281.19 219.136 279.518C218.201 277.845 216.914 276.541 215.274 275.606C213.634 274.671 211.797 274.204 209.763 274.204C207.73 274.204 205.893 274.671 204.253 275.606C202.613 276.541 201.325 277.845 200.391 279.518C199.456 281.19 198.988 283.093 198.988 285.225C198.988 287.357 199.456 289.259 200.391 290.932C201.325 292.605 202.613 293.909 204.253 294.844C205.893 295.778 207.73 296.246 209.763 296.246Z" fill="#ffffff" fill-rule="nonzero" opacity="1" stroke="none"/>
<path d="M259.013 274.499L242.629 274.499L242.678 302.445L234.757 302.445L234.757 268.005L259.062 268.005L259.013 274.499Z" fill="#ffffff" fill-rule="nonzero" opacity="1" stroke="none"/>
<path d="M278.84 268.005C281.891 268.005 284.539 268.513 286.786 269.53C289.033 270.547 290.763 271.99 291.977 273.86C293.19 275.729 293.797 277.943 293.797 280.502C293.797 283.027 293.19 285.233 291.977 287.119C290.763 289.005 289.033 290.448 286.786 291.449C284.539 292.449 281.891 292.949 278.84 292.949L271.903 292.949L271.903 302.445L263.933 302.445L263.933 268.005L278.84 268.005ZM278.397 286.455C280.792 286.455 282.612 285.938 283.859 284.905C285.105 283.872 285.728 282.404 285.728 280.502C285.728 278.566 285.105 277.082 283.859 276.049C282.612 275.016 280.792 274.499 278.397 274.499L271.903 274.499L271.903 286.455L278.397 286.455Z" fill="#ffffff" fill-rule="nonzero" opacity="1" stroke="none"/>
<path d="M320.66 295.065L304.67 295.065L301.62 302.445L293.453 302.445L308.803 268.005L316.675 268.005L332.075 302.445L323.711 302.445L320.66 295.065ZM318.151 289.013L312.69 275.828L307.229 289.013L318.151 289.013Z" fill="#ffffff" fill-rule="nonzero" opacity="1" stroke="none"/>
<path d="M376.945 285.126C376.945 289.686 375.396 293.269 372.296 295.877C369.196 298.484 364.744 299.936 358.938 300.231L358.938 303.97L351.607 303.97L351.607 300.182C345.769 299.854 341.3 298.386 338.2 295.778C335.101 293.171 333.551 289.62 333.551 285.126C333.551 280.6 335.101 277.049 338.2 274.475C341.3 271.9 345.769 270.432 351.607 270.071L351.607 266.529L358.938 266.529L358.938 270.022C364.744 270.35 369.196 271.826 372.296 274.45C375.396 277.074 376.945 280.633 376.945 285.126ZM358.938 293.983C362.415 293.655 365.006 292.761 366.712 291.301C368.417 289.842 369.27 287.767 369.27 285.077C369.27 279.829 365.826 276.91 358.938 276.32L358.938 293.983ZM341.275 285.126C341.275 290.309 344.719 293.261 351.607 293.983L351.607 276.32C348.098 276.648 345.498 277.525 343.809 278.952C342.12 280.379 341.275 282.437 341.275 285.126Z" fill="#ffffff" fill-rule="nonzero" opacity="1" stroke="none"/>
<path d="M382.899 268.005L390.82 268.005L390.82 290.44L407.253 268.005L414.731 268.005L414.731 302.445L406.859 302.445L406.859 280.059L390.426 302.445L382.899 302.445L382.899 268.005Z" fill="#ffffff" fill-rule="nonzero" opacity="1" stroke="none"/>
<path d="M450.795 268.005L450.795 302.445L442.923 302.445L442.923 293.294L435.641 293.294L429.54 302.445L421.127 302.445L428.31 292.064C425.982 291.113 424.194 289.678 422.948 287.759C421.701 285.84 421.078 283.536 421.078 280.846C421.078 278.189 421.685 275.901 422.898 273.983C424.112 272.064 425.834 270.588 428.064 269.555C430.295 268.521 432.919 268.005 435.936 268.005L450.795 268.005ZM436.133 274.499C433.87 274.499 432.14 275.024 430.943 276.074C429.745 277.123 429.147 278.681 429.147 280.748C429.147 282.748 429.721 284.29 430.869 285.372C432.017 286.455 433.706 286.996 435.936 286.996L442.923 286.996L442.923 274.499L436.133 274.499Z" fill="#ffffff" fill-rule="nonzero" opacity="1" stroke="none"/>
</g>
</g>
</svg>
